<svg data-bbox="23.5 23.5 153 153" viewBox="23.5 23.5 153 153" height="200" width="200" xmlns="http://www.w3.org/2000/svg" data-type="color" aria-hidden="true"><defs><style>#comp-kyvcofhk svg [data-color=&quot;1&quot;]{fill:#000}#comp-kyvcofhk svg [data-color=&quot;2&quot;]{fill:#fff}</style></defs><path d="M158.026 23.5H41.974C31.771 23.5 23.5 31.771 23.5 41.974v116.052c0 10.203 8.271 18.474 18.474 18.474h116.052c10.203 0 18.474-8.271 18.474-18.474V41.974c0-10.203-8.271-18.474-18.474-18.474z" fill="#111010" data-color="1"/><path d="M111.97 40.877H88.03a3.81 3.81 0 0 0-3.811 3.811v23.94a3.81 3.81 0 0 0 3.811 3.811h23.94a3.81 3.81 0 0 0 3.811-3.811v-23.94a3.81 3.81 0 0 0-3.811-3.811zM111.97 84.219H88.03a3.81 3.81 0 0 0-3.811 3.811v23.94a3.81 3.81 0 0 0 3.811 3.811h23.94a3.81 3.81 0 0 0 3.811-3.811V88.03a3.81 3.81 0 0 0-3.811-3.811zM111.97 127.561H88.03a3.81 3.81 0 0 0-3.811 3.811v23.94a3.81 3.81 0 0 0 3.811 3.811h23.94a3.81 3.81 0 0 0 3.811-3.811v-23.94a3.81 3.81 0 0 0-3.811-3.811zM159.123 111.97V88.03a3.81 3.81 0 0 0-3.811-3.811h-23.94a3.81 3.81 0 0 0-3.811 3.811v23.94a3.81 3.81 0 0 0 3.811 3.811h23.94a3.81 3.81 0 0 0 3.811-3.811zM72.439 111.97V88.03a3.81 3.81 0 0 0-3.811-3.811h-23.94a3.81 3.81 0 0 0-3.811 3.811v23.94a3.81 3.81 0 0 0 3.811 3.811h23.94a3.81 3.81 0 0 0 3.811-3.811z" fill="#FFF" data-color="2"/></svg>