<svg data-bbox="36.459 9.394 127.082 181.212" viewBox="36.459 9.394 127.082 181.212" height="200" width="200" xmlns="http://www.w3.org/2000/svg" data-type="color" aria-hidden="true"><defs><style>#comp-kyjwpuia svg [data-color=&quot;1&quot;]{fill:#ffbf23}#comp-kyjwpuia svg [data-color=&quot;2&quot;],#comp-kyjwpuia svg [data-color=&quot;3&quot;]{fill:#000}</style></defs><path d="M163.004 16.83a6.9 6.9 0 0 0-6.9-6.9H43.895a6.9 6.9 0 0 0-6.9 6.9v7.584h126.009V16.83z" fill="#FFD7EF" data-color="1"/><path d="M156.105 9.394H43.895c-4.1 0-7.436 3.336-7.436 7.436v166.34c0 4.1 3.336 7.436 7.436 7.436h112.21c4.1 0 7.436-3.336 7.436-7.436V16.83c0-4.1-3.336-7.436-7.436-7.436zm6.363 173.776a6.37 6.37 0 0 1-6.363 6.363H43.895a6.37 6.37 0 0 1-6.363-6.363V24.951h124.936V183.17zM37.532 23.878V16.83a6.37 6.37 0 0 1 6.363-6.363h112.21a6.37 6.37 0 0 1 6.363 6.363v7.048H37.532z" data-color="2"/><path fill="#1F1F1E" d="M47.733 17.667a1.762 1.762 0 1 1-3.524 0 1.762 1.762 0 0 1 3.524 0zM55.001 17.888a1.762 1.762 0 1 1-3.524 0 1.762 1.762 0 0 1 3.524 0zM62.269 18.108a1.762 1.762 0 1 1-3.524 0 1.762 1.762 0 0 1 3.524 0z" data-color="3"/></svg>