<svg data-bbox="23.5 23.5 153 153" viewBox="23.5 23.5 153 153" height="200" width="200" xmlns="http://www.w3.org/2000/svg" data-type="color" aria-hidden="true" aria-labelledby="svgcid-1by7i1-i74gjf"><defs><style></style></defs><path d="M158.026 23.5H41.974C31.771 23.5 23.5 31.771 23.5 41.974v116.052c0 10.203 8.271 18.474 18.474 18.474h116.052c10.203 0 18.474-8.271 18.474-18.474V41.974c0-10.203-8.271-18.474-18.474-18.474z" fill="#111010" data-color="1"/><path d="M108.942 120.435v17.407c0 5.796-4.716 10.512-10.512 10.512H62.157c-5.796 0-10.512-4.715-10.512-10.512V101.57c0-5.796 4.716-10.512 10.512-10.512H98.43c5.796 0 10.512 4.715 10.512 10.512v2.151h7v-2.151c0-9.656-7.855-17.512-17.512-17.512H62.157c-9.656 0-17.512 7.856-17.512 17.512v36.272c0 9.656 7.855 17.512 17.512 17.512H98.43c9.656 0 17.512-7.856 17.512-17.512v-17.407h-7z" fill="#FFF" data-color="2"/><path d="M137.843 44.646H101.57c-9.656 0-17.512 7.855-17.512 17.511v17.045h7V62.157c0-5.796 4.716-10.511 10.512-10.511h36.272c5.796 0 10.512 4.715 10.512 10.511V98.43c0 5.796-4.716 10.512-10.512 10.512H101.57c-5.796 0-10.512-4.715-10.512-10.512v-2.514h-7v2.514c0 9.656 7.855 17.512 17.512 17.512h36.272c9.656 0 17.512-7.856 17.512-17.512V62.157c0-9.656-7.855-17.511-17.511-17.511z" fill="#FFF" data-color="2"/></svg>