<svg data-bbox="3.426 6.807 188.241 190.19" viewBox="3.426 6.807 188.241 190.19" height="200" width="200" xmlns="http://www.w3.org/2000/svg" data-type="color" aria-hidden="true" aria-labelledby="svgcid--1tmhht-wcijjl"><defs><style></style></defs><path d="M177.157 16.231a8.744 8.744 0 0 0-8.744-8.744H26.211a8.744 8.744 0 0 0-8.744 8.744v9.611h159.69v-9.611z" fill="#EBEBEB" data-color="1"/><path d="M168.413 6.807H26.211c-5.196 0-9.424 4.228-9.424 9.424v155.463c0 5.196 4.228 9.424 9.424 9.424h142.202c5.196 0 9.424-4.228 9.424-9.424V16.231c0-5.196-4.228-9.424-9.424-9.424zm8.064 164.886c0 4.447-3.617 8.064-8.064 8.064H26.211c-4.447 0-8.064-3.617-8.064-8.064V26.522h158.33v145.171zM18.147 25.162v-8.931c0-4.447 3.617-8.064 8.064-8.064h142.202c4.447 0 8.064 3.617 8.064 8.064v8.931H18.147z" data-color="2"/><path d="M31.075 17.292a2.233 2.233 0 1 1-4.466 0 2.233 2.233 0 0 1 4.466 0zM40.286 17.571a2.233 2.233 0 1 1-4.466 0 2.233 2.233 0 0 1 4.466 0zM49.497 17.85a2.233 2.233 0 1 1-4.466 0 2.233 2.233 0 0 1 4.466 0z" data-color="2"/><path d="M176.477 171.693c0 4.447-3.617 8.064-8.064 8.064H26.211c-4.447 0-8.064-3.617-8.064-8.064V26.522h158.33v145.171z" fill="#FFF" data-color="3"/><path fill="#EBEBEB" d="M32.614 166.377a2.64 2.64 0 1 1-5.28 0 2.64 2.64 0 0 1 5.28 0zM165.405 166.377a2.64 2.64 0 1 1-5.28 0 2.64 2.64 0 0 1 5.28 0zM158.186 166.377a1.196 1.196 0 1 1-2.392 0 1.196 1.196 0 0 1 2.392 0zM153.856 166.377a1.196 1.196 0 1 1-2.392 0 1.196 1.196 0 0 1 2.392 0zM149.526 166.377a1.196 1.196 0 1 1-2.392 0 1.196 1.196 0 0 1 2.392 0zM145.196 166.377a1.196 1.196 0 1 1-2.392 0 1.196 1.196 0 0 1 2.392 0zM140.866 166.377a1.196 1.196 0 1 1-2.392 0 1.196 1.196 0 0 1 2.392 0zM136.536 166.377a1.196 1.196 0 1 1-2.392 0 1.196 1.196 0 0 1 2.392 0zM132.206 166.377a1.196 1.196 0 1 1-2.392 0 1.196 1.196 0 0 1 2.392 0zM127.876 166.377a1.196 1.196 0 1 1-2.392 0 1.196 1.196 0 0 1 2.392 0zM123.546 166.377a1.196 1.196 0 1 1-2.392 0 1.196 1.196 0 0 1 2.392 0zM119.216 166.377a1.196 1.196 0 1 1-2.392 0 1.196 1.196 0 0 1 2.392 0zM114.886 166.377a1.196 1.196 0 1 1-2.392 0 1.196 1.196 0 0 1 2.392 0zM110.556 166.377a1.196 1.196 0 1 1-2.392 0 1.196 1.196 0 0 1 2.392 0zM106.226 166.377a1.196 1.196 0 1 1-2.392 0 1.196 1.196 0 0 1 2.392 0zM101.895 166.377a1.196 1.196 0 1 1-2.392 0 1.196 1.196 0 0 1 2.392 0zM97.565 166.377a1.196 1.196 0 1 1-2.392 0 1.196 1.196 0 0 1 2.392 0zM93.235 166.377a1.196 1.196 0 1 1-2.392 0 1.196 1.196 0 0 1 2.392 0zM88.905 166.377a1.196 1.196 0 1 1-2.392 0 1.196 1.196 0 0 1 2.392 0zM84.575 166.377a1.196 1.196 0 1 1-2.392 0 1.196 1.196 0 0 1 2.392 0zM80.245 166.377a1.196 1.196 0 1 1-2.392 0 1.196 1.196 0 0 1 2.392 0zM75.915 166.377a1.196 1.196 0 1 1-2.392 0 1.196 1.196 0 0 1 2.392 0zM71.585 166.377a1.196 1.196 0 1 1-2.392 0 1.196 1.196 0 0 1 2.392 0zM67.255 166.377a1.196 1.196 0 1 1-2.392 0 1.196 1.196 0 0 1 2.392 0zM62.925 166.377a1.196 1.196 0 1 1-2.392 0 1.196 1.196 0 0 1 2.392 0zM58.595 166.377a1.196 1.196 0 1 1-2.392 0 1.196 1.196 0 0 1 2.392 0zM54.265 166.377a1.196 1.196 0 1 1-2.392 0 1.196 1.196 0 0 1 2.392 0zM49.935 166.377a1.196 1.196 0 1 1-2.392 0 1.196 1.196 0 0 1 2.392 0zM45.605 166.377a1.196 1.196 0 1 1-2.392 0 1.196 1.196 0 0 1 2.392 0zM41.275 166.377a1.196 1.196 0 1 1-2.392 0 1.196 1.196 0 0 1 2.392 0zM36.945 166.377a1.196 1.196 0 1 1-2.392 0 1.196 1.196 0 0 1 2.392 0zM32.614 111.722a2.64 2.64 0 1 1-5.28 0 2.64 2.64 0 0 1 5.28 0zM165.405 111.722a2.64 2.64 0 1 1-5.28 0 2.64 2.64 0 0 1 5.28 0zM158.186 111.722a1.196 1.196 0 1 1-2.392 0 1.196 1.196 0 0 1 2.392 0zM153.856 111.722a1.196 1.196 0 1 1-2.392 0 1.196 1.196 0 0 1 2.392 0zM149.526 111.722a1.196 1.196 0 1 1-2.392 0 1.196 1.196 0 0 1 2.392 0zM145.196 111.722a1.196 1.196 0 1 1-2.392 0 1.196 1.196 0 0 1 2.392 0zM140.866 111.722a1.196 1.196 0 1 1-2.392 0 1.196 1.196 0 0 1 2.392 0zM136.536 111.722a1.196 1.196 0 1 1-2.392 0 1.196 1.196 0 0 1 2.392 0zM132.206 111.722a1.196 1.196 0 1 1-2.392 0 1.196 1.196 0 0 1 2.392 0zM127.876 111.722a1.196 1.196 0 1 1-2.392 0 1.196 1.196 0 0 1 2.392 0zM123.546 111.722a1.196 1.196 0 1 1-2.392 0 1.196 1.196 0 0 1 2.392 0zM119.216 111.722a1.196 1.196 0 1 1-2.392 0 1.196 1.196 0 0 1 2.392 0zM114.886 111.722a1.196 1.196 0 1 1-2.392 0 1.196 1.196 0 0 1 2.392 0zM110.556 111.722a1.196 1.196 0 1 1-2.392 0 1.196 1.196 0 0 1 2.392 0zM106.226 111.722a1.196 1.196 0 1 1-2.392 0 1.196 1.196 0 0 1 2.392 0zM101.895 111.722a1.196 1.196 0 1 1-2.392 0 1.196 1.196 0 0 1 2.392 0zM97.565 111.722a1.196 1.196 0 1 1-2.392 0 1.196 1.196 0 0 1 2.392 0zM93.235 111.722a1.196 1.196 0 1 1-2.392 0 1.196 1.196 0 0 1 2.392 0zM88.905 111.722a1.196 1.196 0 1 1-2.392 0 1.196 1.196 0 0 1 2.392 0zM84.575 111.722a1.196 1.196 0 1 1-2.392 0 1.196 1.196 0 0 1 2.392 0zM80.245 111.722a1.196 1.196 0 1 1-2.392 0 1.196 1.196 0 0 1 2.392 0zM75.915 111.722a1.196 1.196 0 1 1-2.392 0 1.196 1.196 0 0 1 2.392 0zM71.585 111.722a1.196 1.196 0 1 1-2.392 0 1.196 1.196 0 0 1 2.392 0zM67.255 111.722a1.196 1.196 0 1 1-2.392 0 1.196 1.196 0 0 1 2.392 0zM62.925 111.722a1.196 1.196 0 1 1-2.392 0 1.196 1.196 0 0 1 2.392 0zM58.595 111.722a1.196 1.196 0 1 1-2.392 0 1.196 1.196 0 0 1 2.392 0zM54.265 111.722a1.196 1.196 0 1 1-2.392 0 1.196 1.196 0 0 1 2.392 0zM49.935 111.722a1.196 1.196 0 1 1-2.392 0 1.196 1.196 0 0 1 2.392 0zM45.605 111.722a1.196 1.196 0 1 1-2.392 0 1.196 1.196 0 0 1 2.392 0zM41.275 111.722a1.196 1.196 0 1 1-2.392 0 1.196 1.196 0 0 1 2.392 0zM36.945 111.722a1.196 1.196 0 1 1-2.392 0 1.196 1.196 0 0 1 2.392 0zM31.048 160.593a1.196 1.196 0 1 1-2.392 0 1.196 1.196 0 0 1 2.392 0zM31.048 156.263a1.196 1.196 0 1 1-2.392 0 1.196 1.196 0 0 1 2.392 0zM31.048 151.933a1.196 1.196 0 1 1-2.392 0 1.196 1.196 0 0 1 2.392 0zM31.048 147.602a1.196 1.196 0 1 1-2.392 0 1.196 1.196 0 0 1 2.392 0zM31.048 143.272a1.196 1.196 0 1 1-2.392 0 1.196 1.196 0 0 1 2.392 0zM31.048 138.942a1.196 1.196 0 1 1-2.392 0 1.196 1.196 0 0 1 2.392 0zM31.048 134.612a1.196 1.196 0 1 1-2.392 0 1.196 1.196 0 0 1 2.392 0zM31.048 130.282a1.196 1.196 0 1 1-2.392 0 1.196 1.196 0 0 1 2.392 0zM31.048 125.952a1.196 1.196 0 1 1-2.392 0 1.196 1.196 0 0 1 2.392 0zM31.048 121.622a1.196 1.196 0 1 1-2.392 0 1.196 1.196 0 0 1 2.392 0zM31.048 117.292a1.196 1.196 0 1 1-2.392 0 1.196 1.196 0 0 1 2.392 0zM164.123 160.593a1.196 1.196 0 1 1-2.392 0 1.196 1.196 0 0 1 2.392 0zM164.123 156.263a1.196 1.196 0 1 1-2.392 0 1.196 1.196 0 0 1 2.392 0zM164.123 151.933a1.196 1.196 0 1 1-2.392 0 1.196 1.196 0 0 1 2.392 0zM164.123 147.602a1.196 1.196 0 1 1-2.392 0 1.196 1.196 0 0 1 2.392 0zM164.123 143.272a1.196 1.196 0 1 1-2.392 0 1.196 1.196 0 0 1 2.392 0zM164.123 138.942a1.196 1.196 0 1 1-2.392 0 1.196 1.196 0 0 1 2.392 0zM164.123 134.612a1.196 1.196 0 1 1-2.392 0 1.196 1.196 0 0 1 2.392 0zM164.123 130.282a1.196 1.196 0 1 1-2.392 0 1.196 1.196 0 0 1 2.392 0zM164.123 125.952a1.196 1.196 0 1 1-2.392 0 1.196 1.196 0 0 1 2.392 0zM164.123 121.622a1.196 1.196 0 1 1-2.392 0 1.196 1.196 0 0 1 2.392 0zM164.123 117.292a1.196 1.196 0 1 1-2.392 0 1.196 1.196 0 0 1 2.392 0zM110.807 138.64l-5.489-5.491a.581.581 0 1 0-.824.82l4.498 4.499H83.747l4.499-4.498a.584.584 0 0 0-.824-.824l-5.491 5.491a.585.585 0 0 0 0 .824l5.491 5.491a.581.581 0 1 0 .824-.824l-4.499-4.498h25.245l-4.498 4.499a.58.58 0 0 0 .412.992.587.587 0 0 0 .412-.171l5.489-5.491a.58.58 0 0 0 0-.819z" data-color="1"/><path d="M37.737 100.11a2.277 2.277 0 0 1-2.274-2.274v-25.68a2.277 2.277 0 0 1 2.274-2.274H142.97a2.277 2.277 0 0 1 2.274 2.274v25.68a2.277 2.277 0 0 1-2.274 2.274H37.737z" fill="#FFF" data-color="3"/><path d="M142.971 70.256c1.047 0 1.899.852 1.899 1.899v25.68a1.901 1.901 0 0 1-1.899 1.899H37.737a1.901 1.901 0 0 1-1.899-1.899v-25.68c0-1.047.852-1.899 1.899-1.899h105.234m0-.75H37.737a2.649 2.649 0 0 0-2.649 2.649v25.68a2.649 2.649 0 0 0 2.649 2.649h105.234a2.649 2.649 0 0 0 2.649-2.649v-25.68a2.649 2.649 0 0 0-2.649-2.649z" fill="#EBEBEB" data-color="1"/><path d="M162.554 100.485h-26.02a2.649 2.649 0 0 1-2.649-2.649v-25.68a2.649 2.649 0 0 1 2.649-2.649h26.02a2.649 2.649 0 0 1 2.649 2.649v25.68a2.65 2.65 0 0 1-2.649 2.649zM55.227 77.855h72.608c.752 0 1.362.61 1.362 1.362v.021c0 .752-.61 1.362-1.362 1.362H55.227c-.752 0-1.362-.61-1.362-1.362v-.021c0-.753.61-1.362 1.362-1.362zM60.668 83.623h67.168c.752 0 1.362.61 1.362 1.362v.021c0 .752-.61 1.362-1.362 1.362H60.668c-.752 0-1.362-.61-1.362-1.362v-.021c0-.752.61-1.362 1.362-1.362zM66.481 89.391h61.354c.752 0 1.362.61 1.362 1.362v.021c0 .752-.61 1.362-1.362 1.362H66.481c-.752 0-1.362-.61-1.362-1.362v-.021c0-.752.61-1.362 1.362-1.362z" fill="#EBEBEB" data-color="1"/><path d="M86.32 64.093a2.277 2.277 0 0 1-2.274-2.274v-25.68a2.277 2.277 0 0 1 2.274-2.274h56.651a2.277 2.277 0 0 1 2.274 2.274v25.68a2.277 2.277 0 0 1-2.274 2.274H86.32z" fill="#FFF" data-color="3"/><path d="M142.971 34.24c1.047 0 1.899.852 1.899 1.899v25.68a1.901 1.901 0 0 1-1.899 1.899H86.32a1.901 1.901 0 0 1-1.899-1.899v-25.68c0-1.047.852-1.899 1.899-1.899h56.651m0-.75H86.32a2.649 2.649 0 0 0-2.649 2.649v25.68a2.649 2.649 0 0 0 2.649 2.649h56.651a2.649 2.649 0 0 0 2.649-2.649v-25.68a2.649 2.649 0 0 0-2.649-2.649z" fill="#EBEBEB" data-color="1"/><path d="M162.554 64.468h-26.02a2.649 2.649 0 0 1-2.649-2.649v-25.68a2.649 2.649 0 0 1 2.649-2.649h26.02a2.649 2.649 0 0 1 2.649 2.649v25.68a2.649 2.649 0 0 1-2.649 2.649zM104.725 41.838h23.11c.752 0 1.362.61 1.362 1.362v.021c0 .752-.61 1.362-1.362 1.362h-23.11c-.752 0-1.362-.61-1.362-1.362V43.2c0-.752.61-1.362 1.362-1.362zM110.459 47.606h17.376c.752 0 1.362.61 1.362 1.362v.021c0 .752-.61 1.362-1.362 1.362h-17.376c-.752 0-1.362-.61-1.362-1.362v-.021c0-.752.61-1.362 1.362-1.362zM100.339 53.375h27.496c.752 0 1.362.61 1.362 1.362v.021c0 .752-.61 1.362-1.362 1.362h-27.496c-.752 0-1.362-.61-1.362-1.362v-.021c0-.753.61-1.362 1.362-1.362zM84.191 52.42l11.307 11.307-.531.53L83.66 52.953l.531-.531zM86.923 62.189a.378.378 0 0 1-.266-.109l-.954-.954a.377.377 0 0 1 0-.531.377.377 0 0 1 .531 0l.688.689 1.505-1.506a.375.375 0 0 1 .531.529l-1.771 1.771a.366.366 0 0 1-.264.111z" fill="#EBEBEB" data-color="1"/><path d="M26.045 120.486h-9.014a2.566 2.566 0 0 0-2.566 2.566v1.12a2.566 2.566 0 0 0 2.566 2.566h9.014a2.566 2.566 0 0 0 2.566-2.566v-1.12a2.566 2.566 0 0 0-2.566-2.566z" fill="#FFF" data-color="3"/><path d="M25.906 127.133h-8.735a3.104 3.104 0 0 1-3.101-3.101v-.841c0-1.709 1.391-3.1 3.101-3.1h8.735c1.709 0 3.1 1.391 3.1 3.1v.841a3.104 3.104 0 0 1-3.1 3.101zm-8.735-6.252a2.312 2.312 0 0 0-2.31 2.309v.841a2.313 2.313 0 0 0 2.31 2.31h8.735a2.312 2.312 0 0 0 2.309-2.31v-.841a2.311 2.311 0 0 0-2.309-2.309h-8.735z" data-color="2"/><path d="M19.175 123.517a.756.756 0 1 1-1.512 0 .756.756 0 0 1 1.512 0zM22.294 123.612a.756.756 0 1 1-1.512 0 .756.756 0 0 1 1.512 0zM25.414 123.706a.756.756 0 1 1-1.512 0 .756.756 0 0 1 1.512 0z" data-color="2"/><path d="M178.062 152.099h-9.014a2.566 2.566 0 0 0-2.566 2.566v1.12a2.566 2.566 0 0 0 2.566 2.566h9.014a2.566 2.566 0 0 0 2.566-2.566v-1.12a2.566 2.566 0 0 0-2.566-2.566z" fill="#FFF" data-color="3"/><path d="M177.923 158.746h-8.735a3.104 3.104 0 0 1-3.1-3.101v-.84a3.104 3.104 0 0 1 3.1-3.101h8.735a3.104 3.104 0 0 1 3.101 3.101v.84a3.104 3.104 0 0 1-3.101 3.101zm-8.736-6.252a2.312 2.312 0 0 0-2.309 2.31v.84a2.312 2.312 0 0 0 2.309 2.31h8.735a2.313 2.313 0 0 0 2.31-2.31v-.84a2.313 2.313 0 0 0-2.31-2.31h-8.735z" data-color="2"/><path d="M171.192 155.13a.756.756 0 1 1-1.512 0 .756.756 0 0 1 1.512 0zM174.311 155.225a.756.756 0 1 1-1.512 0 .756.756 0 0 1 1.512 0zM177.431 155.319a.756.756 0 1 1-1.512 0 .756.756 0 0 1 1.512 0z" data-color="2"/><path d="M49.772 190.35h-9.014a2.566 2.566 0 0 0-2.566 2.566v1.12a2.566 2.566 0 0 0 2.566 2.566h9.014a2.566 2.566 0 0 0 2.566-2.566v-1.12a2.566 2.566 0 0 0-2.566-2.566z" fill="#FFF" data-color="3"/><path d="M49.633 196.997h-8.735a3.104 3.104 0 0 1-3.1-3.101v-.841c0-1.709 1.391-3.1 3.1-3.1h8.735c1.709 0 3.1 1.391 3.1 3.1v.841a3.104 3.104 0 0 1-3.1 3.101zm-8.735-6.251a2.311 2.311 0 0 0-2.309 2.309v.841a2.312 2.312 0 0 0 2.309 2.31h8.735a2.312 2.312 0 0 0 2.309-2.31v-.841a2.311 2.311 0 0 0-2.309-2.309h-8.735z" data-color="2"/><path d="M42.902 193.381a.756.756 0 1 1-1.512 0 .756.756 0 0 1 1.512 0zM46.021 193.476a.756.756 0 1 1-1.512 0 .756.756 0 0 1 1.512 0zM49.141 193.57a.756.756 0 1 1-1.512 0 .756.756 0 0 1 1.512 0z" data-color="2"/><path d="M177.259 51.577h-9.014a2.566 2.566 0 0 0-2.566 2.566v1.12a2.566 2.566 0 0 0 2.566 2.566h9.014a2.566 2.566 0 0 0 2.566-2.566v-1.12a2.566 2.566 0 0 0-2.566-2.566z" fill="#FFF" data-color="3"/><path d="M177.12 58.224h-8.735a3.104 3.104 0 0 1-3.101-3.1v-.841a3.104 3.104 0 0 1 3.101-3.101h8.735c1.709 0 3.1 1.391 3.1 3.101v.841c0 1.709-1.391 3.1-3.1 3.1zm-8.735-6.252a2.313 2.313 0 0 0-2.31 2.31v.841a2.312 2.312 0 0 0 2.31 2.309h8.735a2.311 2.311 0 0 0 2.309-2.309v-.841a2.312 2.312 0 0 0-2.309-2.31h-8.735z" data-color="2"/><path d="M170.389 54.608a.756.756 0 1 1-1.512 0 .756.756 0 0 1 1.512 0zM173.508 54.703a.756.756 0 1 1-1.512 0 .756.756 0 0 1 1.512 0zM176.627 54.797a.756.756 0 1 1-1.512 0 .756.756 0 0 1 1.512 0z" data-color="2"/><path d="m38.996 183.37 2.825 2.082 4.644 1.388s2.178-.742 2.442-.934c.263-.191 4.356-4.739 4.356-4.739l4.165-5.936s.168-6.391.072-7.253c-.096-.862-4.811-7.923-5.314-8.426-.503-.503-4.356-2.106-5.697-2.25-1.34-.144-3.447-.766-6.056-.072-2.609.694-5.888 2.298-6.63 3.95-.742 1.652-1.412 1.293-1.915 5.314-.503 4.021-.646 4.285-.455 5.194.191.91 1.364 5.817 2.801 7.516s4.762 4.166 4.762 4.166z" fill="#FFF" data-color="3"/><path d="M34.213 183.667c.661-.531 2.698-1.771 7.247-1.718.307-.452.573-.927.82-1.417-.582-.748-1.18-1.251-2.185-1.381-1.18-.152-2.222-.817-2.619-2.041-.172-.532-.444-.904-.824-1.248-.69-.625-1.301-1.309-1.761-2.131-.843-1.508-1.157-5.012-.531-6.618 1.482-3.805 4.144-6.575 7.611-8.615.437-.257.936-.423 1.424-.572a4.28 4.28 0 0 1 .341-.089c.042-.009.083-.014.125-.022a3.97 3.97 0 0 1 .218-.038c.05-.007.099-.009.149-.014.065-.006.129-.015.194-.018.053-.003.105-.002.158-.003.062-.001.123-.004.185-.003.052.001.105.006.158.009.062.003.123.005.185.011.056.005.112.015.168.022.058.008.116.013.174.023.056.009.111.022.167.033.058.012.117.022.175.035.053.012.106.028.16.043.059.016.118.03.176.047l.003.001.006.002c.01.003.019.008.029.012 1.422.441 2.171 1.442 2.214 2.94.003.101.003.201.003.306l-.002.331c.993.445 1.916.991 2.631 1.783a110.244 110.244 0 0 1 3.672 4.294c.383.471.639 1.057.89 1.619.426.952.603 1.979.613 3.009.013 1.21-.433 2.305-1.251 3.188-.766.827-1.615 1.579-2.441 2.348-.748.696-1.516 1.371-2.089 1.888-.113 1.177-.15 2.151-.301 3.089 1.934.431 3.425 1.113 4.399 2.24 5.11-3.108 8.531-8.717 8.531-15.136 0-3.362-.937-6.506-2.564-9.184-3.114-5.084-8.719-8.476-15.117-8.476-9.785 0-17.716 7.932-17.716 17.716 0 2.986.742 5.798 2.047 8.266.057.106.112.212.171.317.067.122.138.241.208.361.122.206.246.411.376.612l.065.102a17.882 17.882 0 0 0 3.708 4.077z" fill="#91C1ED" data-color="4"/><path d="M49.769 183.508a6.86 6.86 0 0 1-1.368 1.451c-.052.041-.109.081-.164.121-.775.573-1.81 1.069-3.114 1.117 0 0-.149-.184-.42-.45-.54-.531-1.574-1.388-2.91-1.788a5.102 5.102 0 0 0-.654-.15c-.461-.074-.677-.627-.364-.973a.065.065 0 0 1 .008-.009c.027-.03.051-.061.076-.092-3.648.051-5.395.999-6.023 1.45a17.638 17.638 0 0 0 10.521 3.463c3.085 0 5.986-.79 8.512-2.177-.853-.96-2.17-1.562-4.1-1.963z" fill="#FFD7EF" data-color="5"/><path d="M40.989 175.85c-.547.111-.818.233-.917.499-.011.019-.016.04-.024.06l-.008.026a.56.56 0 0 0-.008.326c.031.115.096.243.184.379.02.031.033.059.056.092.069-.158.131-.294.195-.436.085-.145.166-.294.242-.447l.333-.492c-.025.005-.044.012-.069.018.007-.008.011-.017.016-.025zM41.73 171.036c.024-.033.042-.064.069-.097.039-.049.064-.105.102-.156-.045.064-.084.13-.133.192-.017.021-.022.041-.038.061zM41.408 172.693l-.003-.012v-.002l.003.014zM41.323 172.179c0-.021-.011-.043-.01-.064-.001.022.009.043.01.064z" data-color="2"/><path d="M45.356 151.821c-9.987 0-18.112 8.125-18.112 18.112s8.125 18.112 18.112 18.112 18.112-8.125 18.112-18.112-8.125-18.112-18.112-18.112zm-10.14 32.125c.837-.483 2.554-1.167 5.642-1.21-.025.031-.049.062-.076.092l-.008.009c-.313.346-.097.899.364.973.225.036.443.087.655.15 1.335.399 2.369 1.256 2.91 1.788.27.266.419.449.419.449 1.305-.047 2.34-.544 3.115-1.116.054-.041.111-.08.164-.121a6.86 6.86 0 0 0 1.368-1.451c1.722.358 2.954.877 3.805 1.668a17.218 17.218 0 0 1-8.217 2.078 17.21 17.21 0 0 1-10.141-3.309zm8.05-4.321c-.02-.157-.063-.312-.133-.464s-.167-.302-.291-.448c-.086-.103-.162-.204-.225-.287l-.052-.068c.033-.071.066-.138.099-.206.104-.213.203-.411.28-.612.019-.05.04-.099.055-.15a.945.945 0 0 0-.027-.594c-.008-.02-.023-.038-.037-.057a.621.621 0 0 0-.335-.222c-.036-.009-.083.01-.131.039a.688.688 0 0 0-.184.161c-.078.104-.098.253-.137.384-.181.598-.612.973-1.122 1.041-.073.01-.147.013-.223.01-.006 0-.012.002-.019.001a1.49 1.49 0 0 1-.624-.182c-.387-.207-.747-.459-1.022-.798a2.26 2.26 0 0 1-.245-.37c-.135-.255-.168-.478-.101-.655.067-.177.236-.309.506-.382.215-.058.435-.108.655-.15.285-.055.572-.095.858-.113.143-.009.291.045.439.109.106.046.211.096.315.135.174.065.345.148.517.222.172.074.346.138.525.165.191.029.349.001.465-.072a.466.466 0 0 0 .21-.341.712.712 0 0 0 .004-.161c0-.01-.004-.022-.005-.032-.006-.048-.012-.096-.026-.148a8.097 8.097 0 0 0-.362-1.013c-.046-.111-.094-.221-.141-.331a9.742 9.742 0 0 0-.263-.557c-.093-.184-.188-.367-.277-.552l-.096-.2-.239-.501-.157-.329c.284-.293.53-.597.733-.915.305-.477.515-.983.615-1.527a4.42 4.42 0 0 0-.042-1.746l.368-.273.366-.273.475-.358c.681-.521 1.343-1.06 1.938-1.659a9.336 9.336 0 0 0 1.271-1.57c.208-.326.397-.669.559-1.037.479.141.9.331 1.289.556.194.113.38.234.561.363s.356.265.528.406c.224.183.434.379.645.573a17.372 17.372 0 0 1 2.63 3.093c1.03 1.553 1.492 3.294 1.713 5.121.01.084.016.166.016.247l-.001.015c-.003.557-.24 1.032-.599 1.434-.188.21-.387.409-.589.605-.246.238-.499.471-.753.701l-.283.257-.261.237-.274.248c-1.015.916-2.04 1.821-3.041 2.751-.851.791-1.231 1.878-1.677 2.911a.942.942 0 0 0-.059.339c-.004.113-.005.245-.009.396-.002.07-.003.137-.008.216a2.927 2.927 0 0 0 .493-.549c.36-.523.554-1.081 1.134-1.381-.094.504-.16 1.016-.263 1.517-.026.129-.059.257-.091.384-.017.068-.031.137-.05.204-.018.062-.043.12-.064.18-.604 1.649-2.661 2.503-4.255 1.743-.149-.071-.314-.169-.406-.301-.598-.865-1.452-1.32-2.546-1.554l.234-.5.182-.389c.058-.122.117-.242.176-.361l.013-.025c.068-.134.139-.267.208-.4.149-.283.299-.565.443-.85.089-.177.154-.353.194-.526.02-.086.033-.172.04-.258a1.764 1.764 0 0 0-.007-.317zm-4.835-4.334c-.616-.561-1.218-1.119-1.765-1.72l-.014-.013a.027.027 0 0 0-.007-.008l-.016-.018a10.677 10.677 0 0 1-.822-1.014c-.042-.058-.081-.118-.121-.177a9.09 9.09 0 0 1-.343-.544c-.05-.086-.103-.169-.15-.257l-.001-.002-.01-.017c-.038-.067-.084-.127-.119-.197-.011-.022-.017-.044-.025-.066-.005-.013-.009-.028-.016-.041-.03-.063-.064-.122-.098-.181a1.042 1.042 0 0 1-.071-.137 4.637 4.637 0 0 1-.328-1.279 4.385 4.385 0 0 1-.024-.428 4.702 4.702 0 0 1 .318-1.709c.176-.467.371-.924.585-1.37.126-.262.257-.521.399-.773a10.53 10.53 0 0 1 1.373-1.925 31.801 31.801 0 0 1 1.695-1.731l.22-.207a14.127 14.127 0 0 1 1.159-.963l.001-.001c.237-.179.474-.359.726-.521l.035-.025.003-.002c.136-.087.276-.163.415-.244.133-.078.265-.161.4-.235l.015-.009c.099-.053.186-.12.287-.17.553-.277 1.122-.49 1.716-.594.104-.019.208-.041.314-.051.093-.01.186-.017.276-.02h.032c.135-.003.267-.014.403-.004h.017c.078.007.145.021.218.031.466.064.847.186 1.158.355.033.017.062.037.093.054.041.024.084.047.123.072l.014.008c.035.024.067.051.1.076.116.09.222.186.309.298l.009.01.002.001a.014.014 0 0 0 .003.004l.012.017c.054.07.103.144.145.221.128.23.205.488.232.766.028.279.008.579-.059.896a3.82 3.82 0 0 1-.083.322l-.004.012c-.016.067-.04.132-.06.198-.071.24-.158.477-.285.71a9.1 9.1 0 0 1-1.016 1.49c-.242.291-.502.566-.77.835-.155.156-.312.308-.47.46l-.003.003-.001.001-.064.062c-.392.361-.787.719-1.182 1.078l-.022.02-.178.162-.059.054c-.265.242-.444.496-.52.793a1.225 1.225 0 0 0-.035.449v.001c.031.13.044.256.054.381v.008l.007.108.006.114c.002.064.018.13.016.193-.015.542-.182 1.046-.447 1.514.036-.062.086-.118.118-.182-.032.064-.082.12-.118.182a4.073 4.073 0 0 1-.236.362c-.038.052-.064.109-.104.159-.027.033-.045.066-.069.099v-.001c-.05.067-.102.135-.142.201-.045.073-.078.146-.112.218a1.706 1.706 0 0 0-.071 1.226c.001.004.001.008.003.011a2.758 2.758 0 0 0 .001.001c.058.174.135.351.247.534.211.346.398.707.58 1.07v.001c.114.227.228.455.344.681.022.044.044.09.068.135l-.052.05-.128.124c-.378-.217-.761-.427-1.134-.653-.1-.06-.196-.096-.292-.132l-.003-.002a1.343 1.343 0 0 0-.297-.069c-.063-.007-.126 0-.188.004-.034.002-.068-.003-.103.002l-.035.004-.011.003a1.11 1.11 0 0 0-.242.081l-.002.001a1.51 1.51 0 0 0-.199.109c-.046.029-.091.05-.138.084-.371.275-.832.427-1.293.654h-.001l-.001.001-.002.001.001-.001-.091-.082zm15.814 9.481c-.973-.975-2.357-1.602-4.139-1.999.151-.938.188-1.912.301-3.089.573-.517 1.34-1.192 2.088-1.888.827-.77 1.675-1.521 2.442-2.348.817-.883 1.264-1.979 1.251-3.188-.01-1.03-.187-2.057-.613-3.009-.251-.562-.507-1.148-.89-1.618a109.656 109.656 0 0 0-3.673-4.294c-.714-.792-1.637-1.338-2.63-1.783l.001-.332c0-.105 0-.205-.002-.305a3.178 3.178 0 0 0-2.214-2.941l-.029-.011-.005-.002c-.06-.018-.12-.032-.179-.048-.054-.014-.107-.03-.16-.043-.058-.014-.117-.024-.175-.035-.056-.011-.111-.024-.166-.033-.058-.01-.117-.015-.175-.023-.056-.008-.111-.017-.167-.022-.062-.006-.124-.008-.186-.011-.052-.003-.105-.008-.158-.009-.062-.001-.124.002-.185.003-.053.001-.105 0-.158.002-.065.004-.129.012-.194.018-.049.005-.1.007-.149.014-.073.01-.145.025-.217.038-.042.008-.083.013-.125.022a4.172 4.172 0 0 0-.341.089c-.489.149-.987.315-1.425.572-3.467 2.04-6.129 4.81-7.611 8.615-.626 1.606-.312 5.111.531 6.618.46.822 1.071 1.506 1.761 2.131.379.344.651.716.823 1.248.396 1.223 1.439 1.888 2.619 2.04 1.005.13 1.603.633 2.185 1.381-.247.489-.513.965-.82 1.417-3.973-.047-6.03.894-6.927 1.486-3.956-3.177-6.498-8.045-6.498-13.502 0-9.551 7.771-17.321 17.321-17.321s17.321 7.771 17.321 17.321c-.001 6.299-3.392 11.807-8.433 14.839z" data-color="2"/><path d="M48.005 171.144c-.188.088-.501.109-.666.008a17.493 17.493 0 0 1-1.928-1.329c-.24-.195-.336-.569-.431-.74.034-.506.333-.767.711-.773.973-.014 2.357 1.134 2.529 2.106.048.276.07.594-.215.728zM50.209 166.521c-.806-.33-1.408-.936-1.957-1.588a.56.56 0 0 1 .008-.755.808.808 0 0 1 .521-.239c.777-.008 1.995 1.009 2.177 1.779.016.066.028.133.042.2.028.481-.344.785-.791.603zM51.619 168.829c.129.018.239.176.314.236.025.413-.25.759-.587.755-.128-.001-.33-.14-.366-.256-.094-.307.319-.779.639-.735zM53.734 171.723c-.382.91-.986 1.647-1.879 2.094-.174.087-.428.012-.843.012.21-.375.271-.535.375-.659.459-.552.931-1.094 1.398-1.639.089-.104.162-.256.275-.297.174-.063.433-.128.548-.044.115.086.186.389.126.533z" data-color="2"/><path d="m46.935 159.568-.001-.001-.012-.017-.004-.004-.001-.001-.01-.01a1.855 1.855 0 0 0-.308-.298c-.033-.026-.065-.052-.1-.076l-.014-.008c-.039-.026-.081-.048-.123-.072-.032-.018-.061-.037-.093-.054a1.914 1.914 0 0 0-.247-.107 4.299 4.299 0 0 0-1.549-.276h-.032c-.092.003-.184.01-.277.019-.106.011-.21.033-.314.051-.719.142-1.375.422-2.002.765l-.015.009c-.293.159-.578.326-.853.507-.239.157-.468.326-.695.498l-.032.023-.001.001c-.161.122-.322.243-.477.371a16.71 16.71 0 0 0-.682.592c-.074.068-.147.138-.22.207a35.561 35.561 0 0 0-1.654 1.707c-1.085 1.182-1.932 2.44-2.419 3.947-1.433 4.429 1.43 7.292 1.438 7.302.55.605 1.687 1.937 1.687 1.936.332-.94 1.025-1.309 1.431-1.528.406-.219 1.447-.277 1.546-.242.001 0 .267.041.367.102.239.145 1.226.785 1.46.601.131-.103-.174-.72-.493-1.21h-.001v-.001a14.508 14.508 0 0 0-.581-1.07c-.487-.796-.496-1.483.112-2.252.485-.613.797-1.307.818-2.07 0-.063-.011-.128-.017-.193l-.006-.114a3.605 3.605 0 0 0-.007-.107l-.001-.008c-.003-.044-.005-.087-.015-.132a1.656 1.656 0 0 1-.038-.249v-.001l-.002-.012c-.111-.458.08-.797.404-1.091l.152-.138c.015-.014.024-.028.039-.04l.197-.176c.432-.377.855-.764 1.269-1.161.162-.151.318-.308.474-.464.102-.103.205-.207.3-.316.628-.714 1.257-1.49 1.629-2.35.055-.126.098-.248.138-.37l.063-.198.004-.012c.089-.371.124-.753.104-1.154-.02-.425-.134-.774-.336-1.055zM181.539 140.668c-.736.514-1.553.891-2.44 1.027-.661.101-1.165.258-1.186 1.048-.004.14-.118.28-.188.416-1.092 2.149-3.708 3.576-6.107 3.314-.679-.074-1.314-.304-1.857-.735-.753-.598-.975-1.406-.635-2.299.096-.252.219-.495.331-.745-.095-.034-.149-.067-.206-.073-2.238-.22-4.292-.969-6.201-2.142-1.839-1.13-3.482-2.511-5.024-4.01a98.49 98.49 0 0 1-1.615-1.617c1.471 8.135 8.583 14.306 17.142 14.306 7.85 0 14.486-5.192 16.666-12.328-1.407.39-2.786.876-4.146 1.424-1.594.646-3.118 1.426-4.534 2.414z" fill="#FFBF23" data-color="6"/><path d="M176.859 136.967a.605.605 0 0 0-.023-.117c-.011-.039-.024-.077-.033-.116-.039.017-.082.029-.123.044a.276.276 0 0 0-.106.061c-.907.935-2.021 1.357-3.309 1.327a11.435 11.435 0 0 1-1.369-.125c-.312-.045-.59-.072-.874.123-.306.21-.646.169-.956-.021-.412-.253-.436-.779-.057-1.077.364-.286.817-.299 1.178.005.184.155.306.383.595.374.764-.023 1.537.028 2.289-.078.663-.094 1.264-.428 1.75-.968-.165-.131-.307-.246-.45-.357-.649-.501-.97-1.159-.988-1.982-.015-.687.062-1.351.411-1.953a1.54 1.54 0 0 0 .2-.879 22.736 22.736 0 0 1-.024-1.011c-.001-.215-.085-.313-.307-.367-1.188-.292-2.38-.575-3.555-.917-1.213-.354-2.351-.879-3.328-1.71-.25-.213-.304-.209-.504.068-1.245 1.722-2.329 3.535-2.952 5.581a12.81 12.81 0 0 0-.435 2.156 3.705 3.705 0 0 0 .594 2.54c.605.927 1.379 1.643 2.438 2.004.52.177 1.057.307 1.586.456.382.108.781.176 1.145.327 1.105.459 1.758 1.691 1.487 2.76-.019.076-.11.188-.166.187-.102-.001-.241-.047-.298-.124-.297-.4-.305-.413-.573-.09-.156.188-.31.384-.423.598-.277.528-.203 1.012.236 1.418.198.183.44.339.688.443.721.304 1.459.399 2.242.197 1.672-.432 3.053-1.256 3.928-2.79.148-.259.275-.564.295-.856.047-.671.054-1.348.021-2.02-.051-1.037-.149-2.074-.23-3.111zm-10.865-6.011c.24-.761.622-1.45 1.116-2.073.204-.257.524-.202.647.116.071.184.126.432.061.601a4.96 4.96 0 0 1-1.145 1.733c-.08.079-.211.105-.367.179-.104-.096-.225-.179-.302-.291-.042-.063-.036-.183-.01-.265zm3.033 5.306c-.464.516-1.255.656-1.949.355-.496-.216-.853-.586-1.151-1.026-.22-.323-.403-.636 0-.955.025-.547.411-.51.699-.493l1.735.182c.429.045.782.228.923.649.155.463.081.913-.257 1.288zm.397-3.128c-.183-.174-.144-.392-.072-.598.282-.799.83-1.416 1.414-2.001.117-.118.323-.147.419-.189.49-.006.771.304.707.715-.023.147-.062.316-.154.423-.454.532-.926 1.049-1.398 1.566a.634.634 0 0 1-.233.141c-.234.092-.476.141-.683-.057z" fill="#FFF" data-color="3"/><path d="M165.926 127.556c.059.014.166-.053.21-.114.199-.272.364-.57.579-.828.18-.215.219-.406.113-.668a7.014 7.014 0 0 1-.302-.962c-.082-.334.032-.612.224-.612.281.001.327.248.403.437.533 1.329 1.507 2.208 2.798 2.767.337.146.672.306 1.024.405 1.353.383 2.678.874 4.086 1.043.384.046.471.159.476.538.006.398-.012.796-.006 1.194.003.21.123.285.29.169.682-.472 1.436-.647 2.257-.641.561.004.574-.034.728-.613.34-1.278.501-2.583.579-4.007-.01-.201-.004-.51-.045-.812-.102-.762-.232-1.528-.687-2.168a20.763 20.763 0 0 0-1.428-1.797 5.435 5.435 0 0 0-2.532-1.598c-1.321-.399-2.653-.401-4-.172-1.569.267-2.776 1.08-3.657 2.395-.051.076-.108.149-.158.226-1.12 1.726-1.492 3.599-1.091 5.62.016.076.079.183.139.198z" fill="#FE393C" data-color="7"/><path d="M184.528 126.675c-.506-1.392-1.333-2.547-2.602-3.351-.446-.283-.92-.486-1.454-.531-.285-.024-.37.039-.306.278.271 1.021.284 2.055.219 3.102-.086 1.378-.131 2.757-.58 4.083-.078.23-.01.413.209.545.632.381.904.99.991 1.684.26 2.085-.626 3.752-2.874 4.202-.12.024-.243.032-.364.057-.369.075-.385.117-.325.497.143.907.315 1.812.399 2.725.098 1.062.057 1.048 1.129.763 1.78-.474 3.139-1.49 4.058-3.086 1.311-2.275 2.001-4.728 2.091-7.176-.019-1.412-.167-2.627-.591-3.792z" fill="#FE393C" data-color="7"/><path d="m168.361 134.326-1.735-.182c-.288-.017-.674-.054-.699.493-.402.319-.219.632 0 .955.299.44.655.81 1.151 1.026.693.301 1.484.162 1.949-.355.338-.376.412-.825.256-1.288-.141-.421-.494-.604-.922-.649zm.042 1.456c-.302.201-.633.273-.954.081a4.808 4.808 0 0 1-.717-.558c-.081-.073-.106-.208-.156-.315l.279-.087c.544.064.973.099 1.394.173.13.023.297.129.348.241.08.18-.027.355-.194.465zM170.108 133.191a.62.62 0 0 0 .233-.141c.472-.517.944-1.034 1.398-1.566.092-.108.131-.276.154-.423.064-.411-.217-.721-.707-.715-.096.041-.302.071-.419.189-.584.585-1.132 1.202-1.414 2.001-.072.205-.111.424.072.598.206.198.448.149.683.057zM166.306 131.512c.155-.073.287-.1.367-.179a4.974 4.974 0 0 0 1.145-1.733c.066-.169.011-.417-.061-.601-.123-.318-.443-.373-.647-.116a6.446 6.446 0 0 0-1.116 2.073c-.026.081-.032.202.011.265.076.113.197.195.301.291z" data-color="2"/><path d="M168.249 135.076c-.421-.074-.85-.109-1.394-.173l-.279.087c.05.107.075.243.156.315.225.202.459.404.717.558.321.192.652.119.954-.081.167-.111.274-.286.194-.465-.051-.112-.218-.218-.348-.241z" fill="#FFF" data-color="3"/><path d="M156.271 133.92c.424.436.848.873 1.274 1.307a36.032 36.032 0 0 0 1.695 1.623c.583.521 1.186 1.02 1.813 1.49.124.093.249.183.375.274.56.405 1.133.787 1.726 1.135.363.212.733.412 1.111.597a14.905 14.905 0 0 0 1.162.506c1.408.54 2.848.962 4.371.995.091.002.243.057.314-.013.023-.023.038-.061.038-.119 0-.059-.035-.126-.085-.188a.728.728 0 0 0-.172-.155 1.856 1.856 0 0 0-.359-.164 2.506 2.506 0 0 0-.233-.073 9.052 9.052 0 0 0-.54-.109c-.181-.032-.363-.062-.543-.096a10.932 10.932 0 0 1-.768-.17 8.034 8.034 0 0 1-.375-.108 6.089 6.089 0 0 1-1.074-.448 4.914 4.914 0 0 1-.66-.427 6.686 6.686 0 0 1-.325-.266 5.82 5.82 0 0 1-.811-.86 4.97 4.97 0 0 1-1.009-2.737 6.818 6.818 0 0 1 .033-1.183 7.69 7.69 0 0 1 .058-.412c.074-.436.167-.864.278-1.287a16.128 16.128 0 0 1 1.466-3.632c.102-.185.202-.367.267-.552.043-.123.069-.246.068-.372a.945.945 0 0 0-.223-.589.505.505 0 0 1-.085-.204c-.017-.077-.028-.158-.044-.233a8.404 8.404 0 0 1-.191-1.628c-.026-1.598.434-3.105 1.325-4.538.271-.436.57-.83.897-1.18.327-.35.684-.657 1.07-.92.772-.524 1.664-.87 2.685-1.025a11.912 11.912 0 0 1 1.832-.127c.33.004.653.023.969.059.316.036.625.09.926.162.301.072.594.163.88.273a6.246 6.246 0 0 1 1.975 1.227c.361.329.7.712 1.016 1.152.337.47.778.825 1.337.954a2.276 2.276 0 0 0 .6.049 3.094 3.094 0 0 1 1.176.176c.155.055.306.122.454.197.175.088.347.189.514.3l.09.058c.055.038.106.08.16.119 1.194.866 2.035 2.009 2.562 3.388a10.625 10.625 0 0 1 .584 2.244c.107.719.144 1.448.116 2.182a16.514 16.514 0 0 1-.616 3.878 17.264 17.264 0 0 1-1.294 3.263l-.002.006c-.088.173-.139.365-.203.551l-.003.01c.114-.023.233-.037.345-.065l.026-.006a.787.787 0 0 0 .118-.042l.003-.001c.809-.373 1.635-.7 2.472-.998.418-.149.839-.291 1.262-.427.423-.137.847-.269 1.273-.398.318-.096.637-.187.957-.272l.117-.029c.351-1.378.538-2.822.538-4.31 0-9.624-7.802-17.426-17.426-17.426s-17.426 7.802-17.426 17.426c-.002.743.049 1.472.139 2.188z" fill="#FFD7EF" data-color="5"/><path d="M173.555 113.622c-9.986 0-18.111 8.125-18.111 18.112s8.125 18.112 18.111 18.112c9.987 0 18.112-8.125 18.112-18.112s-8.125-18.112-18.112-18.112zm0 .791c9.551 0 17.321 7.771 17.321 17.321 0 1.503-.212 2.954-.574 4.345-.312.083-.623.172-.934.266-.426.129-.851.261-1.273.398-.423.137-.844.278-1.262.427-.836.298-1.663.625-2.472.998l-.003.001a.828.828 0 0 1-.144.048c-.112.028-.23.042-.345.065l-.007.021-.035.011a1.835 1.835 0 0 1-.037.057c.002-.017-.002-.042.007-.048.008-.005.02-.007.03-.009l.018-.028.025-.005.003-.01c.064-.185.115-.378.203-.551l.002-.006a17.3 17.3 0 0 0 1.293-3.263c.355-1.255.565-2.547.616-3.878a11.762 11.762 0 0 0-.116-2.182c-.037-.25-.084-.498-.139-.745a10.367 10.367 0 0 0-.446-1.499c-.527-1.379-1.368-2.523-2.562-3.388-.054-.039-.104-.081-.16-.119l-.089-.058a5.13 5.13 0 0 0-.514-.3 3.707 3.707 0 0 0-.454-.197 3.08 3.08 0 0 0-1.176-.176 2.276 2.276 0 0 1-.6-.049c-.559-.129-1-.484-1.337-.954a7.408 7.408 0 0 0-1.016-1.153 6.264 6.264 0 0 0-1.975-1.227 6.78 6.78 0 0 0-.879-.273 7.955 7.955 0 0 0-.926-.162 9.303 9.303 0 0 0-.969-.059 11.898 11.898 0 0 0-1.832.127c-1.021.155-1.913.5-2.685 1.025a6.323 6.323 0 0 0-1.07.92 7.58 7.58 0 0 0-.897 1.18c-.891 1.432-1.352 2.94-1.325 4.538.009.533.072 1.075.191 1.628.016.074.026.156.044.233s.042.148.085.204c.16.205.222.4.223.589 0 .126-.025.25-.068.372-.064.184-.165.366-.267.552a16.124 16.124 0 0 0-1.465 3.632c-.111.422-.204.851-.278 1.287a7.043 7.043 0 0 0-.105 1.21c0 .13.005.258.013.385a4.964 4.964 0 0 0 1.009 2.737c.23.302.5.589.811.861.104.09.212.179.325.266.211.162.432.303.66.427.342.185.702.331 1.074.448.124.039.249.075.375.108.252.066.509.122.768.17.181.033.362.063.543.095.181.032.361.067.54.109.079.019.156.045.233.073.125.044.248.096.359.164a.71.71 0 0 1 .172.155c.05.062.085.13.085.188 0 .058-.015.095-.038.119-.07.07-.223.015-.314.013-1.524-.033-2.963-.454-4.372-.995a13.675 13.675 0 0 1-1.162-.507 16.454 16.454 0 0 1-1.111-.597 21.108 21.108 0 0 1-1.726-1.135c-.125-.091-.251-.181-.375-.274-.627-.47-1.23-.969-1.813-1.49a35.528 35.528 0 0 1-1.694-1.623c-.38-.387-.757-.776-1.135-1.165a17.204 17.204 0 0 1-.175-2.329c.003-9.549 7.772-17.319 17.323-17.319zm-3.904 25.942c-.364-.151-.763-.219-1.145-.327-.53-.15-1.066-.279-1.586-.456-1.059-.361-1.833-1.077-2.438-2.004a3.709 3.709 0 0 1-.594-2.541c.089-.726.222-1.457.435-2.156.624-2.045 1.708-3.859 2.952-5.581.201-.277.254-.281.504-.068.977.831 2.114 1.357 3.328 1.71 1.175.342 2.367.625 3.555.917.222.054.306.152.307.367.001.337.008.674.024 1.011.015.314-.037.6-.2.879-.35.602-.426 1.266-.411 1.953.018.823.339 1.481.988 1.982.144.111.285.226.45.357-.486.54-1.086.874-1.75.968-.751.106-1.525.055-2.289.078-.289.009-.411-.219-.595-.374-.361-.304-.814-.292-1.178-.005-.378.298-.355.825.057 1.077.31.19.65.231.956.021.284-.195.563-.169.875-.123.453.066.912.114 1.369.125 1.288.031 2.402-.392 3.309-1.327a.276.276 0 0 1 .106-.061c.041-.015.084-.027.123-.044.01.039.022.077.034.116a.59.59 0 0 1 .023.117c.082 1.038.18 2.074.231 3.114.034.672.027 1.349-.021 2.02-.021.292-.147.596-.295.856-.875 1.534-2.256 2.358-3.928 2.79-.784.202-1.521.107-2.243-.197a2.426 2.426 0 0 1-.688-.443c-.439-.406-.514-.89-.236-1.418.113-.214.268-.41.423-.598.268-.323.275-.311.573.09.057.077.196.122.298.124.056.001.147-.112.167-.188.268-1.07-.385-2.301-1.49-2.761zm6.17-9.429c-.167.116-.287.041-.29-.169-.005-.398.012-.796.006-1.194-.006-.379-.092-.492-.477-.538-1.408-.169-2.733-.66-4.086-1.043-.351-.099-.687-.259-1.023-.405-1.291-.559-2.266-1.438-2.798-2.767-.076-.189-.123-.436-.403-.437-.192-.001-.306.277-.224.612.08.326.176.651.302.962.106.262.067.453-.113.668-.215.257-.379.556-.578.828-.045.062-.151.129-.21.115-.06-.015-.124-.121-.139-.197-.401-2.021-.029-3.893 1.091-5.62.05-.077.107-.15.158-.226.88-1.314 2.088-2.127 3.657-2.395 1.347-.229 2.679-.228 4 .172.995.301 1.846.83 2.532 1.598.509.57.985 1.175 1.428 1.797.456.64.585 1.407.688 2.168.041.302.035.611.045.812-.078 1.423-.238 2.728-.579 4.007-.154.579-.167.617-.729.613-.821-.008-1.576.166-2.258.639zm1.947 5.817c.12-.024.243-.033.363-.057 2.248-.449 3.134-2.116 2.874-4.202-.086-.693-.359-1.302-.991-1.684-.219-.132-.287-.315-.208-.545.448-1.325.494-2.705.58-4.083.065-1.048.052-2.081-.219-3.102-.063-.24.021-.302.306-.278.533.045 1.008.248 1.453.531 1.27.805 2.096 1.959 2.603 3.352.423 1.165.571 2.38.591 3.79-.089 2.448-.78 4.901-2.091 7.176-.919 1.596-2.278 2.612-4.058 3.086-1.071.285-1.031.299-1.129-.762-.084-.913-.256-1.818-.399-2.725-.06-.38-.044-.422.325-.497zm-4.213 12.312c-8.436 0-15.473-6.066-17.002-14.063.488.497.977.993 1.476 1.479 1.542 1.499 3.185 2.879 5.024 4.01 1.908 1.173 3.963 1.922 6.201 2.142.057.006.11.038.206.073-.112.25-.235.492-.331.745-.341.893-.118 1.701.634 2.299.543.431 1.178.661 1.857.735 2.398.261 5.014-1.166 6.106-3.314.069-.137.184-.276.188-.416.021-.79.525-.948 1.186-1.048.887-.135 1.703-.513 2.439-1.026 1.416-.988 2.94-1.768 4.537-2.412a39.152 39.152 0 0 1 4.023-1.386c-2.194 7.048-8.781 12.182-16.544 12.182z" data-color="2"/><path d="M36.963 105.8c-.336.272-.679.539-1.035.791-1.257.889-2.567 1.715-4.087 2.071-.389.091-.783.159-1.177.228a39.23 39.23 0 0 1-1.989.296c-.101.012-.205.022-.309.032-.453.044-.914.055-1.35-.02-.051-.009-.104-.012-.154-.023-.064-.014-.125-.021-.188-.034a6.25 6.25 0 0 0-.988-.124c-.092-.004-.182-.017-.276-.017a7.122 7.122 0 0 1-.812-.051c-.241-.026-.489-.057-.762-.081.109.18.207.337.297.483.09.146.171.282.249.42.214.381.36.78.427 1.203.004.03.012.059.016.089.019.146.029.295.027.447a2.07 2.07 0 0 1-.213.933c-.14.274-.352.509-.642.704-.753.509-1.575.875-2.484.923a4.438 4.438 0 0 1-1.614-.215 5.232 5.232 0 0 1-1.052-.479 6.154 6.154 0 0 1-.773-.557 1.19 1.19 0 0 0-.661-.669 2.334 2.334 0 0 0-.36-.118c-.044-.011-.089-.023-.134-.033-.138-.031-.277-.058-.415-.088-.698-.152-1.399-.292-2.097-.443a1.322 1.322 0 0 0-.2-.026l-.035-.005c-.224-.007-.422.063-.64.244-.711.595-1.496 1.102-2.222 1.681a13.53 13.53 0 0 0-.821.719 17.632 17.632 0 0 0 11.047 3.871c8.456 0 15.523-5.925 17.288-13.849a22.726 22.726 0 0 1-1.861 1.697z" fill="#FFD7EF" data-color="5"/><path d="M21.538 82.518c-9.785 0-17.716 7.932-17.716 17.716 0 5.332 2.358 10.109 6.084 13.357.042-.098.082-.197.115-.306.28-.046.434-.305.644-.462.482-.361.936-.715.94-1.445.002-.377-.013-.598-.371-.748-.604-.253-.993-.681-1.04-1.367-.007-.103-.061-.204-.098-.304l-.125-.328a4.278 4.278 0 0 0-.071-.261c-.391-1.272-.782-3.815-.929-5.087-.271-4.485 1.046-8.015 1.997-10.05.252-.54.48-.98.644-1.298.217-.421.449-.767.695-1.074.639-.796 1.394-1.312 2.377-2.05l.01-.007a4.98 4.98 0 0 1 .667-.407c1.329-.694 3.48-1.325 4.656-1.579.308-.067.552-.108.693-.117.205-.013.491-.018.802-.019a69.64 69.64 0 0 1 1.94.031c1.869.207 3.625.713 5.259 1.695 1.637.984 2.779 2.302 3.39 4.122.554 1.651.732 3.351.801 5.067.103 2.587.48 5.12 1.27 7.594.411 1.288.344 1.217 1.396.439 1.316-.973 2.484-2.091 3.558-3.298.082-.688.128-1.387.128-2.098 0-9.784-7.932-17.716-17.716-17.716z" fill="#0E8F6B" data-color="8"/><path d="M27.517 107.021c.771-1.012 1.2-2.18 1.53-3.392a.513.513 0 0 0 .016-.107v-.001c.01-.139-.047-.253-.239-.282 0 0-.058-.007-.128-.018l-.054-.01a.868.868 0 0 1-.133-.032c-.285-.102-.513-.265-.517-.604-.004-.332.191-.525.483-.631.167-.06.341-.109.515-.145.281-.057.445-.206.449-.503v-.002c.009-.74.016-1.479.023-2.219.003-.295.008-.591.009-.886a.386.386 0 0 0-.031-.158c-.061-.144-.212-.184-.395-.158l-.013.001c-.033.005-.064.013-.097.019-.178.033-.354.076-.533.106-.652.113-1.303.224-1.955.335l-1.21.207c-.183.031-.39.035-.575.065-.133.021-.256.054-.342.129-.013.012-.019.032-.031.045-.16.188-.167.549-.251.827a7.835 7.835 0 0 1-.098.307 3.04 3.04 0 0 1-.118.296c-.09.191-.207.369-.378.517-.253.22-.582.19-.77-.067-.015-.021-.035-.032-.048-.056-.027-.049-.046-.105-.068-.158a1.453 1.453 0 0 1-.119-.441c-.007-.084-.003-.17-.003-.255 0-.201.01-.402.046-.597.06-.32-.047-.475-.358-.514-.337-.042-.673-.087-1.009-.128a34.262 34.262 0 0 0-1.01-.113c-.028-.003-.065.012-.103.032-.085.045-.174.128-.179.185l-.048.507c-.033.338-.064.677-.073 1.015a6.07 6.07 0 0 0 .008.505c.116 1.942.315 3.871.653 5.779.221 1.25.501 2.491.862 3.719.118.401.221.806.325 1.211.038.148.084.294.119.443.071.296.012.506-.177.634a.77.77 0 0 1-.233.101 2.687 2.687 0 0 1-.558.082c-.06.003-.121.011-.181.01a4.262 4.262 0 0 1-.293-.018c-.268-.023-.565-.065-.979-.108.649.46 1.237.692 1.795.761.186.023.369.028.549.017.721-.044 1.405-.34 2.122-.736.496-.274.626-.739.542-1.287-.073-.476-.272-.889-.541-1.266a4.344 4.344 0 0 0-.194-.258c-.326-.392-.528-.587-.735-.582-.181.004-.372.171-.648.484-.039.045-.075.083-.118.134-.1.117-.215.193-.334.17a.266.266 0 0 1-.12-.058.481.481 0 0 1-.143-.28.182.182 0 0 1 .007-.086c.055-.137.115-.277.182-.411l.011-.025c.073-.141.158-.274.262-.385.329-.348.734-.509 1.169-.571.139-.02.281-.031.425-.033l.022-.001c.086-.001.173.001.26.005.119.005.238.015.357.024.238.018.476.041.709.084.145.027.286.042.422.047a2.346 2.346 0 0 0 1.425-.402c.249-.166.476-.383.688-.634.051-.06.103-.118.153-.183l.002-.002zm-4.953-4.526c-.206.116-.47.128-.545.146-.242.001-.313.006-.384.001-.472-.033-.731-.241-.742-.595-.01-.318.282-.663.687-.682.34-.016.703.05 1.023.168.15.055.313.323.306.487-.008.168-.184.384-.345.475zm4.014 3.199c-.425.435-.94.513-1.448.201a2.568 2.568 0 0 1-.501-.397c-.149-.153-.264-.34-.161-.577.096-.223.313-.336.784-.302.285.074.74.166 1.177.313.363.124.418.488.149.762zm1.114-6.526c.05-.26.218-.428.473-.528.412-.161.856.043.861.475.008.711-.099 1.414-.449 2.052a.864.864 0 0 1-.216.232c-.273.223-.676.107-.763-.233-.061-.238-.072-.488-.108-.752.065-.408.121-.83.202-1.246z" fill="#FFF" data-color="3"/><path d="M28.361 101.399a.85.85 0 0 0 .216-.232c.35-.639.457-1.342.449-2.052-.005-.432-.449-.636-.861-.475-.255.1-.423.269-.473.528-.081.417-.137.838-.201 1.246.036.263.047.514.108.752.086.34.489.456.762.233zM26.428 104.933c-.436-.148-.891-.239-1.177-.313-.471-.034-.688.079-.784.302-.102.237.012.424.161.577.148.152.32.286.501.397.508.313 1.024.235 1.448-.201.27-.275.215-.639-.149-.762z" data-color="2"/><path d="M22.603 101.533a2.67 2.67 0 0 0-1.023-.168c-.405.019-.697.364-.687.682.011.354.27.562.742.595.071.005.142 0 .384-.001.075-.018.339-.029.545-.146.161-.091.337-.307.345-.475.007-.164-.156-.432-.306-.487zM29.16 103.13c.044-.203.085-.422.12-.64l.001-.004.042-.272.022-.15.022-.165c-.086-.085-.376-.101-.376-.101a3.68 3.68 0 0 0-.515.145c-.293.105-.488.299-.483.631.004.34.233.503.517.604a.859.859 0 0 0 .133.032l.054.01c.043.006.086.011.128.018l.311-.017.024-.091z" fill="#FE393C" data-color="7"/><path d="M21.538 82.122c-9.987 0-18.112 8.125-18.112 18.112s8.125 18.112 18.112 18.112 18.112-8.125 18.112-18.112-8.125-18.112-18.112-18.112zM4.217 100.234c0-9.551 7.771-17.321 17.321-17.321s17.321 7.771 17.321 17.321c0 .884-.088 1.746-.216 2.595-.944 1.012-1.947 1.967-3.075 2.801-1.052.778-.985.849-1.396-.439-.79-2.474-1.168-5.006-1.271-7.594-.068-1.717-.247-3.416-.801-5.067-.61-1.82-1.752-3.138-3.389-4.122-1.633-.982-3.391-1.487-5.259-1.695 0 0-1.067-.033-1.94-.031-.506.006-1.002.061-1.496.135-1.175.254-3.327.885-4.655 1.579a2.307 2.307 0 0 1-.386.239c-.101.05-.196.112-.291.175-.984.738-1.74 1.254-2.378 2.049-.274.389-.497.814-.734 1.229-.214.378-.413.76-.605 1.143-.951 2.035-2.267 5.565-1.997 10.05.147 1.272.538 3.815.93 5.087.024.078.047.166.071.261l.125.328c.038.1.091.201.098.304.047.687.435 1.114 1.039 1.367.358.15.373.371.371.748-.004.73-.458 1.084-.94 1.445-.177.133-.319.331-.526.419-3.621-3.175-5.921-7.822-5.921-13.006zm17.348 9.64c.041.032.081.05.12.058.119.023.234-.053.334-.17.043-.051.079-.089.118-.134.276-.312.467-.48.648-.484.207-.005.409.19.735.582.069.084.132.171.194.258.269.378.467.79.541 1.266.084.548-.046 1.013-.542 1.287-.718.396-1.401.692-2.123.736-.18.011-.362.006-.549-.017-.558-.069-1.146-.301-1.795-.76.413.043.711.085.979.108.1.009.198.015.294.018.059.002.12-.006.18-.01a2.687 2.687 0 0 0 .558-.082.77.77 0 0 0 .233-.101c.189-.128.248-.338.177-.634-.035-.149-.081-.295-.119-.443a33.76 33.76 0 0 0-.325-1.211 34.666 34.666 0 0 1-.861-3.718c-.338-1.908-.536-3.838-.653-5.779a6.07 6.07 0 0 1-.008-.505c.008-.337.04-.676.073-1.014.017-.169.034-.338.048-.507.006-.058.094-.141.179-.186a.216.216 0 0 1 .103-.032c.337.031.674.071 1.011.112l1.009.128c.311.039.418.194.358.514a3.214 3.214 0 0 0-.047.597c.001.085-.003.171.004.255.011.149.059.299.118.441.023.054.041.109.068.159.013.024.033.035.048.055.188.257.517.287.77.067.171-.148.288-.325.378-.517a3.04 3.04 0 0 0 .118-.296c.035-.101.066-.204.098-.307.084-.278.092-.639.251-.827.012-.014.018-.034.031-.045.085-.075.209-.108.342-.129.185-.03.392-.034.575-.065.403-.069.806-.139 1.21-.207.652-.111 1.303-.223 1.955-.336.178-.031.355-.073.532-.106.032-.006.064-.014.097-.019l.013-.001c.182-.026.334.014.395.158a.387.387 0 0 1 .03.158c-.001.295-.006.59-.009.886-.006.74-.014 1.479-.023 2.219l-.001.006c-.006.297-.267 2.138-.318 2.324-.329 1.211-.835 2.385-1.605 3.396l-.003.004c-.049.065-.101.123-.152.183-.212.25-.439.467-.688.634a2.349 2.349 0 0 1-1.426.402 3.043 3.043 0 0 1-.422-.047 6.69 6.69 0 0 0-.709-.084c-.119-.009-.238-.019-.357-.024a4.51 4.51 0 0 0-.26-.005l-.022.001a3.307 3.307 0 0 0-.425.033c-.435.062-.84.223-1.169.571a1.676 1.676 0 0 0-.262.385l-.011.025a5.143 5.143 0 0 0-.182.411.182.182 0 0 0-.007.086c.016.099.08.226.148.279zm-.027 7.681a17.22 17.22 0 0 1-10.733-3.752c.166-.15.329-.302.506-.444.726-.579 1.51-1.086 2.222-1.681.218-.182.416-.251.64-.244l.036.005c.064.004.13.011.2.026.698.151 1.399.291 2.097.443.138.03.277.057.415.089.045.01.09.022.134.033.125.032.246.068.36.118.279.122.516.316.662.669.249.208.506.395.773.557a5.232 5.232 0 0 0 1.052.479 4.444 4.444 0 0 0 1.614.215c.909-.047 1.731-.413 2.484-.923.289-.196.501-.431.641-.705.141-.274.21-.585.213-.933a3.139 3.139 0 0 0-.027-.447c-.004-.03-.012-.059-.016-.089a3.596 3.596 0 0 0-.427-1.203 11.185 11.185 0 0 0-.249-.42l-.297-.483h.001c.272.025.521.056.761.081.28.03.548.054.812.051.094-.001.184.012.276.016.332.015.659.056.988.124.063.013.124.02.188.034.05.011.103.015.154.023.436.076.897.064 1.35.02.103-.01.207-.02.309-.032.664-.081 1.328-.18 1.989-.296.394-.069.788-.137 1.177-.228 1.52-.356 2.829-1.181 4.087-2.071.357-.252.699-.518 1.035-.79.463-.376.888-.791 1.317-1.201-1.944 7.443-8.703 12.959-16.744 12.959z" data-color="2"/><path d="M172.751 13.632c-9.256 0-16.805 7.222-17.37 16.335.021.009.037.022.058.03.723.307 1.401.722 2.115 1.053 1.49.691 2.988 1.366 4.49 2.028.289.127.617.166.864.23l3.033-5.726c-.901-.517-1.524-1.331-2.044-2.205-1.261-2.118-1.421-4.278-.084-6.444.743-1.206 1.93-1.751 3.214-2.121.488-.141.975-.019 1.421.246.671.399 1.205.937 1.497 1.659.307.755.538 1.541.818 2.362.333-.095.499-.443.737-.689 1.198-1.239 2.606-2.12 4.297-2.472 2.274-.473 4.436-.207 6.451 1.044 1.299.806 2.124 1.941 2.568 3.381.145.47.267.947.422 1.502a7.668 7.668 0 0 1 2.394-1.143c.123-.035.242-.052.363-.08-2.97-5.358-8.68-8.99-15.244-8.99z" fill="#FFBF23" data-color="6"/><path d="M169.937 45.348c.061.007 1.262.2 1.327.204.954.061 1.746-.304 2.373-.992.35-.386.66-.828.901-1.291.626-1.203 1.022-2.484 1.212-3.919-.988-.288-1.627-1.011-2.34-1.64-.58-.511-1.03-1.113-1.309-1.832-.631-1.627-1.294-3.242-1.674-4.958-.207-.933-.314-1.865-.231-2.817-1.161.244-2.32.346-3.497-.067-.434.406-.7.771-.513 1.447.088.32-.256.775-.439 1.153-.225.466-.526.852-1.126.655-.658 1.036-1.137 2.09-1.345 3.229-.277 1.519.148 2.89 1.218 3.996a5.353 5.353 0 0 0 2.539 1.457c.222.057.44.144.666.179 1.752.275 2.451 1.611 3.033 3.046.116.286.089.629.154 1.167-.092-.084-1.156-1.992-1.224-2.05.029.11-.594 1.183-.579 1.277.094.463.717 1.516.854 1.756zm-4.175-10.764c-.244.054-.525-.21-.495-.456a.383.383 0 0 1 .223-.262c.25-.077.512.132.556.473-.071.065-.163.218-.284.245zm2.882 2.58c-.401.537-1.002.68-1.757.753-.195-.068-.504-.154-.79-.289-.084-.039-.152-.23-.134-.334.018-.102.141-.216.246-.264.11-.051.255-.05.382-.037.441.046.832-.084 1.207-.303.139-.081.293-.175.445-.185.142-.01.374.045.417.14.065.145.072.401-.016.519zm.022-3.742c-.058.025-.126.029-.191.042-.27-.018-.449-.177-.413-.435.106-.767.425-1.438 1.077-1.887.328-.226.685-.025.703.346.025.555-.683 1.724-1.176 1.934z" fill="#FFF" data-color="3"/><path d="M189.257 30.854c-.107.309-.292.589-.437.885-.779 1.585-1.748 2.923-2.893 4.034a.694.694 0 0 1-.895.911c-.036-.014-.065-.038-.098-.057-1.724 1.37-3.772 2.321-6.122 2.877-.317.075-.651.085-.979.102-.252.013-.514.009-.791.006a.684.684 0 0 1-.273.11c-.086.286-.172.561-.246.834-.083.308-.173.612-.27.915a.7.7 0 0 1 .033.559.7.7 0 0 1-.376.395c-.183.461-.389.912-.64 1.345-.057.098-.114.176-.171.266a.7.7 0 0 1-.745 1.148c-.04-.015-.069-.043-.104-.064-.591.584-1.304.946-2.353 1.23-.095.071-.183.127-.273.189-.138.581-.316 1.198-.406 1.831-.002.011-.002.023-.003.034.507.044 1.017.078 1.535.078 1.211 0 2.394-.125 3.535-.36a.689.689 0 0 1 .817-.273c.028.01.046.032.071.045a17.283 17.283 0 0 0 3.435-1.299.684.684 0 0 1 .57-.29 17.49 17.49 0 0 0 4.664-3.774c.003-.009.002-.018.005-.027a.7.7 0 0 1 .373-.395c.379-.462.731-.946 1.062-1.445a.704.704 0 0 1-.407-.904.7.7 0 0 1 .903-.411.712.712 0 0 1 .219.137c.281-.506.538-1.026.768-1.562a.687.687 0 0 1-.452-.002.704.704 0 0 1 .493-1.317.695.695 0 0 1 .342.298c.197-.551.365-1.114.507-1.69a.698.698 0 0 1-.315-.035.704.704 0 0 1 .493-1.317c.033.012.056.037.087.054.09-.544.155-1.095.193-1.655a.7.7 0 0 1-.155-.732.689.689 0 0 1 .206-.279c.001-.065.01-.127.01-.192 0-.308-.031-.609-.046-.913-.033.011-.067.018-.1.029-.36.118-.635.291-.771.681zm-15.026 16.664a.7.7 0 0 1-.903.411.704.704 0 0 1 .493-1.317.704.704 0 0 1 .41.906zm4.31-1.507a.7.7 0 0 1-.903.411.704.704 0 0 1 .494-1.317.703.703 0 0 1 .409.906zm1.028-2.743a.7.7 0 0 1-.903.411.704.704 0 0 1 .493-1.317.703.703 0 0 1 .41.906zm1.029-2.744a.701.701 0 1 1-1.314-.495.7.7 0 0 1 .903-.411.704.704 0 0 1 .411.906zm2.254 3.981a.7.7 0 0 1-.903.411.704.704 0 0 1 .493-1.317.704.704 0 0 1 .41.906zm1.028-2.744a.7.7 0 1 1-1.313-.495.7.7 0 0 1 .903-.411.704.704 0 0 1 .41.906zm1.028-2.744a.7.7 0 0 1-.903.411.704.704 0 0 1 .493-1.317.705.705 0 0 1 .41.906zM170.046 46.692a.705.705 0 0 1-.41-.906c.011-.029.036-.046.05-.073-.742-.564-1.176-1.306-1.083-2.332.016-.177.134-.344.246-.616.063.066.116.114.17.163.1.099.218.221.25.293.025.056.035.119.051.179.085-.301.204-.574.31-.777a2.618 2.618 0 0 0-.586-.714 3.117 3.117 0 0 0-.502-.336.699.699 0 0 1-.752 1.138.705.705 0 0 1-.41-.906.692.692 0 0 1 .703-.444c-.025-.01-.046-.023-.072-.033-.825-.322-1.647-.668-2.42-1.097a5.501 5.501 0 0 1-1.932-1.76 4.728 4.728 0 0 1-.6-1.234.691.691 0 0 1-.806.255.705.705 0 0 1-.41-.906.7.7 0 0 1 .903-.411c.042.016.077.04.113.063-.026-.256-.043-.515-.064-.77-.031-.387-.006-.778-.006-1.23a29.12 29.12 0 0 1-2.231-.763.69.69 0 0 1-.56.035.693.693 0 0 1-.407-.43 25.85 25.85 0 0 1-2.106-1.005.696.696 0 0 1-1.181-.695c-.19-.116-.385-.219-.572-.34-.127.168-.248.279-.31.416l-.069.156c.023.735.094 1.457.205 2.167a.686.686 0 0 1 .623-.08.705.705 0 0 1 .41.906.692.692 0 0 1-.793.429c.694 2.968 2.165 5.623 4.158 7.79a.7.7 0 1 1 1.144-.256.7.7 0 0 1-1.136.265c1.586 1.721 3.493 3.141 5.659 4.113a.686.686 0 0 1 .604-.066c.22.083.362.269.419.481.803.301 1.626.557 2.48.738a.682.682 0 0 1 .384.019c.042.015.072.046.109.068.315.057.633.106.953.146.04-.421.09-.844.145-1.267.023-.178.034-.354.061-.531a.696.696 0 0 1-.732.158zm-11.199-8.105a.7.7 0 1 1-1.312-.495.7.7 0 1 1 1.312.495zm1.028-2.744a.7.7 0 0 1-.903.411.705.705 0 0 1-.41-.906.7.7 0 1 1 1.313.495zm2.255 3.981a.7.7 0 0 1-.903.411.703.703 0 0 1 .493-1.317.705.705 0 0 1 .41.906zm2.254 3.982a.7.7 0 1 1-1.313-.495.701.701 0 1 1 1.313.495zm1.028-2.744a.7.7 0 1 1-1.313-.495.7.7 0 1 1 1.313.495zm2.254 3.981a.69.69 0 0 1-.491.423.687.687 0 0 1-.413-.011.704.704 0 0 1-.409-.906c.003-.009.01-.014.014-.023a.698.698 0 0 1 .889-.388.701.701 0 0 1 .41.905z" fill="#91C1ED" data-color="4"/><path d="M189.961 31.528a.7.7 0 0 0 .155.732c.023-.335.047-.671.052-1.011a.69.69 0 0 0-.207.279zM188.933 34.272a.704.704 0 0 0 .41.906.67.67 0 0 0 .315.035c.105-.427.193-.859.266-1.298-.031-.017-.054-.042-.087-.054a.7.7 0 0 0-.904.411zM185.926 35.773c-.314.305-.651.583-.992.854.033.019.062.043.098.057a.694.694 0 0 0 .894-.911zM188.808 36.604a.703.703 0 0 0-.493 1.317.687.687 0 0 0 .452.002c.143-.333.262-.678.384-1.021a.693.693 0 0 0-.343-.298zM184.498 38.111a.704.704 0 0 0-.493 1.317.7.7 0 0 0 .903-.411.705.705 0 0 0-.41-.906zM186.877 39.759a.704.704 0 0 0 .407.904c.253-.382.492-.775.715-1.178a.712.712 0 0 0-.219-.137.702.702 0 0 0-.903.411zM156.717 32.273c.28.106.583.016.77-.197-.4-.216-.791-.456-1.181-.695a.702.702 0 0 0 .411.892zM160 33.51a.69.69 0 0 0 .56-.035 29.192 29.192 0 0 1-.967-.394c.066.19.204.353.407.429zM176.802 39.61l-.033.112a.684.684 0 0 0 .273-.11l-.24-.002zM180.187 39.618a.704.704 0 0 0-.493 1.317.704.704 0 0 0 .493-1.317zM183.47 40.855a.703.703 0 0 0-.493 1.317.704.704 0 0 0 .493-1.317zM185.849 42.503c-.003.009-.002.018-.005.027.125-.142.258-.276.378-.422a.7.7 0 0 0-.373.395zM156.183 33.7a.686.686 0 0 0-.623.08c.066.424.144.842.24 1.255a.693.693 0 0 0 .793-.429.704.704 0 0 0-.41-.906zM159.465 34.937a.704.704 0 0 0-.493 1.317.7.7 0 0 0 .903-.411.704.704 0 0 0-.41-.906zM163.012 37.116a4.945 4.945 0 0 1-.152-.878c-.036-.023-.07-.048-.112-.063a.704.704 0 0 0-.493 1.317.693.693 0 0 0 .807-.255c-.014-.043-.038-.078-.05-.121zM176.255 41.471c-.103.323-.219.64-.344.954a.696.696 0 0 0 .344-.954zM179.16 42.362a.704.704 0 0 0-.493 1.317.7.7 0 0 0 .903-.411.705.705 0 0 0-.41-.906zM182.442 43.599a.704.704 0 0 0-.493 1.317.702.702 0 0 0 .903-.411.705.705 0 0 0-.41-.906zM158.438 37.681a.704.704 0 0 0-.494 1.317.701.701 0 0 0 .904-.411.705.705 0 0 0-.41-.906zM161.72 38.918a.703.703 0 0 0-.493 1.317.7.7 0 0 0 .903-.411.704.704 0 0 0-.41-.906zM174.402 44.984c-.047.051-.102.089-.15.138.035.021.064.049.104.064a.7.7 0 0 0 .744-1.148 6.43 6.43 0 0 1-.698.946zM178.132 45.105a.703.703 0 1 0-.492 1.317.703.703 0 0 0 .492-1.317zM181.18 46.305a.687.687 0 0 0-.57.29c.19-.097.384-.187.57-.29zM160.692 41.663a.704.704 0 0 0-.493 1.317c.362.136.767-.047.903-.411s-.048-.77-.41-.906zM163.974 42.9a.704.704 0 0 0-.493 1.317.704.704 0 0 0 .493-1.317zM173.821 46.612a.703.703 0 0 0-.493 1.317.704.704 0 0 0 .493-1.317zM176.287 48.123c.302-.062.593-.151.889-.229-.025-.013-.044-.035-.072-.045a.69.69 0 0 0-.817.274zM166.229 46.881a.686.686 0 0 0-.604.066c.335.151.677.285 1.023.415a.694.694 0 0 0-.419-.481zM169.128 48.1c.163.034.328.057.492.087-.036-.022-.067-.052-.108-.068a.673.673 0 0 0-.384-.019zM165.002 40.156a.704.704 0 0 0-.493 1.317.704.704 0 0 0 .493-1.317zM168.085 41.361a.692.692 0 0 0-.703.444.704.704 0 0 0 .41.906.7.7 0 0 0 .752-1.137 4.38 4.38 0 0 0-.459-.213zM167.256 44.137a.698.698 0 0 0-.889.388c-.004.009-.011.015-.014.023a.704.704 0 0 0 .409.906c.139.052.28.045.413.011a.69.69 0 0 0 .491-.423.703.703 0 0 0-.41-.905zM169.686 45.713c-.014.027-.039.044-.05.073a.704.704 0 0 0 .41.906.694.694 0 0 0 .732-.158c.009-.062.012-.124.021-.187-.235-.113-.506-.219-.751-.365-.135-.081-.243-.179-.362-.269z" fill="#FFD7EF" data-color="5"/><path d="M169.138 31.142c-.652.449-.971 1.12-1.077 1.887-.036.259.144.417.413.435.066-.014.133-.017.192-.042.493-.211 1.201-1.379 1.174-1.934-.016-.371-.374-.572-.702-.346zM168.243 36.505c-.152.011-.306.105-.445.185-.375.219-.766.349-1.208.303-.126-.013-.271-.014-.381.037-.105.048-.228.162-.246.264-.019.105.05.295.134.334.286.135.595.221.79.289.755-.072 1.357-.216 1.757-.753.088-.119.082-.374.016-.519-.043-.095-.276-.15-.417-.14zM165.491 33.866a.385.385 0 0 0-.223.262c-.03.246.251.51.495.456.12-.027.213-.18.285-.245-.044-.341-.307-.551-.557-.473z" data-color="2"/><path d="M172.752 12.945c-9.987 0-18.112 8.125-18.112 18.112s8.125 18.112 18.112 18.112c9.987 0 18.112-8.125 18.112-18.112s-8.125-18.112-18.112-18.112zm0 .791c6.5 0 12.168 3.603 15.131 8.913-.082.016-.164.031-.249.055a7.678 7.678 0 0 0-2.394 1.143c-.155-.555-.277-1.032-.422-1.502-.443-1.441-1.269-2.575-2.568-3.381-2.015-1.25-4.177-1.517-6.451-1.044-1.691.352-3.099 1.233-4.297 2.472-.238.246-.404.594-.737.689-.28-.822-.511-1.607-.818-2.362-.292-.722-.826-1.26-1.497-1.659-.447-.266-.933-.387-1.421-.246-1.284.37-2.471.915-3.214 2.121-1.336 2.166-1.177 4.326.084 6.444.52.874 1.143 1.688 2.044 2.205l-3.033 5.726c-.248-.064-.576-.102-.864-.23-1.502-.662-3-1.337-4.49-2.028-.7-.325-1.364-.727-2.071-1.032.54-9.068 8.067-16.284 17.267-16.284zm-17.303 17.682c.065-.12.169-.226.284-.378.188.121.382.224.572.34.391.239.781.479 1.181.695.686.37 1.391.699 2.106 1.005a29.407 29.407 0 0 0 3.198 1.157c0 .451-.026.843.006 1.23.021.255.038.514.064.77.03.299.071.595.152.879.012.043.035.078.048.12.141.456.351.86.6 1.234a5.492 5.492 0 0 0 1.932 1.76c.773.429 1.595.775 2.42 1.097.026.01.047.023.072.033.067.004.387.136.459.212.18.098.349.21.502.336.233.192.424.434.586.714.04.069.089.127.124.202.167.357.371.699.585 1.03.063.098.179.195.331.323.067.058.125.105.217.189-.066-.537-.039-.881-.154-1.167-.582-1.435-1.281-2.772-3.033-3.046-.225-.035-.444-.121-.666-.179a5.34 5.34 0 0 1-2.539-1.457c-1.071-1.107-1.496-2.477-1.219-3.996.207-1.14.687-2.193 1.345-3.229.6.197.9-.189 1.125-.655.183-.377.528-.832.439-1.153-.186-.676.079-1.041.513-1.447 1.177.413 2.336.31 3.497.067-.083.952.024 1.884.231 2.817.38 1.715 1.044 3.33 1.674 4.958.279.719.728 1.321 1.309 1.832.713.629 1.352 1.352 2.34 1.64-.19 1.434-.585 2.716-1.212 3.918a6.216 6.216 0 0 1-.901 1.291c-.627.688-1.418 1.053-2.373.992-.065-.004-.108-.023-.169-.03-1.01-.112-1.493-.568-1.676-1.632-.028-.164-.056-.33-.098-.49-.016-.06-.027-.123-.051-.179-.041-.093-.126-.176-.224-.268-.061-.057-.124-.112-.196-.188-.112.272-.23.439-.246.616-.094 1.026.34 1.769 1.083 2.332.119.091.227.188.363.27.245.147.516.252.751.365-.009.063-.012.124-.021.187-.026.177-.038.354-.061.531-.05.388-.095.776-.132 1.163-8.414-1.058-14.959-8.16-15.138-16.811zm17.303 16.961c-.512 0-1.017-.033-1.518-.077.092-.608.259-1.202.392-1.762.09-.062.179-.118.273-.189 1.049-.283 1.762-.646 2.353-1.229.048-.048.103-.086.15-.137a6.43 6.43 0 0 0 .698-.946c.057-.09.114-.168.171-.266.251-.433.456-.885.639-1.345.125-.314.241-.632.344-.954.097-.303.186-.607.27-.915.074-.273.16-.547.245-.834l.033-.112.24.002c.277.003.538.007.791-.006.327-.017.662-.027.979-.102 2.35-.557 4.398-1.507 6.122-2.878.341-.271.677-.549.993-.854 1.145-1.11 2.114-2.449 2.893-4.034.145-.296.33-.577.438-.885.135-.389.409-.563.771-.68.02.293.045.585.045.883-.001 9.549-7.772 17.32-17.322 17.32z" data-color="2"/></svg>