<svg data-bbox="23.5 23.5 153 153" viewBox="23.5 23.5 153 153" height="200" width="200" xmlns="http://www.w3.org/2000/svg" data-type="color" aria-hidden="true" aria-labelledby="svgcid-uruzeoqma6qo"><defs><style></style></defs><path d="M158.026 23.5H41.974C31.771 23.5 23.5 31.771 23.5 41.974v116.052c0 10.203 8.271 18.474 18.474 18.474h116.052c10.203 0 18.474-8.271 18.474-18.474V41.974c0-10.203-8.271-18.474-18.474-18.474z" fill="#111010" data-color="1"/><path d="M152.833 75.899H57.698c-5.816 0-10.53 5.445-10.53 12.161v46.514c0 6.717 4.715 12.162 10.531 12.162h84.604c5.816 0 10.531-5.445 10.531-12.162V75.899zM145.533 55.918h-23.132c-4.031 0-7.299 3.774-7.299 8.43v5.215h37.73v-5.215c.001-4.655-3.267-8.43-7.299-8.43z" fill="#FFF" data-color="2"/></svg>