<svg data-bbox="23.5 23.5 153 153" viewBox="23.5 23.5 153 153" height="200" width="200" xmlns="http://www.w3.org/2000/svg" data-type="color" aria-hidden="true" aria-labelledby="svgcid-dluqai-i8ik0a"><defs><style></style></defs><path d="M158.026 23.5H41.974C31.771 23.5 23.5 31.771 23.5 41.974v116.052c0 10.203 8.271 18.474 18.474 18.474h116.052c10.203 0 18.474-8.271 18.474-18.474V41.974c0-10.203-8.271-18.474-18.474-18.474z" fill="#111010" data-color="1"/><path d="M124.325 67.931h-48.65a7.744 7.744 0 0 0-7.744 7.744v48.65a7.744 7.744 0 0 0 7.744 7.744h48.65a7.744 7.744 0 0 0 7.744-7.744v-48.65a7.744 7.744 0 0 0-7.744-7.744zM52.596 38.691 35.604 55.684c-1.422 1.422-.415 3.854 1.597 3.854h16.992a2.258 2.258 0 0 0 2.258-2.258V40.288c-.001-2.012-2.433-3.019-3.855-1.597zM147.404 38.691l16.992 16.992c1.422 1.422.415 3.854-1.597 3.854h-16.992a2.258 2.258 0 0 1-2.258-2.258V40.288c.001-2.012 2.433-3.019 3.855-1.597zM52.596 161.309l-16.992-16.992c-1.422-1.422-.415-3.854 1.597-3.854h16.992a2.258 2.258 0 0 1 2.258 2.258v16.992c-.001 2.011-2.433 3.018-3.855 1.596zM147.404 161.309l16.992-16.992c1.422-1.422.415-3.854-1.597-3.854h-16.992a2.258 2.258 0 0 0-2.258 2.258v16.992c.001 2.011 2.433 3.018 3.855 1.596z" fill="#FFF" data-color="2"/></svg>