<svg data-bbox="34.788 11.133 130.426 177.731" viewBox="34.788 11.133 130.426 177.731" height="200" width="200" xmlns="http://www.w3.org/2000/svg" data-type="color" aria-hidden="true"><defs><style>#comp-kyjwpui7 svg [data-color=&quot;1&quot;]{fill:#000}#comp-kyjwpui7 svg [data-color=&quot;2&quot;]{fill:#0acb8b}#comp-kyjwpui7 svg [data-color=&quot;3&quot;]{fill:#ffbf23}#comp-kyjwpui7 svg [data-color=&quot;4&quot;]{fill:#07875d}#comp-kyjwpui7 svg [data-color=&quot;5&quot;]{fill:#ffb8f2}</style></defs><path d="M57.565 99.871c-3.069 2.627-3.335 3.385-2.413 6.486-1.206 0-2.376-.002-3.545 0-3.111.007-5.849 1.087-8.294 2.947-3.063 2.331-3.974 5.493-3.33 9.16.284 1.614 1.167 2.975 2.645 3.711 1.455.725 3.01 1.278 4.565 1.766.983.309 2.047.36 3.288.562-.432.484-.755.856-1.088 1.218-2.532 2.747-3.884 6-4.063 9.717-.178 3.695 2.561 6.598 6.488 6.887 1.25.092 2.513.014 3.749.014.061.192.158.332.135.451-.782 4.179-1.665 8.341-2.341 12.536-.652 4.042-1.823 7.841-4.191 11.227-.726 1.038-1.413 2.118-1.986 3.245-.793 1.559.016 2.922 1.777 2.881a11.254 11.254 0 0 0 3.493-.668c5.843-2.105 10.682-5.597 14.337-10.663.432-.599.854-1.205 1.349-1.904.196.223.39.343.43.502 1.381 5.501 2.713 11.014 4.13 16.506.88 3.412 1.712 6.842 1.546 10.376-.093 1.972 1.695 2.511 2.822 1.621 1.391-1.099 2.806-2.277 3.847-3.688 3.137-4.25 5.233-9.015 6.511-14.154 1.824-7.334 1.431-14.669.183-22.02-.098-.578-.174-1.159-.311-2.08.857.373 1.496.63 2.117.924 2.712 1.284 5.447 1.436 8.238.248 1.922-.818 3.227-2.2 3.653-4.234.304-1.449.369-2.95.499-4.432.057-.65.01-1.309.01-2.04 1.284.225 2.445.464 3.617.627 2.218.308 4.33-.068 6.261-1.213 2.843-1.686 4.42-4.12 4.452-7.519.032-3.331-.944-6.172-3.614-8.301-.232-.185-.482-.348-.735-.529.986-1.009 1.943-1.804 2.662-2.775.746-1.008.943-2.302.273-3.395-.641-1.046-1.589-1.904-2.51-2.969.377-.117.806-.308 1.256-.382 9.119-1.489 17.908-4.093 26.221-8.124 7.432-3.604 13.746-8.662 18.823-15.234 3.168-4.101 5.199-8.709 6.339-13.721 1.119-4.918-.415-8.902-4.611-11.676-5.73-3.788-11.768-4.54-18.022-1.297-2.179 1.13-4.273 2.422-6.64 3.775.158-.681.24-1.214.407-1.719.807-2.437 1.255-4.946 1.097-7.498-.255-4.106-1.776-7.526-5.671-9.517-3.264-1.668-6.47-1.55-9.627.234-1.711.967-3.129 2.281-4.317 3.854-1.945 2.574-3.621 5.304-4.9 8.27-1.521 3.53-3.729 6.609-6.133 9.533l-4.679-1.355c.209-.755.444-1.517.631-2.292.754-3.124-.321-6.056-2.884-7.915-2.174-1.577-4.347-1.448-6.275.402-.372.357-.662.801-1.107 1.349-1.209-1.642-2.932-2.369-5.054-2.734.243-.946.424-1.798.68-2.628a1787.79 1787.79 0 0 1 3.944-12.615c1.184-3.733 1.685-7.577 1.909-11.464.265-4.605-1.228-8.71-3.88-12.371-2.906-4.012-8.421-5.441-13.722-4.215-6.606 1.527-10.024 6.158-12.214 11.986-1.845 4.91-2.859 10.049-3.355 15.279-.095.998-.207 1.994-.7 3.029-.354-.55-.709-1.098-1.061-1.649a19.307 19.307 0 0 0-5.421-5.592c-3.137-2.148-6.33-2.112-9.458-.158-3.773 2.358-6.056 5.943-7.487 10.052-1.552 4.455-1.859 9.106-1.184 13.729 2.337 16.004 9.324 29.645 21.136 40.756.368.348.848.577 1.303.88zm15.907 13.831.263.453c.874-.338 1.745-.687 2.624-1.011 2.445-.902 4.857-1.918 7.349-2.664 5.009-1.499 10.158-1.502 15.327-1.159 4.383.292 8.503 1.428 12.442 3.394 2.22 1.108 2.096 3.49.202 4.564-.752.427-1.654.657-2.517.8-.8.133-1.645-.029-2.458.06-.439.048-.85.35-1.335.564.644 1.059 1.547 1.148 2.429 1.277 2.034.296 3.608 1.381 4.883 2.922 3.45 4.167 1.745 10.75-3.367 12.313-3.45 1.055-6.814.523-9.585-2.099-.323-.305-.576-.7-.936-.944-.202-.137-.622-.154-.821-.029-.18.113-.322.534-.254.746.181.561.447 1.105.746 1.617 1.39 2.376 1.712 4.885 1.106 7.562-.621 2.746-2.124 3.994-4.948 4.335-3.531.427-9.087-3.079-9.593-6.358-.249-1.613-.712-3.193-1.035-4.797-.14-.695-.119-1.438-1.038-2.066-.676 1.678-1.323 3.17-1.878 4.696-.612 1.683-1.593 3.04-3.178 3.903-2.018 1.099-4.19 1.637-6.476 1.369-2.807-.329-6.205-2.319-5.88-6.88.139-1.954.572-3.837 1.558-5.562.728-1.272 1.439-2.554 2.342-4.16-1.398.404-2.34 1.001-2.936 1.917-.928 1.427-1.91 2.887-2.468 4.474-1.716 4.876-7.937 8.422-12.975 7.215-2.579-.618-3.948-2.435-3.745-5.051.344-4.433 2.171-8.014 6.027-10.434 1.042-.654 2.028-1.397 3.039-2.1-.889-.355-1.644-.502-2.318-.33-2.957.753-5.806.261-8.57-.743-3.29-1.194-4.416-3.539-3.534-6.933.348-1.338 1.012-2.489 2.054-3.4 1.719-1.503 3.677-2.512 5.935-2.975 2.918-.598 5.805-.281 8.684.2 1.017.17 1.985.345 3.266-.164-.967-.553-1.676-.939-2.364-1.358-.698-.426-1.407-.844-2.053-1.342-.606-.467-1.098-1.053-.762-1.92.351-.908.986-1.474 1.979-1.593.969-.116 1.727.324 2.455.887 4.291 3.322 9.037 5.801 14.143 7.613.44.156.849.401 1.36.647l-3.189 2.544zm11.607-11.094c7.884 1.568 14.519.7 19.58-.482 17.869-4.172 32.533-13.538 44.285-27.559.478-.57.918-1.182 1.298-1.82.196-.329.223-.759.327-1.144l-.375-.254c-.444.428-.916.831-1.326 1.289-1.447 1.612-2.825 3.289-4.314 4.86-8.599 9.072-18.516 16.217-30.272 20.679-7.694 2.92-15.595 4.665-23.871 4.196-1.702-.097-3.395-.477-5.071-.827-.431-.09-.997-.489-1.132-.876-.729-2.085-1.398-4.199-1.507-6.531 1.705.233 3.234.531 4.776.636 3.76.255 7.452-.328 11.11-1.131 5.534-1.215 10.55-3.689 15.466-6.405 7.679-4.242 13.927-9.994 18.541-17.488.345-.561.745-1.174 1.277-1.52 3.126-2.033 6.193-4.197 9.481-5.934 5.497-2.904 10.884-2.055 15.857 1.396 3.149 2.185 4.559 5.195 3.624 9.145-1.151 4.864-3.014 9.36-6.087 13.345-4.837 6.271-10.83 11.141-17.916 14.599-8.652 4.222-17.802 6.908-27.333 8.273-1.786.256-3.536.197-5.301-.417a16.47 16.47 0 0 0-4.377-.871 124.862 124.862 0 0 0-8.951-.192c-2.462.031-4.504-.909-6.376-2.35-.777-.597-1.358-1.367-1.413-2.617zm.057 6.098c-.876-.107-1.614.007-2.101-.29-3.2-1.951-6.17-4.154-8.452-7.234-3.182-4.294-5.755-8.926-7.809-13.822-4.018-9.577-5.671-19.629-5.467-29.987.076-3.884.403-7.763.494-11.646.167-7.159 1.521-14.098 3.695-20.893.876-2.738 2.319-5.194 4.18-7.363.809-.944 1.805-1.862 2.909-2.386 1.672-.794 3.473-1.45 5.289-1.782 4.214-.771 7.967.332 10.547 3.868 2.535 3.474 3.616 7.432 3.269 11.833-.386 4.893-1.608 9.556-3.097 14.191-1.027 3.199-2.005 6.42-2.823 9.677-.366 1.458-.622 2.776-1.855 3.877-.768.686-1.093 1.912-1.502 2.94-.268.673-.333 1.428-.494 2.172-.891-.165-1.682-.356-2.484-.452-2.761-.329-5.382 1.181-6.761 3.858-1.078 2.092-.67 3.967 1.497 6.244 1.027 1.08 2.198 2.023 3.299 3.033 2.334 2.143 3.847 4.734 4.342 7.895.142.907.049 1.722-.284 2.61-.464 1.24-.848 2.57-.925 3.881-.181 3.065-.017 6.125.888 9.102.426 1.4.79 2.82 1.311 4.693-.524-.567-.745-.756-.904-.986-2.083-3.017-4.039-6.11-5.373-9.546-4.931-12.698-6.088-25.803-4.104-39.216 1.087-7.345 3.172-14.434 5.832-21.357.321-.836.672-1.671.877-2.537.069-.293-.268-.683-.641-1.531-.478 1.13-.782 1.773-1.028 2.438-3.254 8.799-5.356 17.853-6.415 27.189-1.066 9.402-.549 18.621 1.973 27.757 2.338 8.468 5.789 16.322 11.785 22.888.091.099.106.267.332.882zM45.123 51.568c-.836.642-.71 1.42-.585 2.137.851 4.856 1.707 9.727 3.675 14.28 2.911 6.735 6.448 13.104 10.882 18.999 5.235 6.959 11.47 12.968 17.538 19.142.778.791 1.752 1.391 2.642 2.07.502.384 1.019.749 1.877 1.378-.899.085-1.401.236-1.857.151-.653-.122-1.272-.421-1.907-.64-10.667-3.665-19.432-9.982-26.526-18.742-5.143-6.351-8.857-13.454-11.619-21.086-1.53-4.229-2.49-8.599-2.772-13.106-.217-3.466.072-6.882 1.16-10.179 1.269-3.844 3.359-7.171 6.763-9.501 2.707-1.853 5.206-1.774 7.898.071 2.918 1.999 5.015 4.654 6.414 7.885a9.898 9.898 0 0 1 .821 4.562c-.183 3.504-.27 7.019-.233 10.528.026 2.459.162 4.939.524 7.368 1.478 9.895 4.324 19.365 9.082 28.213.3.558.565 1.135.847 1.704-4.398-3.919-8.074-8.393-11.436-13.13-3.389-4.775-5.896-10.035-8.292-15.348-2.401-5.329-3.131-11.164-4.896-16.756zm62.496 16.908c3.328-3.377 5.655-7.445 7.673-11.721a22.1 22.1 0 0 1 1.81-3.091c1.438-2.088 2.816-4.231 5.01-5.67 2.981-1.956 5.965-2.117 9.043-.236 2.447 1.495 3.521 3.816 3.84 6.508.347 2.934-.041 5.82-1.118 8.586-1.25 3.212-2.737 6.307-4.799 9.089-8.703 11.745-20.362 18.638-34.737 20.925-3.389.539-6.849.62-10.249-.219-1.841-.454-1.87-.51-1.258-2.72 3.949.13 7.833-.425 11.613-1.754.603-.212 1.446.098 2.132.315 1.8.57 3.588.996 5.495.571 3.328-.741 5.119-3.579 4.294-6.871-.088-.35-.168-.702-.243-1.015 8.42-5.547 19.474-19.526 19.373-24.784-.549.937-.958 1.629-1.36 2.324-1.159 2.004-2.272 4.036-3.479 6.01-3.32 5.427-7.612 9.953-12.823 13.602-.671.47-1.386.878-2.083 1.312-.8.497-1.169.058-1.557-.599 4.702-1.798 6.609-6.243 3.423-10.562zM82.644 139.86c.449 1.062.887 2.078 1.309 3.099.652 1.575 1.537 3.102 1.895 4.742 1.329 6.088 1.846 12.238 1.017 18.467-.834 6.274-3.137 11.954-6.66 17.169-.768 1.137-1.6 2.233-2.875 3.17 0-.412-.044-.567.006-.682 3.132-7.138 3.375-14.602 2.578-22.203a641.347 641.347 0 0 1-1.358-14.717c-.114-1.405-.043-2.841.102-4.246.062-.597.426-1.247.839-1.705.937-1.036 1.99-1.971 3.147-3.094zm-13.442 4.832c-.351 1.836-.757 3.434-.937 5.057-.18 1.626-.11 3.278-.199 4.916-.04.727-.021 1.54-.338 2.155-2.973 5.781-7.495 9.981-13.349 12.752-.892.422-1.803.941-2.923.905 1.403-1.813 2.79-3.471 4.031-5.233 3.459-4.912 6.113-10.242 8.064-15.925.723-2.106 1.567-4.158 2.811-6.14l2.84 1.513zM83.954 82.91c-.184-.28-.32-.395-.336-.524-.56-4.573-2.961-8.03-6.469-10.859-.861-.695-1.631-1.539-2.305-2.42-.987-1.289-.935-2.116-.017-3.466 1.824-2.683 5.03-2.935 7.787-.628 5.705 4.773 4.989 13.672 1.34 17.897zm2.797.085c.138-.438.157-.756.318-.965 1.348-1.752 3.05-3.028 5.152-3.754 4.653-1.606 8.285.531 11.623 3.337 1.4 1.177 1.182 3.071-.143 4.369-1.388 1.36-3.122 1.463-4.802.974a20.752 20.752 0 0 1-4.686-2.025c-2.287-1.35-4.587-2.428-7.462-1.936zm7.143-10.784c1.98-2.433 4.685-3.649 7.852-3.951 1.839-.176 3.356.559 4.633 1.82 1.122 1.108 1.378 2.421.82 3.904-.935 2.486-4.024 3.988-6.692 2.934-1.971-.778-3.947-1.206-5.994-1.203l-.619-3.504zm-5.257-1.302c-.493-1.217-.823-2.295-1.352-3.263-.567-1.038-1.26-2.024-2.007-2.944-1.63-2.009-1.83-3.923-.528-6.124 1.188-2.007 3.629-2.367 5.319-.733.986.954 1.567 2.151 1.819 3.514.559 3.027-.06 5.901-.982 8.743l-2.269.807zm4.033.049c-.11-.26-.228-.399-.203-.503.729-3.074.985-6.176.824-9.339-.047-.918.317-1.923.716-2.784.688-1.487 2.411-2.025 3.767-1.286 2.032 1.107 3.067 2.883 2.934 5.153-.126 2.149-.764 4.134-3.037 5.074a11.265 11.265 0 0 0-4.173 2.949c-.233.262-.526.471-.828.736zM63.387 138.19c.356.906.611 1.858 1.088 2.682.461.797.549 1.455.096 2.275-.356.645-.518 1.394-.81 2.078-.141.329-.319.793-.59.892-2.264.824-4.514 1.756-7.358 1.808.691-2.075 1.259-3.904 1.927-5.696.165-.444.597-.856 1.008-1.128 1.478-.979 3-1.891 4.639-2.911zm8.159 28.071c-.408-1.817-.682-3.112-.994-4.399-.161-.665.086-1.114.555-1.57 1.812-1.764 3.587-3.567 5.389-5.342.286-.282.641-.495 1.113-.852.66 2.481 1.183 4.631-1.006 6.477-.893.754-1.488 1.851-2.272 2.747-.773.884-1.614 1.71-2.785 2.939zm-1.347-6.765c-.166-1.125-.184-2.019-.441-2.837-.772-2.456.254-3.903 2.394-5.006 1.312-.677 2.447-1.693 3.673-2.54.328-.226.698-.391 1.15-.639.109.776.139 1.376.285 1.947.304 1.185.08 2.1-.862 2.997-1.673 1.592-3.192 3.345-4.799 5.008-.335.346-.77.595-1.4 1.07zm2.772 11.924c-.343-1.163-.543-2.011-.844-2.82-.356-.958-.15-1.607.627-2.334 1.517-1.419 2.881-3.002 4.316-4.51.388-.408.803-.789 1.383-1.355.617 2.449 1.071 4.535-.964 6.351-.991.884-1.76 2.014-2.67 2.996-.481.518-1.049.955-1.848 1.672zm1.647 5.983c-.47-1.706-.769-2.853-1.106-3.988-.224-.755.094-1.238.62-1.753 1.33-1.301 2.592-2.67 3.894-4 .277-.282.608-.512 1.124-.94 0 1.87.032 3.415-.021 4.958-.014.416-.191.907-.46 1.22-1.197 1.396-2.455 2.741-4.051 4.503zm-19.632-23.747c.269-1.601.395-2.84.726-4.023.099-.354.737-.669 1.186-.793 1.505-.416 3.034-.747 4.559-1.087.466-.104.948-.133 1.622-.223-.341 1.084-.527 1.969-.903 2.764-.232.49-.679 1.032-1.16 1.224-1.848.737-3.748 1.343-6.03 2.138zm21.692-9.059c.094.996.482 1.935-.399 2.74-1.923 1.758-4.022 3.244-6.811 4.507.439-1.613-.024-3.18 1.007-4.101 1.678-1.499 3.273-3.368 6.203-3.146zm-15.775 8.22c-1.742 5.226-1.942 5.68-6.963 6.087.237-1.179.526-2.325.683-3.489.112-.83.619-1.117 1.303-1.296l4.977-1.302zM82.959 88.57c2.406-4.242 6.382-4.871 10.067-1.593-2.336 1.139-6.82 1.848-10.067 1.593zm5.7-10.806c.083-1.48.108-2.669.226-3.848.109-1.09 1.083-1.773 2.017-1.498.796.234 1.608 1.295 1.617 2.226.009.86-.219 1.595-1.173 1.936-.828.295-1.615.706-2.687 1.184zm-36.555 86.695c1.284-4.168 1.283-4.171 5.048-4.954.115-.024.259.094.438.165-1.094 2.342-2.278 4.551-5.486 4.789zm26.577 10.075c.201 3.043-1.149 4.915-3.301 6.591-.195-.83-.445-1.473-.464-2.122-.013-.456.169-1.038.476-1.361.964-1.015 2.029-1.934 3.289-3.108zm-24.85-9.258c-1.641 2.85-3.503 4.663-5.48 5.296.195-.498.289-.913.505-1.251.481-.752 1.129-1.413 1.518-2.205.685-1.392 1.803-1.831 3.457-1.84zm23.643 15.431c-.191 1.742-.829 3.181-1.728 4.904-.565-2.257-.227-3.805 1.728-4.904z" data-color="1"/><path d="m73.472 113.702 3.187-2.544c-.51-.246-.919-.491-1.36-.647-5.106-1.812-9.851-4.291-14.143-7.613-.728-.564-1.486-1.003-2.455-.887-.994.119-1.628.685-1.979 1.593-.335.866.156 1.453.762 1.92.646.497 1.355.916 2.053 1.342.688.42 1.397.805 2.364 1.358-1.281.508-2.249.334-3.266.164-2.879-.481-5.766-.798-8.684-.2-2.258.463-4.216 1.472-5.935 2.975-1.042.911-1.706 2.063-2.054 3.4-.882 3.394.243 5.739 3.534 6.933 2.764 1.003 5.613 1.496 8.57.743.674-.172 1.429-.025 2.318.33-1.012.702-1.997 1.446-3.039 2.1-3.855 2.42-5.683 6.001-6.027 10.434-.203 2.616 1.165 4.434 3.745 5.051 5.038 1.207 11.26-2.339 12.975-7.215.558-1.587 1.54-3.047 2.468-4.474.596-.916 1.538-1.513 2.936-1.917-.903 1.606-1.614 2.888-2.342 4.16-.986 1.725-1.419 3.608-1.558 5.562-.324 4.561 3.073 6.551 5.88 6.88 2.286.268 4.458-.27 6.476-1.369 1.585-.863 2.565-2.22 3.178-3.903.555-1.526 1.203-3.018 1.878-4.696.919.628.898 1.371 1.038 2.066.323 1.604.785 3.183 1.035 4.797.507 3.279 6.062 6.785 9.593 6.358 2.824-.341 4.327-1.589 4.948-4.335.606-2.678.284-5.186-1.106-7.562a8.276 8.276 0 0 1-.746-1.617c-.068-.212.074-.633.254-.746.199-.125.62-.107.821.029.36.244.613.638.936.944 2.772 2.622 6.136 3.154 9.585 2.099 5.112-1.563 6.817-8.146 3.367-12.313-1.275-1.54-2.849-2.625-4.883-2.922-.882-.128-1.785-.217-2.429-1.277.485-.215.896-.516 1.335-.564.812-.089 1.658.074 2.458-.06.863-.144 1.765-.374 2.517-.8 1.894-1.074 2.018-3.456-.202-4.564-3.939-1.965-8.058-3.102-12.442-3.394-5.169-.344-10.318-.34-15.327 1.159-2.492.746-4.904 1.762-7.349 2.664-.879.324-1.75.674-2.624 1.011a35.05 35.05 0 0 0-.261-.453zm-18.617 15.985c-.377-.391-.836-.655-.855-.948-.016-.253.467-.538.73-.808.266.275.641.512.753.839.061.175-.331.506-.628.917zm53.958-1.788c.461-.289.76-.625 1.004-.588.263.039.475.426.709.662-.25.211-.494.579-.75.589-.257.008-.526-.343-.963-.663zM48.496 111.2c.591-.314.931-.621 1.277-.629.19-.005.563.509.541.761-.023.259-.462.709-.655.677-.338-.055-.628-.413-1.163-.809zm36.118 7.17c-.37-.408-.754-.645-.761-.892-.007-.251.357-.513.559-.77.254.21.658.384.718.639.056.234-.262.555-.516 1.023zm-23.178 10.677c.231.402.517.703.454.83a1.261 1.261 0 0 1-.696.588c-.111.034-.541-.423-.5-.556.084-.273.388-.477.742-.862zm36.231-18.566c.254.477.45.751.533 1.056.026.094-.348.413-.384.39-.278-.181-.567-.39-.74-.662-.047-.075.288-.392.591-.784zm-44.996 22.694.455-.596c.2.173.442.32.577.534.041.065-.243.468-.329.452-.231-.043-.436-.229-.703-.39zm38.839 8.942c.212-.17.375-.402.532-.398.153.004.3.249.45.388l-.546.506-.436-.496z" fill="#0ACB8B" data-color="2"/><path d="M83.954 82.91c3.649-4.225 4.365-13.124-1.339-17.897-2.757-2.307-5.964-2.055-7.787.628-.917 1.35-.97 2.177.017 3.466.674.881 1.444 1.726 2.305 2.42 3.508 2.829 5.909 6.286 6.469 10.859.015.13.151.244.335.524zM86.751 82.995c2.875-.492 5.175.586 7.463 1.935a20.707 20.707 0 0 0 4.686 2.025c1.679.489 3.414.387 4.802-.974 1.325-1.299 1.543-3.192.143-4.369-3.339-2.806-6.97-4.943-11.623-3.337-2.103.726-3.805 2.002-5.152 3.754-.162.21-.18.529-.319.966zM93.894 72.211l.619 3.504c2.047-.004 4.023.424 5.994 1.203 2.668 1.053 5.757-.448 6.692-2.934.558-1.483.302-2.796-.82-3.904-1.277-1.261-2.794-1.996-4.633-1.82-3.167.303-5.872 1.519-7.852 3.951zM88.637 70.909l2.269-.806c.922-2.842 1.541-5.716.982-8.743-.252-1.363-.833-2.56-1.819-3.514-1.689-1.634-4.131-1.275-5.319.733-1.302 2.201-1.102 4.115.528 6.124.747.92 1.44 1.906 2.007 2.944.529.968.859 2.045 1.352 3.262zM92.67 70.958c.301-.265.595-.474.828-.736a11.276 11.276 0 0 1 4.173-2.949c2.273-.939 2.911-2.925 3.037-5.074.133-2.27-.902-4.046-2.934-5.153-1.355-.739-3.079-.201-3.767 1.286-.399.862-.763 1.866-.716 2.784.16 3.163-.096 6.265-.824 9.339-.025.104.094.242.203.503z" fill="#FFBF23" data-color="3"/><path d="M85.079 102.608c.055 1.249.636 2.02 1.411 2.617 1.872 1.441 3.914 2.381 6.376 2.35a124.27 124.27 0 0 1 8.951.192c1.475.088 2.983.385 4.377.871 1.765.614 3.515.673 5.301.417 9.531-1.365 18.681-4.051 27.333-8.273 7.086-3.458 13.079-8.327 17.916-14.599 3.073-3.985 4.936-8.481 6.087-13.345.935-3.95-.475-6.96-3.624-9.145-4.973-3.45-10.36-4.299-15.857-1.396-3.289 1.737-6.355 3.901-9.481 5.934-.532.346-.931.959-1.277 1.52-4.614 7.494-10.861 13.246-18.541 17.488-4.916 2.716-9.932 5.19-15.466 6.405-3.658.803-7.35 1.386-11.11 1.131-1.542-.105-3.071-.402-4.776-.636.109 2.333.779 4.447 1.507 6.531.135.386.701.786 1.132.876 1.676.351 3.369.731 5.071.827 8.276.47 16.176-1.275 23.871-4.196 11.756-4.462 21.674-11.607 30.272-20.679 1.489-1.571 2.867-3.248 4.314-4.86.411-.458.883-.861 1.326-1.289l.375.254c-.104.384-.13.815-.327 1.144-.381.638-.82 1.25-1.298 1.82-11.751 14.021-26.416 23.387-44.285 27.559-5.059 1.182-11.694 2.05-19.578.482zm72.076-22.497c-.555.399-.866.799-1.163.788-.312-.011-.837-.395-.858-.65-.025-.305.412-.93.601-.912.408.039.785.4 1.42.774zm-10.449 2.132c.497-.215.778-.434 1.047-.421.194.009.374.327.56.508-.226.228-.436.612-.683.637-.219.022-.478-.354-.924-.724z" fill="#0E8F6B" data-color="4"/><path d="M85.136 108.706c-.226-.615-.241-.783-.331-.882-5.996-6.566-9.447-14.419-11.785-22.888-2.522-9.136-3.039-18.355-1.973-27.757 1.059-9.336 3.161-18.39 6.415-27.189.246-.665.549-1.308 1.028-2.438.372.849.71 1.238.641 1.531-.205.866-.556 1.701-.877 2.537-2.661 6.924-4.746 14.013-5.832 21.357-1.985 13.413-.828 26.519 4.104 39.216 1.334 3.436 3.29 6.529 5.373 9.546.159.231.38.419.904.986-.521-1.873-.885-3.292-1.311-4.693-.905-2.977-1.069-6.037-.888-9.102.077-1.312.461-2.642.925-3.881.332-.888.426-1.704.284-2.61-.495-3.16-2.009-5.752-4.342-7.895-1.101-1.011-2.271-1.954-3.299-3.033-2.167-2.278-2.575-4.152-1.497-6.244 1.379-2.677 4-4.187 6.761-3.858.802.096 1.593.287 2.484.452.161-.744.226-1.499.494-2.172.41-1.029.734-2.255 1.502-2.94 1.233-1.101 1.488-2.419 1.855-3.877.818-3.257 1.796-6.478 2.823-9.677 1.489-4.635 2.711-9.298 3.097-14.191.347-4.401-.734-8.359-3.269-11.833-2.58-3.536-6.334-4.639-10.547-3.868-1.816.332-3.617.988-5.289 1.782-1.104.524-2.1 1.443-2.909 2.386-1.861 2.169-3.304 4.625-4.18 7.363-2.174 6.795-3.528 13.734-3.695 20.893-.091 3.884-.417 7.763-.494 11.646-.204 10.358 1.449 20.41 5.467 29.987 2.054 4.896 4.628 9.528 7.809 13.822 2.282 3.08 5.252 5.283 8.452 7.234.486.297 1.224.183 2.1.29zM64.175 62.168c.518-.405.803-.785 1.159-.87.559-.132 1.156.602.932 1.178-.125.321-.664.76-.899.698-.398-.104-.702-.563-1.192-1.006zm23.013-36.409c.62-.436.97-.788 1.39-.925.168-.055.734.443.699.556-.119.375-.374.884-.682.973-.297.085-.726-.289-1.407-.604zm-3.155 11.05c.423-.32.733-.707.914-.654.258.075.492.451.588.746.037.114-.362.533-.513.508-.289-.046-.544-.311-.989-.6zm-4.016-19.787c-.342-.371-.722-.604-.714-.823.009-.255.337-.673.562-.698.225-.025.645.316.698.558.048.222-.28.526-.546.963zm1.941 5.225c.559-.215.845-.435 1.073-.385.266.058.481.35.719.541-.193.182-.367.478-.584.513-.194.032-.436-.222-1.208-.669z" fill="#0E8F6B" data-color="4"/><path d="M45.123 51.568c1.765 5.592 2.494 11.427 4.896 16.755 2.395 5.313 4.903 10.573 8.292 15.348 3.362 4.737 7.038 9.212 11.436 13.13-.281-.568-.546-1.145-.847-1.704-4.758-8.847-7.604-18.318-9.082-28.213-.363-2.429-.499-4.909-.524-7.368-.037-3.509.05-7.023.233-10.528a9.88 9.88 0 0 0-.821-4.562c-1.399-3.231-3.497-5.885-6.414-7.885-2.692-1.844-5.191-1.924-7.898-.071-3.404 2.33-5.494 5.657-6.763 9.501-1.088 3.297-1.377 6.713-1.16 10.179.282 4.507 1.242 8.877 2.772 13.106 2.761 7.632 6.475 14.735 11.619 21.086 7.094 8.76 15.859 15.077 26.526 18.742.635.218 1.254.517 1.907.64.457.086.958-.066 1.857-.151-.859-.629-1.375-.994-1.877-1.378-.89-.679-1.864-1.279-2.642-2.07-6.069-6.174-12.303-12.183-17.538-19.142-4.435-5.895-7.972-12.265-10.882-18.999-1.968-4.553-2.825-9.424-3.675-14.28-.125-.716-.25-1.494.585-2.136zm1.179-7.316c.442-.362.675-.672.966-.744.166-.041.633.35.608.471-.065.306-.279.71-.534.805-.197.073-.546-.262-1.04-.532zm6.574 42.213c.485.847.742 1.102.692 1.258-.062.195-.388.435-.581.419-.177-.015-.438-.329-.463-.537-.031-.249.147-.524.352-1.14zm.6-28.599c-.323-.369-.623-.56-.621-.748.002-.216.272-.429.425-.644.21.167.53.299.597.511.056.175-.188.445-.401.881zM107.619 68.476c3.186 4.319 1.279 8.764-3.422 10.56.388.656.757 1.096 1.557.599.697-.433 1.412-.842 2.083-1.312 5.211-3.649 9.503-8.175 12.823-13.602 1.208-1.974 2.321-4.006 3.479-6.01.402-.695.811-1.387 1.36-2.324.1 5.258-10.954 19.237-19.373 24.784.075.313.155.665.243 1.015.825 3.292-.966 6.13-4.294 6.871-1.908.425-3.695-.001-5.495-.571-.685-.217-1.529-.527-2.132-.315-3.781 1.33-7.664 1.884-11.613 1.754-.612 2.21-.584 2.266 1.258 2.72 3.4.839 6.86.758 10.249.219 14.376-2.288 26.035-9.18 34.737-20.925 2.061-2.782 3.548-5.877 4.799-9.089 1.077-2.766 1.465-5.652 1.118-8.586-.319-2.692-1.393-5.013-3.84-6.508-3.078-1.881-6.062-1.719-9.043.236-2.194 1.44-3.571 3.583-5.01 5.67a22.298 22.298 0 0 0-1.81 3.091c-2.019 4.278-4.346 8.347-7.674 11.723zm5.907 13.941c.478-.224.815-.52 1.041-.451.259.079.418.482.621.745-.268.174-.554.509-.798.48-.26-.031-.478-.406-.864-.774zm2.886-20.571c.298.446.57.692.61.972.024.169-.35.574-.48.548-.283-.056-.715-.303-.734-.505-.024-.256.303-.544.604-1.015z" fill="#0E8F6B" data-color="4"/><path d="M82.959 88.57c3.247.255 7.731-.454 10.067-1.593-3.686-3.278-7.661-2.649-10.067 1.593z" fill="#0E8F6B" data-color="4"/><path d="M88.659 77.764c1.072-.479 1.859-.889 2.687-1.184.954-.341 1.181-1.076 1.173-1.936-.009-.931-.82-1.991-1.617-2.226-.933-.274-1.908.408-2.017 1.498-.118 1.18-.144 2.368-.226 3.848z" fill="#FF9ABA" data-color="5"/><path d="M82.644 139.86c-1.156 1.123-2.209 2.058-3.146 3.097-.413.458-.778 1.108-.839 1.705-.145 1.405-.216 2.84-.102 4.246.4 4.91.845 9.817 1.358 14.717.796 7.6.554 15.065-2.578 22.203-.05.114-.006.27-.006.682 1.275-.937 2.107-2.033 2.875-3.17 3.523-5.215 5.826-10.896 6.66-17.169.829-6.229.312-12.38-1.017-18.467-.358-1.641-1.244-3.167-1.895-4.742-.424-1.024-.861-2.039-1.31-3.102zM69.202 144.692l-2.84-1.513c-1.245 1.982-2.088 4.034-2.811 6.14-1.951 5.683-4.605 11.013-8.064 15.925-1.24 1.762-2.628 3.42-4.031 5.233 1.12.036 2.031-.483 2.923-.905 5.854-2.77 10.376-6.97 13.349-12.752.316-.615.298-1.428.338-2.155.089-1.638.019-3.29.199-4.916.18-1.623.587-3.221.937-5.057zM63.387 138.19c-1.639 1.02-3.161 1.932-4.64 2.91-.411.272-.843.684-1.008 1.128-.668 1.792-1.235 3.621-1.927 5.696 2.844-.052 5.093-.984 7.358-1.808.272-.099.45-.562.59-.892.292-.684.454-1.433.81-2.078.453-.82.365-1.478-.096-2.275-.476-.823-.731-1.775-1.087-2.681z" fill="#0E8F6B" data-color="4"/><path d="M71.546 166.261c1.171-1.23 2.011-2.055 2.785-2.939.783-.895 1.379-1.993 2.272-2.747 2.189-1.846 1.666-3.996 1.006-6.477-.472.357-.827.57-1.113.852-1.802 1.775-3.577 3.578-5.389 5.342-.468.456-.716.905-.555 1.57.312 1.287.586 2.583.994 4.399zM70.199 159.496c.629-.475 1.065-.725 1.4-1.071 1.607-1.663 3.126-3.416 4.799-5.008.942-.897 1.166-1.812.862-2.997-.146-.57-.176-1.171-.285-1.947-.452.248-.823.412-1.15.639-1.226.847-2.361 1.864-3.673 2.54-2.139 1.103-3.165 2.55-2.394 5.006.258.82.275 1.714.441 2.838zM72.971 171.42c.799-.716 1.367-1.154 1.848-1.673.91-.981 1.679-2.111 2.67-2.996 2.035-1.815 1.581-3.902.964-6.351-.58.566-.995.948-1.383 1.355-1.435 1.508-2.799 3.09-4.316 4.51-.777.727-.983 1.376-.627 2.334.302.81.502 1.657.844 2.821zM74.618 177.403c1.596-1.761 2.854-3.106 4.051-4.503.269-.314.445-.804.46-1.22.053-1.542.021-3.087.021-4.958-.517.428-.848.658-1.124.94-1.302 1.329-2.564 2.699-3.894 4-.526.515-.844.998-.62 1.753.337 1.135.636 2.282 1.106 3.988zM54.986 153.656c2.282-.795 4.182-1.4 6.03-2.138.481-.192.928-.734 1.16-1.224.376-.795.562-1.68.903-2.764-.674.09-1.156.119-1.622.223-1.525.34-3.054.672-4.559 1.087-.449.124-1.087.439-1.186.793-.331 1.182-.457 2.422-.726 4.023zM76.678 144.597c-2.93-.222-4.526 1.647-6.203 3.146-1.031.921-.567 2.488-1.007 4.101 2.789-1.263 4.888-2.749 6.811-4.507.881-.805.493-1.744.399-2.74zM60.903 152.817l-4.977 1.302c-.684.179-1.192.466-1.303 1.296-.157 1.164-.445 2.31-.683 3.489 5.021-.407 5.221-.861 6.963-6.087zM52.104 164.459c3.207-.238 4.392-2.447 5.485-4.789-.179-.071-.323-.189-.438-.165-3.763.783-3.763.785-5.047 4.954zM78.681 174.534c-1.259 1.173-2.324 2.092-3.289 3.107-.307.323-.489.905-.476 1.361.018.649.269 1.292.464 2.122 2.152-1.675 3.502-3.547 3.301-6.59zM53.831 165.276c-1.655.01-2.772.448-3.456 1.84-.389.792-1.037 1.453-1.518 2.205-.216.337-.31.753-.505 1.251 1.976-.634 3.838-2.447 5.479-5.296zM77.474 180.707c-1.955 1.099-2.293 2.647-1.728 4.904.899-1.722 1.537-3.161 1.728-4.904z" fill="#0E8F6B" data-color="4"/><path d="M54.855 129.687c.297-.411.689-.742.629-.918-.112-.327-.487-.564-.753-.839-.263.271-.746.556-.73.808.019.294.477.559.854.949zM108.813 127.899c.437.32.706.671.962.662.257-.009.501-.378.75-.589-.234-.235-.445-.622-.709-.662-.243-.036-.542.3-1.003.589zM48.496 111.2c.534.397.824.754 1.164.809.192.031.632-.418.655-.677.022-.252-.351-.766-.541-.761-.347.008-.687.314-1.278.629zM84.614 118.37c.254-.468.571-.789.516-1.022-.06-.255-.464-.43-.718-.639-.202.257-.566.519-.559.77.007.246.391.483.761.891zM61.436 129.047c-.354.385-.658.589-.743.862-.041.133.39.59.5.556.276-.085.568-.329.696-.588.065-.127-.221-.428-.453-.83zM97.667 110.481c-.303.392-.638.709-.591.783.173.272.461.481.74.662.035.023.409-.295.384-.39-.083-.304-.279-.578-.533-1.055zM52.671 133.175c.268.161.472.347.703.39.085.016.369-.387.329-.452-.134-.214-.376-.361-.577-.534l-.455.596zM91.51 142.117l.436.496.546-.506c-.15-.139-.297-.384-.45-.388-.158-.004-.32.228-.532.398zM157.155 80.111c-.635-.374-1.012-.735-1.42-.775-.189-.018-.626.608-.601.912.021.255.545.64.858.65.297.012.608-.388 1.163-.787zM146.706 82.243c.446.37.706.746.924.723.247-.025.457-.409.683-.637-.186-.18-.366-.498-.56-.508-.269-.011-.55.207-1.047.422zM64.175 62.168c.49.443.795.902 1.192 1.006.235.062.774-.377.899-.698.224-.576-.373-1.31-.932-1.178-.356.085-.642.466-1.159.87zM87.188 25.759c.681.316 1.109.689 1.407.604.308-.088.563-.597.682-.973.036-.112-.53-.611-.699-.556-.42.137-.77.489-1.39.925zM84.033 36.809c.445.289.7.553.99.6.151.024.55-.395.513-.508-.096-.296-.331-.671-.588-.746-.182-.053-.492.334-.915.654zM80.017 17.022c.265-.437.594-.74.546-.962-.053-.242-.473-.583-.698-.558-.225.025-.553.443-.562.698-.008.218.372.45.714.822zM81.958 22.247c.772.447 1.014.701 1.208.669.217-.035.391-.331.584-.513-.237-.191-.453-.483-.719-.541-.228-.05-.514.169-1.073.385zM46.302 44.252c.494.27.843.605 1.04.531.255-.095.469-.499.534-.805.026-.121-.441-.512-.608-.471-.291.073-.524.384-.966.745zM52.876 86.465c-.205.616-.383.892-.352 1.141.026.207.286.522.463.537.192.016.518-.225.581-.419.05-.158-.207-.412-.692-1.259zM53.476 57.866c.213-.436.457-.706.402-.881-.067-.212-.387-.344-.597-.511-.153.214-.423.428-.425.644-.003.188.297.38.62.748zM113.526 82.417c.387.368.605.743.863.773.244.029.53-.305.798-.48-.203-.262-.362-.666-.621-.745-.225-.068-.563.228-1.04.452zM116.412 61.846c-.301.471-.628.759-.604 1.015.019.202.451.449.734.505.131.026.504-.379.48-.548-.04-.28-.312-.526-.61-.972z" data-color="1"/></svg>