<svg data-bbox="16.253 36.302 167.493 127.394" viewBox="16.253 36.302 167.493 127.394" height="200" width="200" xmlns="http://www.w3.org/2000/svg" data-type="color" aria-hidden="true"><defs><style>#comp-kylh6j2p svg [data-color=&quot;1&quot;]{fill:#000}#comp-kylh6j2p svg [data-color=&quot;2&quot;]{fill:#0acb8b}#comp-kylh6j2p svg [data-color=&quot;3&quot;]{fill:#ffbf23}#comp-kylh6j2p svg [data-color=&quot;4&quot;]{fill:#fe393c}#comp-kylh6j2p svg [data-color=&quot;5&quot;]{fill:#07875d}</style></defs><path d="M84.748 145.267c-.216-.685-.353-1.229-.556-1.747-1.177-3.02-1.571-6.174-1.562-9.384.009-3.372 1.137-6.409 3.146-9.068 2.013-2.666 4.892-3.323 8.031-2.847 1.856.282 3.009 1.718 4.088 3.127.39.509.698 1.081 1.153 1.798.311-.74.557-1.314.794-1.892 1.055-2.571 2.576-4.835 4.675-6.651.87-.753 1.878-1.447 2.943-1.854 3.544-1.356 7.343 1.133 7.605 4.914.067.968.04 1.959-.09 2.919-.122.895-.438 1.764-.708 2.793.398-.055.748-.066 1.076-.156 2.109-.577 4.207-.556 6.377-.241 4.69.68 6.847 5.541 5.423 9.46-.218.602-.48 1.188-.816 2.015.557-.026.966-.054 1.375-.064 2.145-.052 4.3-.257 6.433-.119 5.415.349 9.382 3.201 12.302 7.613 2.071 3.13 1.112 8.402-1.389 10.875-2.871 2.839-6.311 4.539-10.226 5.342-3.398.697-6.842.813-10.3.808-5.272-.008-10.545.114-15.816.045-6.113-.08-12.24-.049-18.302-1.049-2.723-.449-5.282-1.397-7.705-2.696-1.916-1.027-3.535-2.43-4.882-4.141-.741-.942-1.248-1.97-1.308-3.197-.025-.517-.14-1.031-.24-1.541-.767-3.915 2.006-6.698 5.902-5.883.804.168 1.577.497 2.577.821zm5.598 8.606-.326.261c-1.161-.795-1.78-2.06-2.317-3.261-.889-1.989-2.525-3.091-4.259-4.114-.655-.387-1.437-.636-2.192-.758-1.582-.257-2.612.333-3.355 1.751-.865 1.649-.725 3.253.203 4.831 1.433 2.437 3.506 4.153 6.013 5.397a24.76 24.76 0 0 0 9.75 2.571c5.586.303 11.176.623 16.768.71 5.269.082 10.543-.146 15.815-.204a46.79 46.79 0 0 0 8.722-.936c3.281-.659 6.162-2.069 8.471-4.519 2.26-2.399 2.858-6.273 1.181-8.854-2.668-4.103-6.398-6.651-11.422-6.808-2.269-.071-4.56.069-6.819.317-1.264.139-2.491.665-3.716 1.072-.799.265-1.546.694-2.353.921-.324.091-.745-.163-1.539-.367 1.339-.881 2.282-1.557 3.278-2.144 1.153-.679 2.079-1.573 2.752-2.71 1.743-2.943.589-6.901-2.396-7.857-1.337-.428-2.81-.615-4.218-.597-2.535.033-4.632 1.123-6.221 3.158-.532.682-.948 1.553-2.111 1.811-.079-.437-.292-.846-.172-1.094.394-.814.894-1.58 1.38-2.346 1.662-2.622 2.341-5.506 2.024-8.56-.247-2.381-2.55-3.891-4.858-3.221-.96.279-1.897.867-2.669 1.523-2.123 1.805-3.613 4.091-4.558 6.71-1.108 3.068-1.939 6.208-2.359 9.451-.083.644-.165 1.301-.367 1.913-.093.282-.474.469-.942.899-.105-.792-.26-1.292-.219-1.776.137-1.618.254-3.247.545-4.84.559-3.056-.444-5.518-2.729-7.472-.607-.519-1.474-.963-2.249-1.015-2.579-.172-4.928.438-6.491 2.746-1.645 2.428-2.613 5.081-2.563 8.051.05 2.95.397 5.863 1.565 8.592 1.202 2.807 2.546 5.554 3.828 8.327.377.813.75 1.627 1.125 2.441z" data-color="1"/><path d="M90.346 153.873c-.375-.814-.748-1.628-1.124-2.441-1.281-2.773-2.626-5.52-3.828-8.327-1.168-2.729-1.515-5.642-1.565-8.592-.05-2.971.918-5.624 2.563-8.051 1.564-2.308 3.912-2.918 6.491-2.746.776.052 1.642.496 2.249 1.015 2.285 1.954 3.288 4.416 2.729 7.472-.291 1.594-.408 3.223-.545 4.84-.041.484.114.985.219 1.776.468-.43.849-.617.942-.899.202-.612.284-1.268.367-1.913.42-3.242 1.251-6.383 2.359-9.451.946-2.619 2.435-4.906 4.558-6.71.771-.656 1.708-1.244 2.669-1.523 2.308-.67 4.611.84 4.858 3.221.317 3.054-.362 5.938-2.024 8.56-.486.767-.986 1.532-1.38 2.346-.12.248.093.656.172 1.094 1.163-.257 1.579-1.129 2.111-1.811 1.589-2.036 3.686-3.125 6.221-3.158 1.407-.018 2.881.169 4.218.597 2.984.956 4.139 4.914 2.396 7.857-.673 1.137-1.6 2.031-2.752 2.71-.996.587-1.939 1.262-3.278 2.144.794.204 1.215.458 1.539.367.807-.227 1.554-.655 2.353-.921 1.225-.407 2.453-.934 3.716-1.072 2.259-.248 4.549-.388 6.819-.317 5.023.157 8.754 2.705 11.422 6.808 1.678 2.581 1.079 6.455-1.181 8.854-2.308 2.45-5.19 3.86-8.471 4.519-2.88.579-5.781.904-8.722.936-5.272.058-10.546.285-15.815.204-5.592-.087-11.182-.407-16.768-.71a24.78 24.78 0 0 1-9.75-2.571c-2.506-1.244-4.579-2.96-6.013-5.397-.928-1.578-1.068-3.182-.203-4.831.744-1.418 1.773-2.008 3.355-1.751.755.123 1.537.372 2.192.758 1.733 1.023 3.37 2.125 4.259 4.114.537 1.201 1.156 2.466 2.317 3.261l.325-.261zm50.055-7.07c.237-.22.536-.388.653-.641.083-.179-.014-.518-.146-.703a2.221 2.221 0 0 0-.724-.631c-.504-.277-1.056-.636-1.586-.073-.325.346.019 1.236.655 1.632.314.196.709.263 1.148.416zm.817 3.98c-.414.467-.783.698-.847.995-.112.524.29.902.776.87.271-.018.726-.433.722-.662-.006-.343-.345-.679-.651-1.203zm-34.23-27.841c-.14-.122-.333-.433-.567-.467-.554-.081-1.216.533-1.135 1.023.031.185.292.43.487.473.656.143 1.165-.258 1.215-1.029zm-20.429 12.172c.229-.508.483-.831.478-1.151-.003-.195-.413-.552-.624-.541-.45.025-.654.43-.52.853.082.257.349.454.666.839zm29.782-1.048c-.382-.216-.645-.484-.845-.444-.219.045-.38.374-.567.58.214.18.428.501.642.501.208.001.417-.327.77-.637zm18.255 8.569c-.311-.324-.443-.576-.636-.639-.456-.15-.765.115-.791.556-.009.147.307.439.478.442.259.005.522-.184.949-.359zM87.67 128.146c-.196.368-.409.602-.416.842-.004.144.315.296.489.445.168-.223.407-.428.474-.678.03-.116-.277-.32-.547-.609zm31.914 2.33c-.376-.209-.593-.429-.754-.394-.196.044-.451.286-.48.472-.022.145.297.498.407.475.239-.048.442-.278.827-.553zm-27.65-3.656c.257-.341.514-.539.488-.686-.029-.164-.301-.332-.499-.395-.08-.026-.355.226-.351.344.007.191.172.376.362.737zm43.511 20.004c.197-.269.424-.493.389-.547a1.203 1.203 0 0 0-.514-.424c-.052-.022-.35.28-.323.373.055.196.251.352.448.598zm-14.087-11.745c.151-.248.309-.417.345-.609.015-.077-.299-.319-.353-.289a.994.994 0 0 0-.409.447c-.025.06.209.233.417.451zm-31.093-3.985c-.392-.129-.687-.311-.781-.237-.151.119-.211.406-.217.625-.002.075.321.258.411.215.18-.087.302-.295.587-.603zm19.986-9.225c.119-.194.286-.345.272-.476-.013-.127-.214-.235-.332-.351l-.394.495.454.332z" fill="#0ACB8B" data-color="2"/><path d="M140.401 146.803c-.439-.153-.834-.22-1.148-.416-.636-.396-.98-1.287-.655-1.632.53-.563 1.082-.204 1.586.073.276.152.541.376.724.631.132.185.23.524.146.703-.117.253-.415.421-.653.641zM141.218 150.783c.306.524.644.86.651 1.202.004.229-.452.644-.722.662-.486.032-.888-.346-.776-.87.064-.296.433-.528.847-.994zM106.988 122.942c-.05.771-.559 1.172-1.215 1.028-.195-.042-.456-.287-.487-.473-.081-.49.581-1.103 1.135-1.023.234.035.427.346.567.468zM86.559 135.114c-.317-.386-.584-.583-.665-.838-.134-.422.07-.828.52-.853.211-.012.621.346.624.541.004.319-.25.643-.479 1.15zM116.341 134.066c-.352.31-.561.638-.77.637-.214 0-.428-.321-.642-.501.186-.205.348-.535.567-.58.2-.04.462.229.845.444zM134.596 142.635c-.427.175-.69.364-.949.359-.172-.003-.487-.295-.478-.442.027-.442.335-.706.791-.556.194.063.325.315.636.639zM87.67 128.146c.27.289.577.493.546.609-.066.25-.305.455-.474.678-.174-.149-.493-.301-.489-.445.008-.24.221-.474.417-.842zM119.584 130.476c-.385.276-.587.505-.827.554-.11.022-.429-.33-.407-.475.029-.187.284-.429.48-.472.16-.037.378.184.754.393zM91.934 126.82c-.189-.361-.354-.546-.362-.737-.005-.118.27-.369.351-.344.199.063.47.231.499.395.026.147-.231.345-.488.686zM135.445 146.824c-.197-.245-.393-.402-.449-.598-.027-.093.271-.395.323-.373.2.086.396.242.514.424.036.054-.191.278-.388.547zM121.358 135.079c-.208-.218-.442-.391-.416-.451a.994.994 0 0 1 .409-.447c.054-.03.368.211.353.289-.037.193-.195.362-.346.609zM90.265 131.094c-.285.308-.407.516-.587.602-.09.043-.414-.14-.411-.215.006-.219.067-.506.217-.625.094-.073.389.109.781.238zM110.251 121.869l-.454-.332.394-.495c.118.116.318.223.332.351.014.131-.153.282-.272.476z" data-color="1"/><path d="M89.607 161.49c2.259 1.678 4.724 1.956 7.345.995 1.777-.651 3.185-1.678 3.87-3.54a5.407 5.407 0 0 1 .893-1.558c5.162-6.238 10.952-11.715 18.293-15.388 4.855-2.429 9.989-3.912 15.347-4.351 5.498-.451 11.031-.47 16.549-.663 3.792-.132 7.594-.116 11.376-.387 5.015-.36 9.541-2.248 13.73-4.966 1.463-.949 2.721-2.127 3.548-3.699 1.11-2.11.79-3.746-1.041-5.274-1.525-1.272-3.353-1.711-5.622-1.826.547-.603.898-1.02 1.28-1.407 4.963-5.027 7.993-10.976 8.542-18.077.178-2.31-.445-4.445-1.793-6.353-2.116-2.996-5.005-3.884-8.399-2.485-2.513 1.036-4.635 2.666-6.467 4.654-1.274 1.382-2.466 2.839-3.952 4.561-.134-1.654-.112-2.996-.384-4.275-.265-1.25-.83-2.436-1.314-3.789.423-.696.922-1.498 1.403-2.31 2.05-3.459 3.503-7.129 3.743-11.185.071-1.199.054-2.428-.128-3.612-.499-3.254-2.799-4.717-5.984-3.906-.415.106-.819.252-1.381.427-.294-1.031.176-1.875.394-2.722 1.664-6.458 2.751-12.994 2.845-19.682.049-3.53-.778-6.851-2.218-10.026-.455-1.004-1.073-1.998-1.832-2.789-1.875-1.952-4.394-2.053-6.534-.378-1.602 1.254-2.782 2.872-3.449 4.77-1.086 3.088-2.027 6.227-3.02 9.347-.126.395-.192.809-.385 1.641-.433-.709-.678-1.088-.902-1.481-1.448-2.545-2.798-5.152-4.365-7.621-1.256-1.98-2.976-3.596-4.99-4.828-2.757-1.688-5.13-1.519-7.663.483-2.278 1.8-3.506 4.236-4.061 7.021-.832 4.18-1.121 8.38-.211 12.596.091.42.14.852.17 1.281.01.142-.097.293-.212.608-.749-.635-1.439-1.256-2.167-1.83-4.032-3.181-7.589-2.736-10.665 1.37-.868 1.158-1.615 2.406-2.701 4.038 0-1.188-.081-1.898.013-2.585.71-5.179-.155-10.169-1.943-14.999-.587-1.586-1.525-3.11-2.586-4.435-1.676-2.091-3.849-2.561-6.271-1.393-1.292.623-2.511 1.536-3.531 2.551-2.042 2.032-3.407 4.527-4.458 7.216-2.858 7.309-3.582 14.896-3.027 22.649.209 2.925.548 5.841.817 8.763.036.388.005.782.005 1.552-1.091-.856-1.887-1.483-2.685-2.105-1.732-1.349-3.638-2.313-5.841-2.597-3.345-.431-5.906.797-7.672 3.667-1.022 1.661-1.46 3.499-1.508 5.426-.118 4.767.955 9.265 3.32 13.402 1.326 2.32 2.856 4.524 4.291 6.781.449.707.889 1.419 1.429 2.283-.961.095-1.653.105-2.319.24-2.536.513-4.164 2.292-4.106 4.9.042 1.87.296 3.807.877 5.575.64 1.945 1.586 3.846 2.707 5.566 4.756 7.294 6.391 15.367 6.312 23.921-.016 1.761-.392 3.419-1.073 5.024-.236.556-.516 1.094-.724 1.66-.678 1.841-.18 3.016 1.753 3.576 2.517.73 5.102.782 7.683.262.331-.067.654-.176 1.049-.284zm38.865-83.22c.146-.872.392-1.449.301-1.966-.266-1.526-.667-3.029-1.013-4.541-1.02-4.454-2.127-8.891-3.031-13.368-.782-3.872-.316-7.752.577-11.557.538-2.291 1.583-4.325 3.841-5.557 1.522 1.657 2.505 3.453 3.173 5.43 1.187 3.514 2.351 7.036 3.542 10.549.181.534.458 1.035.69 1.551.244-.62.209-1.134.056-1.611-1.526-4.762-3.081-9.514-4.599-14.278-.214-.673-.859-1.308-.351-2.206 2.572.639 4.181 2.476 5.646 4.369 2.773 3.584 4.954 7.508 5.699 12.051.474 2.889.761 5.808 1.13 8.714.098.769.124 1.554.304 2.304.102.425.446.792.957 1.645.367-1.092.691-1.687.749-2.306.121-1.286.176-2.589.126-3.879-.278-7.218 1.401-14.05 4.152-20.641.548-1.313 1.577-2.444 2.492-3.571.3-.37.944-.461 1.65-.778 0 4.2.059 8.078-.013 11.953-.139 7.554-2.111 14.795-3.854 22.084 1.577-3.33 2.41-6.893 3.172-10.455.794-3.71 1.498-7.449 2.002-11.208.487-3.633.669-7.307 1.001-11.158.888.529 1.115 1.366 1.464 2.108 1.904 4.05 2.054 8.315 1.65 12.677a97.36 97.36 0 0 1-3.139 17.035c-.759 2.743-1.402 5.518-2.075 8.284-.16.66-.381 1.387.652 1.829.295-.325.708-.641.932-1.057.449-.833.808-1.717 1.182-2.589a5.883 5.883 0 0 1 2.996-3.092c1.822-.848 3.298-.112 3.651 1.866.195 1.09.213 2.241.119 3.349-.336 3.957-1.784 7.543-3.931 10.844-5.3 8.151-12.387 14.304-21.004 18.76-6.744 3.488-13.445 7.061-20.175 10.576-7.891 4.121-14.252 9.986-19.423 17.163-4.47 6.203-8.117 12.84-10.018 20.316-.239.942-.674 1.64-1.62 1.783-2.288.348-4.566.37-6.735-.401.415-1.677.855-3.077 1.099-4.51.942-5.533.43-11.015-.773-16.449-.963-4.347-2.891-8.292-5.155-12.094-1.417-2.379-2.679-4.838-3.111-7.622-.065-.417.022-.857.054-1.673l3.416 4.479c-.117-2.74-2.244-4.601-2.751-7.26 1.92-.906 3.612-.668 5.113.253 1.228.754 2.281 1.815 3.343 2.812 1.632 1.532 3.189 3.143 4.819 4.677.296.279.788.349 1.465.63-1.002-2.488-2.473-4.189-3.914-5.9-4.016-4.764-7.591-9.836-10.799-15.176-2.096-3.489-3.137-7.293-3.38-11.301-.127-2.107.045-4.252 1.539-6.008 1.438 3.05 2.735 6.041 4.24 8.924 1.492 2.859 3.194 5.608 4.804 8.405l.509-.238c-2.907-6.151-6.993-11.888-7.115-19.092 2.188-.745 4.052-.065 5.747 1.009 1.376.872 2.567 2.03 3.872 3.018 2.146 1.625 3.419 3.74 4.203 6.331 1.073 3.546 2.429 7.008 3.735 10.48.589 1.567 1.357 3.064 2.704 4.188-.129-1.235-.412-2.391-.759-3.527a895.79 895.79 0 0 0-3.226-10.38c-2.76-8.649-3.74-17.517-3.456-26.57.168-5.336 1.359-10.423 3.289-15.362a17.278 17.278 0 0 1 3.967-6.011c.756-.751 1.525-1.592 2.809-1.574-2.464 13.713-2.89 21.539-1.449 25.544.242-4.187.315-8.485.785-12.739.471-4.255 1.309-8.475 3.08-12.587 1.397.918 2.01 2.066 2.478 3.255 1.432 3.637 2.519 7.388 2.361 11.331a697.288 697.288 0 0 1-1.062 19.387c-.315 4.636.204 9.135 1.735 13.51.382 1.092.741 2.272 2.081 2.908.024-.516.093-.861.045-1.188-.177-1.194-.358-2.39-.602-3.572-1.44-6.998-1.177-13.895 1.139-20.688.874-2.564 2.195-4.878 3.854-6.996.544-.694 1.096-1.565 2.524-1.277 0 .967.068 1.908-.013 2.835-.233 2.663-.537 5.319-.793 7.98-.233 2.419-.401 4.84.084 7.272.501-3.055.895-6.119 1.058-9.195.168-3.17.359-6.313 1.483-9.657 1.097.711 2.078 1.232 2.924 1.92 1.565 1.273 2.723 2.904 3.509 4.75 1.285 3.014 2.462 6.075 3.727 9.098.349.83.46 1.847 1.839 2.629zm31.137 17.887c.86 1.362 1.102 2.522 1.038 3.743-.067 1.291-.235 2.578-.293 3.869-.043.963-.716 2.229.599 2.734 1.13.434 1.582-.776 2.179-1.459 1.931-2.207 3.704-4.573 5.804-6.604 1.525-1.476 3.391-2.659 5.254-3.707 1.452-.816 3.117-1.006 4.719.444-.487 1.943-.845 3.985-1.527 5.913-.673 1.904-1.674 3.693-2.531 5.532 2.905-2.4 3.279-6.341 5.893-9.011 1.153 2.026.979 4.127.518 6.111-1.503 6.471-4.29 12.198-10.047 16.03-.933.621-1.89 1.21-2.785 1.882-.276.208-.38.644-.599 1.041.986.743 1.953.556 2.87.558 1.208.003 2.421-.128 3.623-.053 1.449.091 2.918.271 3.891 1.608-2.827 2.381-5.457 3.87-9.357 4.939-3.073.842-6.214 1.434-9.32 2.158-.431.1-.834.319-1.251.483 6.617.538 12.472-2.344 18.657-3.77-2.739 2.39-5.898 3.887-9.329 4.853-3.787 1.066-7.671 1.054-11.561 1.103-6.384.08-12.784.015-19.147.447-13.328.905-24.297 6.697-32.978 16.81-1.739 2.026-3.306 4.203-4.905 6.345-1.548 2.074-4.129 3.055-6.353 2.334-1.536-.498-1.787-.963-1.212-2.483 2.953-7.807 6.899-15.07 12.184-21.544 4.29-5.255 9.239-9.807 15.26-13.047 6.762-3.638 13.542-7.245 20.365-10.769 7.458-3.852 14.033-8.776 19.313-15.35.269-.325.567-.627 1.028-1.14z" data-color="1"/><path d="M128.472 78.27c-1.38-.782-1.49-1.799-1.839-2.633-1.265-3.023-2.442-6.084-3.727-9.098-.787-1.846-1.944-3.478-3.509-4.75-.846-.688-1.827-1.209-2.924-1.92-1.125 3.344-1.315 6.487-1.483 9.657-.163 3.076-.557 6.14-1.058 9.195-.484-2.431-.316-4.853-.084-7.272.256-2.661.56-5.318.793-7.98.081-.927.013-1.868.013-2.835-1.428-.288-1.98.583-2.524 1.277-1.659 2.118-2.98 4.432-3.854 6.996-2.316 6.793-2.578 13.69-1.139 20.688.243 1.182.424 2.378.602 3.572.049.327-.021.672-.045 1.188-1.34-.636-1.699-1.816-2.081-2.908-1.53-4.376-2.05-8.874-1.735-13.51.439-6.457.803-12.92 1.062-19.387.158-3.942-.929-7.694-2.361-11.331-.468-1.188-1.082-2.337-2.478-3.255-1.771 4.112-2.609 8.332-3.08 12.587-.471 4.254-.543 8.552-.785 12.739-1.441-4.005-1.015-11.83 1.449-25.544-1.284-.018-2.053.823-2.809 1.574a17.292 17.292 0 0 0-3.967 6.011c-1.929 4.939-3.121 10.026-3.289 15.362-.285 9.052.696 17.92 3.456 26.57a895.79 895.79 0 0 1 3.226 10.38c.348 1.136.63 2.292.759 3.527-1.347-1.124-2.115-2.621-2.704-4.188-1.306-3.472-2.661-6.934-3.735-10.48-.784-2.591-2.058-4.706-4.203-6.331-1.305-.989-2.496-2.147-3.872-3.018-1.696-1.074-3.559-1.754-5.747-1.009.121 7.204 4.208 12.942 7.115 19.092l-.509.238c-1.61-2.797-3.312-5.547-4.804-8.405-1.505-2.883-2.802-5.874-4.24-8.924-1.494 1.756-1.666 3.9-1.539 6.008.242 4.008 1.284 7.812 3.38 11.301 3.208 5.34 6.783 10.412 10.799 15.176 1.442 1.71 2.913 3.411 3.914 5.9-.677-.281-1.169-.351-1.465-.63-1.63-1.534-3.187-3.145-4.819-4.677-1.063-.997-2.115-2.059-3.343-2.812-1.501-.921-3.192-1.159-5.113-.253.508 2.659 2.634 4.52 2.751 7.26l-3.416-4.479c-.032.815-.118 1.256-.054 1.673.432 2.784 1.694 5.242 3.111 7.622 2.264 3.803 4.193 7.748 5.155 12.094 1.203 5.434 1.715 10.916.773 16.449-.244 1.433-.684 2.833-1.099 4.51 2.169.77 4.447.749 6.735.401.946-.144 1.38-.842 1.62-1.783 1.901-7.476 5.548-14.113 10.018-20.316 5.171-7.177 11.532-13.041 19.423-17.163 6.73-3.515 13.431-7.088 20.175-10.576 8.617-4.456 15.704-10.609 21.004-18.76 2.147-3.302 3.595-6.887 3.931-10.844.094-1.107.075-2.258-.119-3.349-.353-1.978-1.829-2.714-3.651-1.866a5.883 5.883 0 0 0-2.996 3.092c-.374.872-.732 1.756-1.182 2.589-.225.417-.637.732-.932 1.057-1.033-.443-.813-1.169-.652-1.829.673-2.766 1.316-5.541 2.075-8.284a97.452 97.452 0 0 0 3.139-17.035c.403-4.362.253-8.627-1.65-12.677-.349-.742-.576-1.579-1.464-2.108-.333 3.851-.514 7.525-1.001 11.158-.504 3.759-1.209 7.498-2.002 11.208-.762 3.563-1.595 7.125-3.172 10.455 1.743-7.29 3.715-14.531 3.854-22.084.071-3.876.013-7.754.013-11.953-.706.317-1.35.408-1.65.778-.916 1.127-1.945 2.259-2.492 3.571-2.75 6.592-4.429 13.423-4.152 20.641a29.381 29.381 0 0 1-.126 3.879c-.058.619-.382 1.214-.749 2.306-.51-.853-.855-1.22-.957-1.645-.179-.749-.206-1.534-.304-2.304-.369-2.906-.656-5.825-1.13-8.714-.746-4.544-2.926-8.467-5.699-12.051-1.464-1.893-3.073-3.73-5.646-4.369-.508.898.137 1.533.351 2.206 1.519 4.764 3.074 9.516 4.599 14.278.153.477.188.992-.056 1.611-.232-.516-.509-1.017-.69-1.551-1.191-3.513-2.355-7.035-3.542-10.549-.668-1.976-1.651-3.772-3.173-5.43-2.259 1.232-3.303 3.266-3.841 5.557-.893 3.805-1.359 7.685-.577 11.557.904 4.478 2.011 8.914 3.031 13.368.346 1.512.747 3.015 1.013 4.541.091.522-.155 1.098-.301 1.97zm9.549 2.373c0-4.708 0-9.416.004-14.124 0-.08.057-.16.088-.24l.212.081c.871 3.079.849 9.648-.304 14.283zm-21.959 16.368c-1.804-4.906-1.783-10.052-2.48-15.547.448.527.632.642.651.78.652 4.674 1.29 9.349 1.918 14.026.031.239-.057.494-.089.741z" fill="#FFBF23" data-color="3"/><path d="M159.609 96.157c-.461.513-.76.815-1.024 1.143-5.281 6.574-11.856 11.498-19.313 15.35-6.822 3.524-13.602 7.131-20.365 10.769-6.021 3.239-10.97 7.792-15.26 13.047-5.286 6.474-9.231 13.737-12.184 21.544-.575 1.521-.324 1.985 1.212 2.483 2.224.721 4.805-.26 6.353-2.334 1.599-2.142 3.166-4.319 4.905-6.345 8.681-10.113 19.65-15.904 32.978-16.81 6.363-.432 12.763-.367 19.147-.447 3.89-.049 7.774-.037 11.561-1.103 3.431-.966 6.59-2.464 9.329-4.853-6.186 1.427-12.041 4.308-18.657 3.77.416-.164.82-.383 1.251-.483 3.106-.724 6.247-1.316 9.32-2.158 3.9-1.069 6.53-2.558 9.357-4.939-.974-1.337-2.442-1.518-3.891-1.608-1.202-.075-2.415.056-3.623.053-.916-.002-1.884.184-2.87-.558.219-.397.323-.834.599-1.041.894-.673 1.852-1.261 2.785-1.882 5.757-3.832 8.544-9.559 10.047-16.03.461-1.984.635-4.085-.518-6.111-2.615 2.67-2.988 6.61-5.893 9.011.857-1.839 1.858-3.628 2.531-5.532.682-1.928 1.039-3.97 1.527-5.913-1.602-1.45-3.267-1.26-4.719-.444-1.864 1.047-3.729 2.231-5.254 3.707-2.099 2.031-3.873 4.397-5.804 6.604-.597.683-1.049 1.892-2.179 1.459-1.315-.505-.642-1.771-.599-2.734.058-1.291.226-2.578.293-3.869.06-1.223-.182-2.384-1.042-3.746zm12 14.342c-3.357 6.544-14.729 12.796-21.776 13.786 7.978-3.102 15.229-7.368 21.776-13.786z" fill="#FE393C" data-color="4"/><path d="M138.021 80.643c1.153-4.635 1.175-11.204.304-14.283a48.102 48.102 0 0 1-.212-.081c-.03.08-.088.16-.088.24-.005 4.708-.004 9.416-.004 14.124zM116.062 97.011c.032-.247.121-.502.089-.741a2653.43 2653.43 0 0 0-1.918-14.026c-.019-.138-.203-.253-.651-.78.697 5.495.675 10.641 2.48 15.547zM171.609 110.499c-6.547 6.417-13.798 10.684-21.776 13.786 7.047-.99 18.419-7.241 21.776-13.786zM47.878 135.121c-.317-.535-.616-1.083-.955-1.604-3.809-5.849-7.359-11.837-9.945-18.35-2.385-6.006-4.391-12.113-5.162-18.566-.469-3.924-.784-7.859-.544-11.81.193-3.175.922-6.239 2.336-9.111 1.246-2.531 3.276-3.842 6.107-3.969 1.82-.081 3.361.454 4.615 1.789 1.638 1.743 2.957 3.71 3.869 5.912 1.282 3.096 2.458 6.235 3.689 9.352.181.457.412.895.8 1.728.399-2.142.636-3.871 1.054-5.556.695-2.804 1.388-5.618 2.297-8.356 1.198-3.608 3.699-6.154 7.092-7.828 3.45-1.702 6.904-1.35 10.291.139 1.538.676 2.612 1.965 3.555 3.339 1.882 2.743 3.113 5.773 3.99 8.966 1.545 5.626 2.036 11.38 2.059 17.184.031 7.634-.382 15.246-1.08 22.851-.444 4.843-.665 9.711-.834 14.573-.135 3.889.277 7.739 1.364 11.511 1.07 3.713 2.699 7.118 5.072 10.17.564.725 1.151 1.453 1.574 2.261.831 1.587.288 2.824-1.48 3.298-1.069.287-2.199.483-3.302.48-2.563-.006-5.125-.188-7.689-.242-2.624-.055-5.25-.103-7.873-.044-5.652.127-11.307.542-16.954.443a94.893 94.893 0 0 1-24.129-3.537c-3.5-.986-6.575-2.622-8.942-5.462-1.827-2.191-2.093-4.423-.655-6.912.551-.954 1.255-1.82 1.837-2.652-.909-1.244-1.84-2.431-2.675-3.682-1.182-1.773-1.293-3.667-.49-5.643 1.032-2.539 2.955-4.147 5.398-5.189 2.387-1.017 4.89-1.534 7.494-1.444 5.158.18 9.969 1.604 14.469 4.104 1.187.66 2.35 1.364 3.524 2.048a9.46 9.46 0 0 0 .223-.191zM79.67 158.81l-.421.411c-.462-.324-.975-.595-1.378-.981-1.566-1.5-3.2-2.947-4.624-4.575C63 141.958 56.596 128.387 53.705 113.124c-1.095-5.781-1.326-11.618-1.295-17.48.004-.841-.003-1.752-.303-2.513-1.756-4.463-3.501-8.936-5.466-13.308-.795-1.768-2.074-3.339-3.252-4.909-.881-1.173-2.167-1.594-3.665-1.527-2.191.098-3.739 1.107-4.716 3.029a20.627 20.627 0 0 0-2.217 8.327 61.95 61.95 0 0 0 2.235 20.102c2.668 9.519 7.02 18.239 12.354 26.534 7.082 11.014 15.701 20.562 26.173 28.448 1.504 1.133 2.995 1.766 4.871 1.677 1.176-.056 2.362.153 3.545.168 1.181.015 2.365-.03 3.543-.112.696-.049 1.397-.189 1.989-.846-.427-.593-.784-1.136-1.188-1.642-4.52-5.651-6.628-12.181-7.006-19.325-.293-5.532.151-11.051.656-16.546.697-7.598 1.398-15.191 1.627-22.82.152-5.073-.055-10.128-1.022-15.124-.766-3.958-1.864-7.792-4.192-11.179-1.55-2.255-3.432-3.858-6.251-4.38-2.822-.522-5.344-.128-7.683 1.518-2.102 1.479-3.628 3.414-4.6 5.787-1.48 3.614-2.219 7.424-2.902 11.243-.992 5.544-.93 11.127-.477 16.714.817 10.064 3.342 19.679 7.73 28.782 4.051 8.404 9.043 16.177 15.563 22.91.668.69 1.277 1.437 1.914 2.158zm-6.448 2.369c-.576-.47-.91-.76-1.261-1.026-1.152-.872-2.364-1.674-3.457-2.615-2.461-2.118-5.197-3.807-8.094-5.22-3.362-1.64-6.737-3.276-10.202-4.678-4.821-1.951-9.79-3.437-15.041-3.717-4.114-.219-8.126.253-12.01 1.694-2.301.853-3.607 2.545-4.186 4.848-.36 1.429-.039 2.715.949 3.851 1.049 1.208 2.221 2.278 3.694 2.89 1.691.702 3.412 1.402 5.187 1.818 4.151.975 8.304 1.997 12.589 2.248 4.72.276 9.441.759 14.162.766 5.58.008 11.16-.396 16.74-.628.183-.006.364-.087.93-.231zm-13.923-11.312.203-.261c-.105-.161-.194-.336-.317-.482-2.587-3.056-5.168-6.118-7.778-9.154-.464-.54-.999-1.063-1.599-1.435-2.341-1.452-4.656-2.969-7.102-4.225-4.691-2.409-9.683-3.712-15.003-3.298-2.793.217-5.471.944-7.574 2.927-2.579 2.431-3.394 5.946-.177 8.722.149.129.308.254.426.409.741.97 1.565 1.072 2.743.653 4.858-1.726 9.875-2.032 14.957-1.308 6.37.908 12.314 3.134 18.067 5.933 1.051.51 2.103 1.012 3.154 1.519z" data-color="1"/><path d="M79.67 158.81c-.637-.72-1.246-1.467-1.915-2.157-6.521-6.732-11.512-14.506-15.563-22.91-4.388-9.103-6.913-18.717-7.73-28.782-.454-5.587-.515-11.17.477-16.714.683-3.818 1.422-7.628 2.902-11.243.972-2.373 2.498-4.308 4.6-5.787 2.339-1.646 4.862-2.04 7.683-1.518 2.82.521 4.701 2.125 6.251 4.38 2.329 3.387 3.426 7.222 4.192 11.179.967 4.996 1.174 10.052 1.022 15.124-.229 7.628-.93 15.222-1.627 22.82-.504 5.496-.949 11.014-.656 16.546.378 7.143 2.486 13.674 7.006 19.325.404.506.761 1.049 1.188 1.642-.592.657-1.293.798-1.989.846a43.178 43.178 0 0 1-3.543.112c-1.183-.015-2.369-.224-3.545-.168-1.875.089-3.366-.544-4.871-1.677-10.472-7.886-19.091-17.434-26.173-28.448-5.334-8.296-9.686-17.016-12.354-26.534a61.95 61.95 0 0 1-2.235-20.102 20.627 20.627 0 0 1 2.217-8.327c.977-1.923 2.525-2.931 4.716-3.029 1.498-.067 2.785.354 3.665 1.527 1.179 1.57 2.457 3.14 3.252 4.909 1.965 4.372 3.709 8.845 5.466 13.308.3.761.307 1.672.303 2.513-.031 5.862.2 11.699 1.295 17.48 2.892 15.264 9.296 28.834 19.542 40.541 1.425 1.628 3.058 3.074 4.624 4.575.403.386.916.657 1.378.981l.422-.412zm-19.044-43.614c-.184-.654-.262-1.258-.532-1.758-.144-.267-.649-.524-.939-.475-.266.044-.659.509-.652.78.017.632.18 1.28.401 1.879.177.478.679.692 1.13.445.278-.153.405-.58.592-.871zM35.778 94.834c1.339-.749 1.587-1.199 1.14-1.944-.119-.197-.404-.435-.591-.417-.282.026-.642.194-.798.419-.439.632-.135 1.225.249 1.942zm25.541 2c-.152-.141-.402-.541-.743-.647-.425-.131-.96.508-.834 1.055.084.361.418.782.751.936.385.178.815-.431.826-1.344zm-24.37-10.149c.727-.426.954-.953.471-1.61-.096-.131-.559-.186-.666-.082-.547.525-.628 1.094.195 1.692zm24.619 3.803c-.381-.136-.588-.274-.778-.254-.118.012-.327.325-.29.399.095.187.3.424.472.433.144.008.303-.279.596-.578zm-3.934 14.264c-.229.343-.466.542-.445.707.025.188.281.345.436.516.155-.168.41-.322.436-.508.023-.167-.207-.369-.427-.715zM73.222 161.179c-.566.145-.747.225-.931.233-5.58.232-11.16.636-16.74.628-4.721-.007-9.441-.49-14.162-.766-4.284-.251-8.437-1.273-12.589-2.248-1.775-.417-3.496-1.116-5.187-1.818-1.473-.612-2.645-1.682-3.694-2.89-.987-1.137-1.308-2.423-.949-3.851.58-2.303 1.885-3.995 4.186-4.848 3.884-1.44 7.896-1.913 12.01-1.694 5.25.28 10.22 1.765 15.041 3.717 3.465 1.402 6.84 3.038 10.202 4.678 2.897 1.413 5.633 3.102 8.094 5.22 1.093.941 2.304 1.743 3.457 2.615.352.264.685.554 1.262 1.024zm-28.581-13.761c-.313.328-.613.509-.698.762-.137.407.386.999.791.868.284-.092.652-.495.646-.751-.007-.265-.418-.521-.739-.879zm-19.918 2.261c.348-.414.742-.68.74-.943-.002-.24-.399-.611-.683-.683-.449-.114-1.002.078-.947.629.031.316.505.589.89.997zm10.28-2.892c.245-.259.509-.414.537-.603.023-.158-.298-.528-.349-.508-.254.101-.469.3-.697.464l.509.647zm15.038 5.469c-.294-.227-.544-.518-.638-.474-.221.104-.367.366-.543.564.186.13.37.357.559.361.169.005.344-.236.622-.451z" fill="#0ACB8B" data-color="2"/><path d="M59.299 149.867c-1.051-.506-2.103-1.009-3.151-1.519-5.753-2.799-11.697-5.025-18.067-5.933-5.082-.724-10.099-.418-14.957 1.308-1.179.419-2.002.318-2.743-.653-.118-.155-.277-.28-.426-.409-3.217-2.776-2.402-6.292.177-8.722 2.103-1.982 4.781-2.709 7.574-2.927 5.32-.414 10.312.89 15.003 3.298 2.446 1.256 4.761 2.773 7.102 4.225.6.372 1.135.895 1.599 1.435 2.61 3.036 5.191 6.098 7.778 9.154.123.146.212.32.317.482-.07.087-.138.174-.206.261zm-34.867-13.942c.347-.061.781-.033 1.083-.22.276-.171.577-.586.557-.871-.02-.28-.394-.704-.677-.764-.778-.165-1.534.015-2.087.66a.653.653 0 0 0 .328 1.069c.244.071.504.083.796.126zm14.588.472c.519.308.915.631 1.368.77.194.06.64-.209.726-.426.087-.22-.04-.697-.23-.822-.559-.368-1.189-.569-1.864.478zm-5.05-3.041c-.352-.31-.538-.576-.782-.65-.138-.042-.371.23-.562.361.183.229.329.52.565.658.108.064.392-.175.779-.369zm-3.173 3.787c.254-.299.511-.468.522-.651.011-.193-.215-.399-.337-.599-.219.179-.497.324-.628.553-.053.089.224.367.443.697z" fill="#0E8F6B" data-color="5"/><path d="M60.626 115.196c-.187.291-.314.718-.591.87-.451.247-.953.033-1.13-.445-.222-.598-.384-1.247-.401-1.879-.007-.27.386-.735.652-.78.29-.048.795.208.939.475.269.501.347 1.104.531 1.759zM35.778 94.834c-.384-.717-.688-1.31-.25-1.942.156-.226.516-.393.798-.419.187-.018.473.22.591.417.448.745.2 1.195-1.139 1.944zM61.319 96.834c-.011.913-.441 1.522-.826 1.344-.333-.154-.667-.575-.751-.936-.126-.547.409-1.186.834-1.055.341.106.591.506.743.647zM36.949 86.685c-.822-.598-.741-1.166-.195-1.692.108-.104.57-.049.666.082.482.656.255 1.183-.471 1.61zM61.568 90.488c-.292.299-.452.586-.596.578-.172-.009-.377-.246-.472-.433-.037-.073.173-.386.29-.399.19-.02.397.118.778.254zM57.634 104.752c.22.346.45.548.427.715-.025.186-.281.34-.436.508-.155-.171-.411-.328-.436-.516-.021-.165.216-.364.445-.707zM44.641 147.418c.321.357.733.614.739.879.006.256-.362.659-.646.751-.405.131-.928-.461-.791-.868.085-.253.385-.434.698-.762zM24.723 149.679c-.385-.409-.859-.681-.891-.997-.055-.551.498-.742.947-.629.284.072.682.443.683.683.003.263-.391.529-.739.943zM35.003 146.787l-.51-.647c.229-.164.444-.363.697-.464.051-.02.373.35.349.508-.027.189-.29.344-.536.603zM50.041 152.256c-.278.214-.453.455-.622.451-.189-.004-.373-.231-.559-.361.176-.198.322-.461.543-.564.093-.043.344.247.638.474zM24.432 135.925c-.292-.044-.552-.055-.796-.125a.653.653 0 0 1-.328-1.069c.553-.645 1.31-.825 2.087-.66.283.06.657.484.677.764.02.285-.281.7-.557.871-.302.186-.737.159-1.083.219zM39.02 136.397c.675-1.047 1.306-.845 1.863-.478.19.125.317.602.23.822-.085.217-.532.485-.726.426-.452-.14-.848-.463-1.367-.77zM33.97 133.356c-.387.193-.671.432-.778.369-.236-.139-.382-.43-.565-.658.19-.131.424-.403.562-.361.243.075.429.34.781.65zM30.797 137.143c-.219-.33-.495-.608-.444-.697.132-.229.409-.374.628-.553.122.2.348.406.337.599-.01.183-.268.353-.521.651zM79.984 144.146c-.56-.231-1.071-.473-1.603-.654-.583-.199-1.176-.408-1.781-.499-2.756-.417-4.5.987-4.732 3.755-.129 1.538.201 2.972.935 4.322.212.39.414.786.702 1.334-.53-.057-.881-.071-1.223-.135-1.953-.37-3.697.172-5.248 1.31-2.153 1.581-2.459 3.976-.863 6.099 1.377 1.832 3.273 2.807 5.47 3.208 1.01.184 2.053.261 3.08.258 7.739-.022 15.477-.063 23.216-.133 1.077-.01 2.164-.14 3.226-.33 1.391-.249 2.155-.986 2.265-1.995.116-1.064-.667-2.309-1.882-2.744-.755-.271-1.585-.334-2.496-.512.25-.619.489-1.225.738-1.828.935-2.265.918-4.501-.096-6.752-1.188-2.639-3.102-3.669-5.965-3.13-.194.037-.396.03-.581.043-.167-1.421-.286-2.804-.508-4.17-.131-.808-.396-1.599-.655-2.379-.968-2.91-3.158-4.382-6.037-4.899-3.048-.547-5.879 1.597-6.103 4.679-.125 1.673.08 3.371.141 5.152zm1.442 2.673c.023-.236.083-.477.063-.711-.097-1.13-.27-2.257-.311-3.388-.046-1.284-.125-2.595.072-3.854.337-2.164 2.184-3.51 4.366-3.248 2.307.276 4.1 1.399 4.967 3.644.982 2.541 1.422 5.162.91 7.89-.098.524-.4 1.108.289 1.649.365-.329.733-.672 1.112-.999 1.65-1.424 3.908-1.134 5.072.709.97 1.536 1.408 3.242.979 5.036-.496 2.072-1.272 4.033-2.869 5.557-.163.155-.225.416-.348.655.719.556 1.208.165 1.727-.172 1.048-.681 2.203-.867 3.409-.58.719.171 1.289.856 1.228 1.417-.079.729-.721.797-1.253.948-.294.084-.611.097-.919.116-.824.05-1.649.121-2.473.123-7.172.023-14.344.048-21.516.032a36.887 36.887 0 0 1-4.317-.285c-1.772-.214-3.194-1.104-4.25-2.553-1.178-1.616-.914-3.104.77-4.221 1.307-.867 2.752-1.141 4.289-.856.607.112 1.202.288 1.799.45.473.128.91.138 1.367-.381-.297-.584-.639-1.206-.934-1.849-.451-.982-.933-1.956-1.284-2.974-.341-.99-.316-2.029.002-3.046.331-1.059 1.035-1.676 2.152-1.664 1.801.019 3.475.411 4.725 1.867.284.329.499.811 1.176.688z" data-color="1"/><path d="M81.426 146.819c-.676.123-.891-.359-1.176-.69-1.25-1.456-2.924-1.847-4.725-1.867-1.117-.012-1.821.605-2.152 1.664-.318 1.017-.342 2.056-.002 3.046.35 1.018.833 1.993 1.284 2.974.296.644.637 1.266.934 1.849-.457.52-.894.509-1.367.381-.597-.161-1.192-.337-1.799-.45-1.538-.285-2.982-.012-4.289.856-1.684 1.117-1.948 2.605-.77 4.221 1.056 1.449 2.478 2.339 4.25 2.553a36.67 36.67 0 0 0 4.317.285c7.172.015 14.344-.01 21.516-.032.825-.003 1.649-.073 2.473-.123.308-.019.626-.032.919-.116.532-.152 1.174-.219 1.253-.948.061-.561-.51-1.246-1.228-1.417-1.206-.287-2.361-.101-3.409.58-.519.337-1.008.728-1.727.172.122-.238.185-.499.348-.655 1.597-1.525 2.373-3.486 2.869-5.557.429-1.794-.009-3.5-.979-5.036-1.164-1.843-3.422-2.133-5.072-.709-.38.328-.747.67-1.112.999-.689-.541-.387-1.125-.289-1.649.512-2.727.072-5.349-.91-7.89-.868-2.245-2.661-3.368-4.967-3.644-2.182-.261-4.029 1.085-4.366 3.248-.196 1.259-.117 2.569-.072 3.854.04 1.132.214 2.258.311 3.388.02.236-.04.477-.063.713zm16.123 5.049c.448.725.409 1.355.179 1.97-.07.185-.363.407-.542.397-.186-.01-.492-.264-.512-.439-.084-.705-.031-1.402.875-1.928zm-9.35-12.104c.129-.163.218-.376.368-.435.156-.062.456-.047.544.058.248.296.479.637.596.999.052.162-.155.57-.295.595-.234.043-.592-.056-.746-.23-.219-.246-.302-.615-.467-.987zm-12.162 6.298c.446-.285.683-.557.896-.54.245.02.469.296.703.461-.183.205-.362.574-.549.578-.277.005-.559-.248-1.05-.499zm9.147-8.763c.284-.242.445-.494.629-.512.358-.035.757.124.725.547-.013.183-.384.464-.6.471-.212.007-.434-.277-.754-.506zm-16.745 21.264c.119-.109.364-.424.44-.388.29.14.543.377.762.62.036.04-.135.383-.27.437-.397.161-.849-.139-.932-.669zm27.862-9.899c.19.379.333.613.407.866.012.041-.368.281-.421.24-.173-.134-.337-.341-.386-.548-.026-.111.19-.279.4-.558zm-28.113 7.513c.198.211.406.334.41.463.004.137-.169.371-.296.394-.118.021-.364-.161-.39-.288-.028-.134.139-.307.276-.569zm17.949-16.757c.178.279.317.421.35.584.016.081-.194.301-.25.284-.158-.046-.379-.164-.407-.29-.028-.127.148-.298.307-.578z" fill="#0E8F6B" data-color="5"/><path d="M97.549 151.868c-.906.526-.958 1.223-.875 1.928.021.175.327.429.512.439.179.01.472-.212.542-.397.23-.615.269-1.245-.179-1.97zM88.199 139.764c.165.371.248.741.467.988.154.174.512.273.746.23.14-.026.347-.434.295-.595-.117-.362-.348-.703-.596-.999-.089-.106-.388-.12-.544-.058-.15.059-.238.272-.368.434zM76.037 146.062c.491.251.773.504 1.05.498.187-.004.366-.372.549-.578-.233-.165-.458-.441-.703-.461-.213-.016-.45.257-.896.541zM85.184 137.299c.32.23.542.513.754.506.216-.007.587-.289.6-.471.031-.424-.367-.582-.725-.547-.185.017-.346.27-.629.512zM68.439 158.563c.083.53.535.829.931.67.135-.054.306-.397.27-.437-.219-.244-.472-.48-.762-.62-.074-.037-.32.278-.439.387zM96.301 148.664c-.21.279-.426.447-.4.558.049.207.213.414.386.548.053.041.433-.199.421-.24-.074-.253-.217-.486-.407-.866zM68.188 156.177c-.137.262-.304.435-.276.568.026.127.273.309.39.288.126-.023.299-.256.296-.394-.003-.128-.211-.251-.41-.462zM86.137 139.42c-.16.28-.335.452-.307.578.028.126.249.244.407.29.057.017.267-.204.25-.284-.033-.164-.172-.305-.35-.584z" data-color="1"/></svg>