<svg data-bbox="20.808 16.932 158.385 166.139" viewBox="20.808 16.932 158.385 166.139" height="200" width="200" xmlns="http://www.w3.org/2000/svg" data-type="color" aria-hidden="true"><defs><style>#comp-kyjwpui9 svg [data-color=&quot;1&quot;]{fill:#000}#comp-kyjwpui9 svg [data-color=&quot;2&quot;]{fill:#07875d}#comp-kyjwpui9 svg [data-color=&quot;3&quot;]{fill:#0acb8b}#comp-kyjwpui9 svg [data-color=&quot;4&quot;]{fill:#ffbf23}</style></defs><path d="M38.109 111.993c-.352.417-.571.828-.702.801-.322-.066-.604-.332-.902-.517.151-.236.292-.66.456-.669.316-.018.646.199 1.148.385zM33.741 118.479c-.462.392-.749.825-1.014.811-.28-.015-.747-.451-.75-.707-.004-.291.381-.773.663-.826.254-.049.596.369 1.101.722zM147.905 113.944l-1.162-1.644 1.651-1.146c.326.472.959.991.896 1.404-.07.457-.776.816-1.385 1.386zM155.948 104.821c-.64.456-.928.79-1.268.856-.222.043-.52-.301-.784-.471.22-.32.379-.792.679-.913.241-.098.654.23 1.373.528z" data-color="1"/><path d="M164.242 60.098c.952 2.859 2.696 4.236 4.879 5.257 1.683.786 3.392 1.6 4.886 2.683 1.69 1.225 2.591 3.015 2.058 5.193-.492 2.01-2.135 2.623-3.931 3.023-7.331 1.632-13.649-.683-19.493-4.932-1.187-.863-2.449-1.622-4.269-2.82.216 2.243 1.209 3.156 2.21 3.803 2.76 1.784 5.601 3.453 8.478 5.043 1.63.901 3.415 1.515 5.092 2.335 2.134 1.043 4.128 2.338 4.22 5.019.092 2.678-2.037 3.659-4.205 4.732.117.605.196 1.239.365 1.848 2.025 7.297.43 13.782-4.716 19.235-2.936 3.11-6.273 5.842-9.441 8.733-.547.499-1.147.939-1.722 1.407l.23.672c.819.009 1.637.012 2.456.029 1.76.036 3.523.019 5.278.129 10.207.641 16.29 8.662 14.257 18.708-1.195 5.906-4.06 10.782-9.342 13.755-5.061 2.849-10.281 5.488-15.635 7.731-9.629 4.033-19.392 7.748-29.136 11.5-5.083 1.957-9.636 4.754-13.962 8.011-3.403 2.562-9.764 2.432-13.332.052-1.994-1.33-4.389-.822-6.617-.824-2.741-.003-5.56.669-8.205.221-3.856-.654-7.62-1.386-11.587-1.2-2.454.115-4.669-1.14-6.213-3.238-14.03-19.063-26.453-39.013-32.399-62.228-4.088-15.96-5.131-32.171-1.047-48.323 1.255-4.963 3.236-9.833 5.539-14.418 2.961-5.896 7.626-10.211 14.305-11.782 4.92-1.157 9.357-.117 13.236 3.205 3.747 3.21 6.44 7.1 8.136 11.946.207-.668.407-1.338.623-2.003 1.964-6.058 3.701-12.204 5.988-18.138 1.288-3.341 3.295-6.461 5.32-9.449 2.755-4.065 6.705-6.563 11.532-7.679 4.992-1.154 9.093.166 12.399 4.097 3.166 3.765 4.678 8.146 5.095 12.983.536 6.219-.427 12.285-1.799 18.312-.268 1.179-.639 2.338-.845 3.527-.106.611-.154 1.372.115 1.885a316.475 316.475 0 0 0 5.681 10.409c.578 1.009 1.47 1.838 2.318 2.872 2.239-1.403 2.61-3.358 2.118-5.287-.7-2.747-1.771-5.406-2.775-8.069-.812-2.154-1.926-4.207-2.589-6.402-.465-1.542-.624-3.261-.512-4.873.158-2.27 1.014-4.316 3.44-5.159 2.382-.827 4.409.033 5.955 1.754 1.153 1.283 2.069 2.837 2.836 4.396 1.066 2.166 1.854 4.466 2.835 6.676.863 1.943 2.086 3.56 4.319 4.228 1.137-1.649.964-3.287.682-4.903-.548-3.138-1.358-6.245-1.682-9.403-.22-2.141.085-4.364.373-6.521.275-2.068 1.646-3.329 3.686-3.715 1.632-.309 3.55.776 4.296 2.929.853 2.461 1.273 5.085 1.732 7.665.307 1.725.211 3.526.564 5.238.272 1.32.963 2.553 1.517 3.95 1.813-.725 1.825-2.019 2.078-3.134.657-2.894 1.099-5.848 1.946-8.684 1.515-5.072 4.689-8.619 9.996-10.003 3.605-.94 5.507.327 5.818 4.022.255 3.026-.443 5.9-1.466 8.714-.676 1.857-1.222 3.729-.85 6.286 1.329-.517 2.412-.861 3.427-1.346 3.57-1.706 7.077-3.55 10.69-5.155 1.582-.702 3.343-1.224 5.059-1.353 3.507-.263 5.639 2.671 4.208 5.901-.726 1.639-1.968 3.251-3.39 4.333-2.431 1.85-5.176 3.293-7.813 4.867-1.015.605-2.097 1.102-3.298 1.727zm-78.861-6.594c4.097-.535 13.004-3.83 15.572-5.825.617-.48 1.14-1.339 1.299-2.108.992-4.787 1.079-9.601.104-14.412-.603-2.976-1.967-5.569-3.884-7.912-2.562-3.131-5.756-4.187-9.699-3.293-4.395.996-7.999 3.259-10.416 7-2.137 3.308-4.166 6.764-5.661 10.395-5.108 12.4-7.534 25.479-9.095 38.73-.14 1.191.143 2.77.86 3.662 2.396 2.979 5.031 5.774 7.685 8.531.677.704 1.767 1.011 2.865 1.607.323-1.55.576-2.617.765-3.696 2.123-12.139 4.669-24.177 8.461-35.923 1.553-4.811 3.043-9.643 4.597-14.453.34-1.054.47-2.347 2.401-2.728-1.467 7.105-4.362 13.52-5.854 20.425zM69.217 176.839c-.829-5.906-1.433-11.676-2.473-17.366-4-21.886-6.542-43.904-6.484-66.183.002-.586-.16-1.173-.298-2.121-5.115 3.602-10.653 4.706-16.552 5.057.093 1.578.113 2.775.241 3.96 1.942 18.004 6.013 35.508 12.407 52.459 2.952 7.826 6.281 15.48 10.818 22.545.474.736.594 2.027 2.341 1.649zm-20.833-43.091c-4.786-17.555-7.533-35.07-7.61-52.674-6.425-2.172-11.721-5.252-15.821-10.714-.261.904-.411 1.29-.481 1.69-.188 1.082-.391 2.166-.503 3.257-1.861 18.19.846 35.715 7.616 52.665.578 1.447 1.409 2.344 2.843 2.935 4.309 1.779 8.767 2.733 13.956 2.841zm25.665-20.913c4.069-.285 7.054-2.025 10.035-3.898 1.613-1.014 2.436-2.277 2.865-4.131 1.63-7.053 3.294-14.104 5.189-21.09 2.182-8.045 4.629-16.019 6.942-24.029.34-1.176.574-2.383.946-3.947-5.839 2.297-10.897 5.082-17.055 5.136-4.156 17.026-7.473 34.087-8.922 51.959zM43.017 67.632c7.889-2.747 13.281-7.514 17.714-13.485-1.151-3.477-2.478-5.505-5.347-8.207-4.762-4.487-10.652-5.122-16.286-1.724-3.362 2.028-6.192 4.705-7.847 8.238-2.085 4.452-3.726 9.111-5.569 13.676-.504 1.248-.184 2.214.601 3.321 3.196 4.508 8.004 6.71 12.679 9.11.405.208 1.003.038 1.623.045.219-4.721.334-9.21.671-13.683.197-2.613.705-5.208 1.175-7.792.109-.598.633-1.119.967-1.676l.592.21-.973 11.967zm72.649 54.683c4.749 2.952 9.348 5.223 14.359 6.605 1.899.524 3.592.255 5.205-1.109 6.716-5.679 13.581-11.183 20.225-16.943 1.956-1.696 3.543-3.909 4.962-6.103.959-1.484 1.327-3.349 2.229-5.766-5.526 2.073-10.171 1.586-14.761-.411-.625-.272-1.73.027-2.382.432-4.665 2.9-9.376 5.746-13.869 8.9-5.77 4.052-11.044 8.711-15.968 14.395zm-26.515 55.679c9.361-19.305 24.73-33.172 41.12-46.598-6.02-1.648-11.121-4.081-15.71-7.531-.378.268-.688.408-.886.642-.852 1.004-1.713 2.005-2.498 3.062a193.4 193.4 0 0 0-20.462 34.499c-2.055 4.463-3.375 9.266-4.978 13.932-.189.549-.038 1.214-.047 1.955l3.461.039zm71.559-27.186c-3.556-1.155-6.752-1.926-9.714-3.23-3.085-1.358-5.944-3.23-8.969-4.914-9.848 3.807-27.108 14.402-31.169 19.233 2.129 2.192 4.372 4.2 7.199 5.565 1.516.732 2.814.741 4.363.129 8.058-3.183 16.19-6.18 24.216-9.438 3.751-1.523 7.337-3.458 10.963-5.274 1.019-.511 1.914-1.264 3.111-2.071zm-36.323-40.067c7.063-4.64 13.681-8.95 20.239-13.348.726-.487 1.479-1.427 1.596-2.246.64-4.49 2.799-8.284 5.132-12.026.433-.695.803-1.429 1.219-2.174-10.43-3.714-19.696-2.44-28.007 4.714-1.279 1.101-2.119 2.211-2.078 3.852.113 4.496.154 9.001.493 13.482.197 2.59.916 5.141 1.406 7.746zm-63.27-55.015c-.887 1.157-1.513 2.038-2.204 2.865-3.657 4.378-8.02 7.847-13.421 9.779-2.324.831-2.752.561-2.739 3.663.027 6.813.173 13.625.301 20.437.012.614.245 1.223.416 2.028 5.275-.321 10.071-1.563 14.554-4.113 1.686-.959 2.409-2.109 2.566-4.118.531-6.787 1.101-13.589 2.133-20.312.543-3.534.335-6.691-1.606-10.229zm21.951 122.266c-1.359-22.771-1.399-45.242 2.707-67.948-2.218 1.127-3.904 2.147-5.712 2.856-1.923.753-3.962 1.21-6.211 1.873-1.318 21.385.691 42.483 5.295 63.37.517.099.833.227 1.137.204.759-.059 1.513-.187 2.784-.355zm37.487-88.375c-8.572 6.843-15.59 14.755-20.421 24.434-.485.972-.659 2.399-.344 3.419 1.23 3.969 2.672 7.876 4.137 11.768.36.956 1.107 1.767 1.952 3.071 4.931-7.869 10.957-14.192 17.502-20.105-2.463-7.419-2.871-14.918-2.826-22.587zm-56.952-8.195-.721.194c-.177 5.02-.661 10.051-.468 15.056.431 11.183 1.167 22.355 1.85 33.527.214 3.501 3.95 7.305 7.871 8.113-.729-15.647.251-31.17 2.677-46.665-5.011-2.24-8.038-6.311-11.209-10.225zm55.359 71.243c.444-.084.689-.066.86-.171 8.342-5.117 16.959-9.673 26.243-12.867 1.356-.467 2.132-1.368 2.55-2.755 1.231-4.086 3.674-7.443 6.53-10.54.462-.501.802-1.116 1.351-1.895-3.768-.042-7.143-.186-10.508-.058-1.126.043-2.409.545-3.309 1.24a1694.296 1694.296 0 0 0-21.482 16.875c-.815.65-1.633 1.596-1.909 2.559-.69 2.41-1.225 4.903-.326 7.612zM98.438 118.57c-.457.28-.709.349-.806.511-.282.469-.51.972-.744 1.468-4.615 9.791-7.913 20.008-9.786 30.668-.986 5.616-2.355 11.2-1.922 16.978.051.68.263 1.348.522 2.613 4.763-13.629 11.892-25.332 18.991-37.086-3.664-4.473-4.653-9.837-6.255-15.152zM66.57 177.065c-7.276-10.546-11.288-22.033-15.275-33.333l-12.792-.991c.58 1.161.988 2.171 1.555 3.082 5.798 9.309 11.727 18.538 17.387 27.93 2.148 3.567 5.019 4.066 9.125 3.312zm41.816-86.282c3.437-3.753 6.338-7.187 9.544-10.31 1.656-1.613 2.329-3.321 2.401-5.508.19-5.758-1.491-11.034-3.888-16.172-1.716-3.679-3.298-7.421-4.903-11.15-.446-1.037-.762-2.131-1.227-3.451-1.842 1.758-1.937 3.626-1.339 5.415.795 2.379 1.97 4.628 2.893 6.967 1.242 3.146 2.583 6.272 3.528 9.51.64 2.193-.144 4.349-1.617 6.149-1.353 1.653-2.457 1.894-4.286.75-.816-.51-1.61-1.217-2.123-2.02-1.474-2.306-2.797-4.707-4.183-7.069-.421-.717-.854-1.428-1.414-2.363-.971 1.839-1.141 3.331-.423 4.973.923 2.11 1.701 4.283 2.545 6.428 2.205 5.611 4.602 11.171 4.492 17.851zm35.588 51.295c1.585.91 2.869 1.701 4.2 2.401 3.916 2.061 8.014 3.536 12.444 4.105 2.311.297 3.741-.608 4.84-2.516 1.624-2.818 2.694-5.84 2.752-9.062.074-4.089-1.163-7.716-4.592-10.219-3.854 2.187-6.592 5.236-8.185 8.988 2.244.94 4.772-1.252 7.585.799-6.72 1.465-13.133 1.957-19.044 5.504zM132.226 68.29c2.642-1.698 4.82-3.364 7.225-4.584 4.087-2.074 6.152-5.468 7.14-9.731 1.549-6.685 2.481-13.538 5.822-20.121-3.445.725-5.724 2.383-7.015 5.025-1.044 2.138-1.686 4.502-2.277 6.824-.621 2.44-.882 4.97-1.468 7.42-.341 1.426-1.151 2.652-2.831 2.841-1.69.191-2.829-.841-3.355-2.171-.753-1.906-1.247-3.945-1.603-5.97-.511-2.911-.716-5.876-1.219-8.788-.21-1.216-.632-2.551-2.813-2.891.76 3.934 1.339 7.602 2.193 11.205 1.416 5.973 1.703 11.938.485 17.968-.165.821-.165 1.675-.284 2.973zm-20.367-24.647c.622 1.696.977 2.828 1.445 3.912a811.163 811.163 0 0 0 4.646 10.552c1.808 4.026 3.364 8.125 3.713 12.572.141 1.8.165 3.608.261 5.853 2.657-2.142 5.012-3.907 7.189-5.868.762-.687 1.399-1.809 1.557-2.817.611-3.894 1.705-7.891 1.324-11.72-.626-6.289-2.262-12.477-3.607-19.408-1.466 3.143-1.276 5.662-.881 8.152.326 2.056.995 4.059 1.308 6.116.345 2.266.786 4.595.595 6.847-.3 3.519-2.529 4.397-5.542 2.484-2.03-1.289-3.28-3.199-4.184-5.373-1.012-2.433-1.95-4.901-3.06-7.289-.828-1.782-1.879-3.462-4.764-4.013zM77.77 178.224c-3.237-12.355-4.708-24.97-5.526-37.289l-7.389-4.823c.646 4.344 1.138 8.254 1.824 12.13 1.549 8.754 3.093 17.511 4.845 26.225.832 4.142 1.62 4.461 6.246 3.757zm92.709-104.196c-5.966-3.133-11.643-6.141-17.352-9.087a18.81 18.81 0 0 0-3.68-1.413c-2.834-.768-5.598-.854-8.224.887-2.739 1.816-5.597 3.454-8.366 5.227-.674.432-1.203 1.091-1.799 1.645 3.183 1.268 6.183 2.327 9.065 3.642 4.16 1.898 8.658 2.126 13.044 2.922.063.011.181-.278.329-.518-.713-.477-1.523-.862-2.13-1.454-1.633-1.594-3.335-3.162-4.679-4.984-.475-.644-.375-2.335.156-2.925.542-.603 2.026-.776 2.933-.53 1.224.332 2.264 1.295 3.43 1.897 2.817 1.454 5.585 3.042 8.515 4.223 2.738 1.103 5.672.987 8.758.468zm2.668-1.515.569-.998c-.817-.793-1.539-1.73-2.474-2.34-1.091-.711-2.354-1.17-3.569-1.676-2.564-1.069-4.359-2.92-5.548-5.383-.945-1.957-.771-3.024.978-4.286 1.139-.822 2.537-1.275 3.766-1.985 2.93-1.694 5.858-3.394 8.712-5.21.569-.362.805-1.248 1.419-2.263-5.408 2.378-10.183 4.591-15.048 6.584-4.813 1.972-9.661 3.836-14.108 6.337 3.618 1.692 7.01 3.214 10.344 4.856 2.954 1.455 5.781 3.183 8.784 4.52 1.947.865 4.109 1.245 6.175 1.844zm3.539-26.331c-1.903-1.473-3.498-.621-4.928-.016-3.13 1.325-6.177 2.847-9.24 4.325-1.482.715-2.877 1.625-4.393 2.25-3.453 1.423-5.489-.038-5.05-3.691.22-1.833.909-3.605 1.308-5.422.492-2.239.99-4.484 1.312-6.75.16-1.128.037-2.356-1.404-3.338-.926 1.986-2.028 3.671-2.516 5.517-1.775 6.715-3.344 13.485-5.156 20.907 9.866-5.561 20.815-7.486 30.067-13.782zm-59.561 100.061c-1.04.925-1.524 1.346-1.999 1.778-8.494 7.733-15.45 16.747-21.762 26.282-.771 1.165-1.3 2.541-1.684 3.892-.273.959-.122 2.047 1.542 1.943 1.087-1.785 2.149-3.684 3.358-5.485 5.063-7.543 11.172-14.084 18.776-19.125 1.434-.951 2.175-1.84 1.777-3.725-.328-1.554-.034-3.24-.008-5.56zM93.067 91.627c1.656 1.707 3.346 3.006 4.442 4.691 1.36 2.092 1.062 4.517-.387 6.518-1.361 1.88-3.41 1.672-5.418 1.13-.504-.136-1.028-.199-1.775-.339-.412 1.954-.889 3.754-1.133 5.584-.107.803.051 1.793.454 2.486 1.414 2.433 2.987 4.775 4.637 7.367 2.352-5.105 4.749-10.039 6.867-15.089.548-1.306.497-3.03.239-4.476-.741-4.162-3.517-6.956-6.842-9.277-.142-.099-.41-.017-.774-.021l-.31 1.426zm1.746 88.637c2.286.165 3.823.388 5.072-.826 3.785-3.679 8.463-5.86 13.204-7.946 1.338-.589 2.649-1.238 3.956-1.852l-7.888-6.669c-5.384 4.97-9.895 10.67-14.344 17.293zm7.879-80.706c3.755-3.786 4.946-8.042 4.027-12.844-.451-2.358-1.157-4.691-1.992-6.945-1.144-3.083-2.507-6.085-3.81-9.108-.278-.644-.702-1.226-1.129-1.955-1.292 2.117-1.09 3.874.011 5.736 1.633 2.761 2.635 5.766 3.02 8.981.506 4.222-1.544 6.048-5.613 4.868-.922-.268-1.809-.656-2.712-.989 4.036 3.253 6.905 7.101 8.198 12.256zM88.08 114.831c-2.374 11.049-2.856 22.205-3.185 33.396.458-.771.731-1.574.95-2.392 1.579-5.915 2.986-11.882 4.769-17.735 1.502-4.93.299-9.176-2.534-13.269zm-54.201 17.775c.063.721.024.963.109 1.148 3.442 7.538 1.888 6.349 10.164 7.5 1.972.274 4.043.418 6.199-.279-.342-1.335-.639-2.37-.867-3.42-.272-1.252-1.057-1.92-2.287-1.926-4.531-.021-8.788-1.306-13.318-3.023zm126.989-42.769c-1.16-3.694-3.094-6.501-6.534-8.128-3.857 5.077-6.006 9.901-5.919 13l12.453-4.872zm-33.68-8.451c-4.9-2.08-6.153-1.869-9.028 1.063-1.686 1.719-3.265 3.544-4.852 5.355-.655.748-1.207 1.586-1.997 2.637 3.534-.006 5.966-1.012 8.079-3.202 1.814-1.879 3.995-3.41 6.059-5.038.488-.387 1.154-.55 1.739-.815zM83.851 59.428a59.628 59.628 0 0 0 15.903-5.88c1.505-.812 1.666-2.303 1.454-3.66-4.749 1.756-9.297 3.648-13.985 5.08-2.224.677-3.435 1.606-3.372 4.46zm54.775 16.558.144-.533c-2.691-.814-5.363-1.703-8.085-2.395-.772-.196-1.862-.082-2.508.344-1.878 1.238-3.689 2.62-5.042 4.597 1.935.414 3.627.822 5.338 1.116a3.895 3.895 0 0 0 1.846-.151c2.783-.955 5.541-1.979 8.307-2.978zm10.594 21.071c4.876 1.396 9.012 1.807 13.33-.586a8578.33 8578.33 0 0 1-.872-4.535c-4.322 1.343-8.363 2.443-12.458 5.121zM97.665 75.018l-2.881 9.391c1.279.666 2.185 1.274 3.18 1.63 2.353.841 3.315.129 3.166-2.339-.18-2.993-1.333-5.637-3.465-8.682zm63.879 50.984-.213-.763c-1.006-.011-2.392-.457-2.957.037-3.647 3.185-6.556 6.941-8.094 11.858 1.527.156 2.324-.442 2.929-1.452 2.215-3.698 4.857-7.04 8.335-9.68zm-60.378-19.118 12.62-15.091c-2.256.679-4.262.975-5.489 2.671-2.756 3.808-5.232 7.794-7.131 12.42zM92.257 94.48l-1.642 6.478c1.159.504 1.999 1.016 2.91 1.235 1.956.472 2.876-.316 2.845-2.367-.039-2.586-1.538-4.132-4.113-5.346zm72.985-10.313c-1.548-2.221-4.536-3.833-7.98-4.353 2.228 2.032 4.113 4.654 7.98 4.353z" data-color="1"/><path d="M69.217 176.839c-1.747.379-1.867-.912-2.34-1.649-4.538-7.065-7.866-14.718-10.818-22.545-6.394-16.95-10.465-34.454-12.407-52.459-.128-1.185-.148-2.382-.241-3.96 5.899-.352 11.438-1.456 16.552-5.057.138.948.299 1.535.298 2.121-.058 22.279 2.484 44.297 6.484 66.183 1.039 5.69 1.643 11.459 2.472 17.366z" fill="#0E8F6B" data-color="2"/><path d="M48.384 133.748c-5.189-.108-9.647-1.062-13.956-2.84-1.434-.592-2.265-1.489-2.843-2.935-6.77-16.95-9.477-34.475-7.616-52.665.112-1.092.315-2.175.503-3.257.07-.4.22-.786.481-1.69 4.1 5.463 9.396 8.542 15.821 10.714.077 17.603 2.824 35.118 7.61 52.673zm-10.275-21.755c-.503-.186-.832-.402-1.148-.385-.164.009-.305.433-.456.669.298.185.58.452.902.517.131.027.35-.384.702-.801zm-4.368 6.486c-.504-.353-.847-.771-1.101-.723-.282.053-.667.535-.663.826.003.257.47.693.75.707.264.015.552-.417 1.014-.81z" fill="#0E8F6B" data-color="2"/><path d="m43.017 67.632.972-11.965-.592-.21c-.333.557-.858 1.079-.967 1.676-.47 2.584-.978 5.179-1.175 7.792-.337 4.472-.452 8.961-.671 13.683-.62-.007-1.218.163-1.623-.045-4.676-2.4-9.483-4.602-12.679-9.11-.785-1.108-1.105-2.074-.601-3.321 1.843-4.566 3.484-9.225 5.569-13.676 1.655-3.533 4.484-6.21 7.847-8.238 5.635-3.398 11.524-2.763 16.286 1.724 2.868 2.702 4.196 4.73 5.347 8.207-4.432 5.968-9.824 10.736-17.713 13.483z" fill="#0E8F6B" data-color="2"/><path d="M61.117 55.726c1.941 3.538 2.149 6.695 1.606 10.23-1.032 6.723-1.602 13.525-2.133 20.312-.157 2.009-.88 3.159-2.566 4.118-4.483 2.55-9.279 3.792-14.554 4.113-.172-.806-.405-1.415-.416-2.028-.128-6.812-.274-13.624-.301-20.437-.012-3.102.415-2.832 2.739-3.663 5.401-1.931 9.764-5.401 13.421-9.779.691-.828 1.317-1.709 2.204-2.866zM66.57 177.065c-4.105.754-6.976.255-9.125-3.311-5.66-9.392-11.588-18.622-17.387-27.93-.567-.911-.975-1.921-1.555-3.082l12.792.991c3.987 11.299 7.999 22.786 15.275 33.332zM33.879 132.606c4.53 1.717 8.787 3.002 13.318 3.024 1.231.006 2.016.674 2.287 1.926.228 1.05.525 2.085.867 3.42-2.157.697-4.228.553-6.199.279-8.277-1.151-6.722.038-10.164-7.5-.086-.186-.047-.428-.109-1.149z" fill="#0E8F6B" data-color="2"/><path d="M85.381 53.504c1.492-6.905 4.387-13.321 5.853-20.425-1.93.381-2.06 1.674-2.401 2.728-1.554 4.811-3.044 9.642-4.597 14.453-3.792 11.747-6.338 23.784-8.461 35.923-.189 1.078-.442 2.145-.765 3.696-1.098-.597-2.187-.903-2.865-1.607-2.655-2.758-5.289-5.553-7.685-8.531-.717-.892-1-2.471-.86-3.662 1.562-13.25 3.987-26.329 9.095-38.73 1.495-3.63 3.524-7.087 5.661-10.395 2.417-3.741 6.021-6.004 10.416-7 3.942-.894 7.137.162 9.699 3.293 1.917 2.343 3.282 4.936 3.884 7.912.974 4.811.887 9.625-.104 14.412-.159.769-.682 1.629-1.299 2.108-2.566 1.995-11.474 5.29-15.571 5.825zM78.014 36.19c.574-.527 1.155-.815 1.249-1.217.09-.384-.328-.886-.523-1.335-.486.315-1.127.537-1.396.983-.144.24.349.865.67 1.569zm7.32-9.512c-.418.723-.805 1.127-.843 1.561-.023.259.594.85.763.796.422-.136 1.013-.528 1.049-.869.038-.364-.482-.787-.969-1.488z" fill="#0ACB8B" data-color="3"/><path d="M74.049 112.835c1.449-17.872 4.766-34.933 8.92-51.959 6.158-.055 11.216-2.839 17.055-5.136-.371 1.564-.606 2.771-.946 3.947-2.313 8.01-4.76 15.983-6.942 24.029-1.895 6.986-3.558 14.037-5.189 21.09-.429 1.854-1.251 3.117-2.865 4.131-2.979 1.873-5.964 3.613-10.033 3.898zM83.068 177.992c-1.271.168-2.025.296-2.784.355-.304.023-.62-.105-1.137-.204-4.604-20.887-6.613-41.985-5.295-63.37 2.249-.663 4.288-1.12 6.211-1.873 1.808-.708 3.494-1.729 5.712-2.856-4.106 22.706-4.066 45.176-2.707 67.948zM63.603 81.422c3.171 3.914 6.198 7.985 11.209 10.225-2.426 15.495-3.406 31.017-2.677 46.665-3.921-.807-7.657-4.612-7.871-8.113-.683-11.172-1.419-22.344-1.85-33.527-.193-5.005.291-10.037.468-15.056l.721-.194zM77.77 178.224c-4.626.704-5.414.385-6.247-3.757-1.752-8.714-3.296-17.471-4.845-26.225-.686-3.876-1.177-7.786-1.824-12.13l7.389 4.823c.819 12.319 2.291 24.934 5.527 37.289zM83.851 59.428c-.063-2.853 1.149-3.782 3.372-4.461 4.688-1.431 9.236-3.323 13.985-5.08.212 1.357.051 2.848-1.454 3.66a59.608 59.608 0 0 1-15.903 5.881z" fill="#0ACB8B" data-color="3"/><path d="M115.666 122.315c4.925-5.684 10.199-10.343 15.969-14.394 4.492-3.154 9.203-6 13.869-8.9.652-.405 1.757-.704 2.382-.432 4.59 1.997 9.235 2.485 14.761.411-.902 2.417-1.27 4.282-2.229 5.766-1.419 2.194-3.006 4.407-4.962 6.103-6.644 5.76-13.509 11.264-20.225 16.943-1.613 1.364-3.306 1.633-5.205 1.109-5.012-1.383-9.611-3.654-14.36-6.606zm32.239-8.371c.609-.57 1.315-.93 1.385-1.387.063-.413-.57-.932-.896-1.404l-1.651 1.146 1.162 1.645zm8.043-9.123c-.72-.298-1.132-.626-1.373-.529-.3.121-.459.593-.679.913.264.171.562.515.784.471.34-.066.628-.4 1.268-.855zM89.151 177.994l-3.461-.039c.008-.741-.142-1.406.047-1.955 1.602-4.666 2.923-9.469 4.978-13.932a193.425 193.425 0 0 1 20.462-34.499c.785-1.056 1.645-2.058 2.498-3.062.199-.234.508-.374.886-.642 4.589 3.45 9.69 5.883 15.71 7.531-16.39 13.425-31.759 27.292-41.12 46.598zM124.387 110.741c-.49-2.605-1.209-5.155-1.405-7.745-.339-4.481-.38-8.986-.493-13.482-.041-1.641.799-2.751 2.078-3.852 8.311-7.155 17.577-8.428 28.007-4.714-.416.746-.786 1.48-1.219 2.174-2.333 3.742-4.492 7.536-5.132 12.026-.117.819-.87 1.759-1.596 2.246-6.559 4.397-13.177 8.707-20.24 13.347zm15.757-26.847c-.79-.345-1.226-.688-1.644-.667-.301.015-.578.515-.866.798.364.302.71.811 1.096.844.343.028.729-.474 1.414-.975zM120.555 89.617c-.045 7.668.363 15.167 2.826 22.586-6.545 5.913-12.571 12.236-17.502 20.105-.845-1.304-1.592-2.114-1.952-3.071-1.465-3.892-2.907-7.798-4.137-11.768-.316-1.019-.142-2.447.344-3.419 4.831-9.678 11.849-17.59 20.421-24.433zM98.438 118.57c1.602 5.315 2.591 10.679 6.256 15.152-7.099 11.754-14.228 23.456-18.991 37.086-.259-1.266-.471-1.933-.522-2.613-.433-5.778.936-11.362 1.922-16.978 1.872-10.66 5.17-20.877 9.786-30.668.234-.497.462-.999.744-1.468.097-.162.349-.231.805-.511zM160.868 89.837l-12.453 4.873c-.087-3.099 2.062-7.924 5.919-13 3.439 1.626 5.374 4.433 6.534 8.127zM149.22 97.057c4.095-2.679 8.136-3.778 12.457-5.121l.872 4.535c-4.317 2.393-8.453 1.983-13.329.586z" fill="#0E8F6B" data-color="2"/><path d="M160.71 150.808c-1.197.807-2.092 1.56-3.11 2.07-3.626 1.817-7.212 3.752-10.963 5.274-8.026 3.258-16.159 6.255-24.216 9.438-1.549.612-2.848.603-4.363-.129-2.827-1.365-5.07-3.373-7.199-5.565 4.061-4.831 21.321-15.426 31.169-19.233 3.024 1.684 5.883 3.556 8.969 4.914 2.961 1.305 6.157 2.076 9.713 3.231zm-30.737 7.774.793-.502c.179-.325.527-.671.491-.971-.036-.292-.464-.536-.719-.801-.289.345-.72.653-.826 1.047-.097.361.16.815.261 1.227zM118.962 152.665c-.899-2.71-.365-5.203.327-7.612.276-.964 1.095-1.91 1.909-2.559a1694.296 1694.296 0 0 1 21.482-16.875c.901-.695 2.183-1.197 3.309-1.24 3.364-.128 6.739.016 10.508.058-.549.779-.888 1.394-1.351 1.895-2.856 3.097-5.299 6.454-6.53 10.54-.418 1.387-1.194 2.288-2.55 2.755-9.284 3.194-17.901 7.75-26.243 12.867-.171.105-.417.088-.861.171zM143.974 142.078c5.911-3.548 12.324-4.039 19.044-5.503-2.813-2.051-5.341.141-7.585-.799 1.593-3.751 4.331-6.801 8.185-8.988 3.429 2.503 4.666 6.13 4.592 10.219-.058 3.221-1.128 6.244-2.752 9.062-1.1 1.908-2.529 2.812-4.84 2.516-4.43-.569-8.528-2.044-12.444-4.105-1.331-.701-2.614-1.491-4.2-2.402zM117.125 146.243c-.026 2.32-.32 4.006.008 5.56.397 1.885-.343 2.774-1.777 3.725-7.603 5.042-13.713 11.583-18.776 19.125-1.209 1.801-2.271 3.701-3.358 5.485-1.664.104-1.815-.984-1.542-1.943.385-1.351.913-2.728 1.684-3.892 6.312-9.535 13.268-18.549 21.762-26.282.475-.431.959-.853 1.999-1.778z" fill="#0ACB8B" data-color="3"/><path d="M94.813 180.264c4.449-6.623 8.96-12.323 14.344-17.293l7.888 6.669c-1.306.614-2.617 1.263-3.956 1.852-4.741 2.086-9.419 4.266-13.204 7.946-1.249 1.214-2.786.99-5.072.826zM161.544 126.002c-3.478 2.64-6.121 5.982-8.336 9.68-.605 1.01-1.402 1.608-2.929 1.452 1.539-4.917 4.447-8.674 8.094-11.858.565-.494 1.951-.048 2.957-.037l.214.763z" fill="#0ACB8B" data-color="3"/><path d="M108.386 90.783c.109-6.68-2.288-12.239-4.493-17.85-.843-2.145-1.622-4.318-2.545-6.428-.718-1.642-.548-3.135.423-4.973.56.935.993 1.645 1.414 2.363 1.386 2.362 2.71 4.763 4.183 7.069.513.803 1.307 1.51 2.123 2.02 1.829 1.144 2.933.904 4.286-.75 1.473-1.8 2.256-3.956 1.617-6.149-.944-3.238-2.286-6.364-3.528-9.51-.923-2.34-2.098-4.588-2.893-6.967-.598-1.789-.503-3.658 1.339-5.415.465 1.32.781 2.413 1.227 3.451 1.605 3.729 3.187 7.471 4.903 11.15 2.397 5.138 4.078 10.414 3.888 16.172-.072 2.188-.744 3.895-2.401 5.508-3.204 3.121-6.105 6.556-9.543 10.309zM132.226 68.29c.119-1.298.119-2.152.285-2.973 1.218-6.03.931-11.995-.485-17.968-.854-3.603-1.434-7.271-2.193-11.205 2.181.34 2.603 1.674 2.813 2.891.504 2.913.708 5.877 1.219 8.788.356 2.026.85 4.064 1.603 5.97.526 1.331 1.665 2.362 3.355 2.171 1.679-.19 2.49-1.415 2.831-2.841.586-2.451.847-4.98 1.468-7.42.591-2.322 1.232-4.686 2.277-6.824 1.291-2.643 3.569-4.3 7.015-5.025-3.341 6.583-4.273 13.435-5.822 20.121-.988 4.263-3.053 7.657-7.14 9.731-2.406 1.22-4.584 2.886-7.226 4.584z" fill="#FFBF23" data-color="4"/><path d="M111.859 43.643c2.886.551 3.936 2.231 4.765 4.013 1.11 2.388 2.048 4.855 3.06 7.289.904 2.173 2.154 4.083 4.184 5.373 3.013 1.914 5.242 1.035 5.542-2.484.192-2.251-.25-4.581-.595-6.847-.313-2.057-.982-4.06-1.308-6.116-.395-2.489-.586-5.008.881-8.152 1.346 6.931 2.981 13.119 3.607 19.408.381 3.83-.713 7.827-1.324 11.72-.158 1.008-.795 2.13-1.557 2.817-2.177 1.962-4.532 3.726-7.189 5.868-.096-2.244-.12-4.053-.261-5.853-.349-4.448-1.905-8.547-3.713-12.572a824.984 824.984 0 0 1-4.646-10.552c-.469-1.083-.825-2.216-1.446-3.912zM170.479 74.028c-3.086.519-6.021.634-8.758-.469-2.93-1.181-5.699-2.769-8.515-4.223-1.166-.602-2.206-1.565-3.43-1.897-.907-.246-2.39-.072-2.933.53-.531.59-.631 2.281-.156 2.925 1.344 1.822 3.045 3.39 4.679 4.984.607.592 1.416.977 2.13 1.454-.149.24-.266.529-.329.518-4.386-.796-8.884-1.024-13.044-2.922-2.883-1.315-5.882-2.374-9.065-3.642.596-.554 1.125-1.213 1.799-1.645 2.769-1.773 5.626-3.411 8.366-5.227 2.626-1.741 5.39-1.656 8.224-.887 1.263.342 2.518.813 3.68 1.413 5.709 2.947 11.386 5.956 17.352 9.088zM173.147 72.513c-2.066-.598-4.228-.979-6.175-1.845-3.003-1.337-5.83-3.065-8.784-4.52-3.334-1.642-6.727-3.164-10.344-4.856 4.446-2.501 9.295-4.365 14.108-6.337 4.865-1.993 9.64-4.206 15.048-6.584-.614 1.015-.85 1.901-1.419 2.263-2.854 1.815-5.783 3.516-8.712 5.21-1.229.71-2.626 1.164-3.766 1.985-1.75 1.262-1.923 2.329-.978 4.286 1.189 2.463 2.984 4.314 5.548 5.383 1.214.506 2.478.965 3.569 1.676.936.61 1.658 1.548 2.474 2.34l-.569.999zM176.686 46.182c-9.251 6.296-20.201 8.221-30.067 13.782 1.811-7.423 3.381-14.192 5.156-20.907.488-1.847 1.59-3.531 2.516-5.517 1.441.983 1.564 2.21 1.404 3.338-.322 2.267-.82 4.511-1.312 6.75-.399 1.817-1.088 3.589-1.308 5.422-.439 3.653 1.598 5.114 5.05 3.691 1.516-.625 2.911-1.535 4.393-2.25 3.063-1.478 6.111-3 9.24-4.325 1.429-.605 3.025-1.457 4.928.016zM93.067 91.627l.311-1.426c.363.004.632-.078.774.021 3.325 2.321 6.101 5.115 6.842 9.277.258 1.446.308 3.17-.239 4.476-2.118 5.051-4.515 9.985-6.867 15.089-1.65-2.593-3.223-4.934-4.637-7.367-.403-.693-.561-1.683-.454-2.486.244-1.831.721-3.631 1.133-5.584.747.14 1.271.203 1.775.339 2.007.543 4.056.75 5.418-1.13 1.449-2.001 1.748-4.426.387-6.518-1.097-1.685-2.787-2.984-4.443-4.691zM102.692 99.558c-1.293-5.155-4.162-9.003-8.198-12.255.903.333 1.79.721 2.712.989 4.069 1.18 6.119-.646 5.613-4.868-.385-3.216-1.387-6.22-3.02-8.981-1.101-1.862-1.303-3.619-.011-5.736.427.73.851 1.311 1.129 1.955 1.303 3.022 2.666 6.025 3.81 9.108.836 2.253 1.541 4.587 1.992 6.945.919 4.801-.272 9.057-4.027 12.843zM127.188 81.386c-.585.266-1.25.428-1.74.815-2.063 1.629-4.245 3.159-6.059 5.038-2.113 2.19-4.545 3.196-8.079 3.202.79-1.051 1.342-1.889 1.997-2.637 1.588-1.812 3.167-3.637 4.852-5.355 2.876-2.932 4.128-3.144 9.029-1.063zM138.626 75.986c-2.767.999-5.525 2.023-8.307 2.976a3.895 3.895 0 0 1-1.846.151c-1.711-.294-3.403-.702-5.338-1.116 1.352-1.976 3.163-3.359 5.042-4.597.645-.425 1.736-.54 2.508-.344 2.722.692 5.394 1.581 8.085 2.395l-.144.535zM101.166 106.884c1.898-4.626 4.374-8.612 7.13-12.42 1.227-1.696 3.233-1.992 5.489-2.671l-12.619 15.091zM165.242 84.167c-3.867.301-5.752-2.32-7.979-4.354 3.443.52 6.431 2.133 7.979 4.354z" fill="#FFBF23" data-color="4"/><path d="M78.014 36.19c-.321-.705-.814-1.329-.67-1.569.269-.446.91-.668 1.396-.983.195.45.613.952.523 1.335-.094.402-.675.69-1.249 1.217zM85.334 26.678c.487.7 1.007 1.123.968 1.487-.036.341-.627.733-1.049.869-.169.055-.786-.537-.763-.796.04-.433.427-.837.844-1.56zM129.973 158.582c-.101-.413-.358-.867-.262-1.227.105-.394.536-.702.826-1.047.256.265.684.509.719.801.036.299-.311.645-.491.971-.263.168-.527.335-.792.502zM140.144 83.894c-.685.501-1.072 1.003-1.413.975-.386-.032-.732-.542-1.096-.844.288-.283.564-.783.866-.798.417-.021.853.321 1.643.667z" data-color="1"/></svg>