<svg data-bbox="33.421 19.201 133.153 161.593" viewBox="33.421 19.201 133.153 161.593" height="200" width="200" xmlns="http://www.w3.org/2000/svg" data-type="color" aria-hidden="true"><defs><style>#comp-kyjwpui0 svg [data-color=&quot;1&quot;]{fill:#000}#comp-kyjwpui0 svg [data-color=&quot;2&quot;]{fill:#ffbf23}#comp-kyjwpui0 svg [data-color=&quot;3&quot;]{fill:#fe393c}#comp-kyjwpui0 svg [data-color=&quot;4&quot;]{fill:#f28fe0}#comp-kyjwpui0 svg [data-color=&quot;5&quot;]{fill:#0acb8b}</style></defs><path d="M99.591 125.758c1.467-1.751 2.926-3.509 4.403-5.251 2.433-2.869 5.217-5.311 8.669-6.893 1.069-.49 2.284-1.312 3.337-.207 1.111 1.167.506 2.605-.291 3.579-1.518 1.854-3.283 3.509-4.975 5.218-1.905 1.924-3.858 3.802-5.754 5.734-.381.389-.604.933-.614 1.754 1.176-.67 2.313-1.425 3.537-1.991 1.727-.798 3.485-1.563 5.295-2.138 1.257-.399 2.693-.459 3.547.858.935 1.44.27 2.863-.773 3.814-1.767 1.612-3.729 3.022-5.684 4.41-1.036.735-2.232 1.246-3.71 2.051 1.29.511 2.217.683 2.881 1.195.726.56 1.606 1.385 1.708 2.186.16 1.257-.991 1.878-2.149 2.102-.98.19-1.993.382-2.979.333-2.71-.136-5.419-.351-8.118-.634-1.016-.107-1.864-.282-2.786.52-1.147.998-2.526.815-3.462-.38-.733-.936-1.618-.994-2.631-1.096-3.701-.371-7.512-.38-11.059-1.341-3.211-.87-6.19-2.704-9.152-4.33-1.018-.559-1.727-1.819-1.004-3.138.694-1.266 1.957-1.397 3.175-1.024 1.789.548 3.526 1.266 5.729 2.074-.454-1.085-.699-1.79-1.033-2.448-1.684-3.318-3.446-6.597-5.071-9.944-.975-2.009-1.556-4.166-1.177-6.436.363-2.175 1.759-2.748 3.38-1.291.949.853 1.785 1.95 2.344 3.097 1.276 2.616 2.356 5.327 3.505 8.004.494 1.151.961 2.313 1.84 3.302-.138-3.889-.469-7.783-.361-11.665.106-3.806.63-7.603 1.036-11.396.095-.886.374-1.779.72-2.604.467-1.114 1.051-2.377 2.519-2.166 1.241.178 1.726 1.319 1.859 2.469.173 1.492.328 2.999.315 4.498-.031 3.621-.188 7.242-.243 10.863-.016 1.076.139 2.154.671 3.249.609-3.984 1.168-7.977 1.844-11.95a90.915 90.915 0 0 1 1.518-7.074c.346-1.366.892-3.014 2.573-2.907 1.781.114 2.017 2.019 1.974 3.284-.105 3.098-.546 6.189-.958 9.269-.407 3.047-.943 6.076-.876 9.266.783-1.698 1.469-3.45 2.371-5.083 1.702-3.079 3.451-6.138 5.32-9.117 3.354-5.344 3.191-9.924-1.1-14.582-2.091-2.271-4.662-4.108-7.074-6.072-1.557-1.268-3.294-2.319-4.818-3.622-3.811-3.259-5.661-7.477-5.789-12.472-.108-4.24 2.028-6.423 6.252-6.236 3.649.161 6.284 1.989 7.799 5.29 1.602 3.487 4.179 6.132 7.094 8.487.76.614 1.683 1.153 2.617 1.396 1.725.448 2.985-.583 2.494-2.259-.549-1.875-1.524-3.701-2.655-5.308-1.087-1.543-2.549-2.846-3.955-4.136-4.847-4.449-6.421-10.046-5.882-16.404.295-3.48 2.249-5.919 5.42-6.955 3.06-.999 5.973-.109 8.283 2.275 1.814 1.873 2.718 4.197 3.231 6.702.424 2.068.792 4.15 1.275 6.204.516 2.195 1.751 3.797 4.176 4.499 2.041-2.65 2.783-5.509 1.654-8.716-.768-2.181-1.696-4.305-2.458-6.488-1.406-4.028-2.233-8.143-1.621-12.445.325-2.287 1.244-4.218 3.088-5.676 3.443-2.721 7.164-2.126 8.934 1.85 1.035 2.324 1.294 5.015 1.748 7.568.263 1.475.174 3.009.332 4.507.117 1.109.4 2.186 2.186 2.523.38-1.073.968-2.121 1.096-3.222.242-2.091.355-4.218.286-6.322-.318-9.642 8.149-16.676 15.782-17.199a43.656 43.656 0 0 0 2.702-.271c6.201-.814 9.932 3.619 11.236 7.257 1.792 5.002-.424 11.227-4.822 13.753-3.044 1.748-6.266 3.188-9.41 4.762-1.527.764-3.11 1.433-4.568 2.311-.881.53-1.57 1.379-2.536 2.257 1.772 1.248 3.022.532 4.256-.034 2.375-1.09 4.709-2.274 7.11-3.301 4.135-1.77 7.842-1.034 11.115 2.063 3.071 2.906 3.079 7.192-.089 10.064-2.21 2.004-4.936 2.575-7.829 2.604-3.515.035-7.037-.024-10.543.188-1.989.12-3.974.603-5.913 1.109-1.042.272-2.154.753-2.919 1.474-.722.68-1.562 1.925-1.379 2.688.195.811 1.456 1.508 2.395 1.951.666.314 1.577.211 2.366.146 3.207-.265 6.409-.591 9.613-.887.801-.074 1.604-.158 2.407-.167 2.939-.035 5.478.919 6.643 3.759 1.243 3.029.75 6.017-1.645 8.366-4.206 4.126-9.269 5.012-14.79 3.349-1.913-.576-3.671-1.655-5.572-2.291-2.465-.825-4.972-1.597-7.521-2.066-1.069-.197-2.486.146-3.405.755-2.466 1.636-2.289 4.473.245 6.095 4.15 2.656 8.778 3.953 13.607 4.603 2.94.396 5.675 1.115 7.917 3.28 4.83 4.665 3.614 11.363-2.639 13.879-4.108 1.653-8.116.865-12.004-.826-1.934-.841-3.721-2.067-5.703-2.741-2.831-.962-5.741-1.956-8.687-2.254-4.621-.468-8.295 1.356-10.955 5.443-3.42 5.254-6.631 10.562-8.292 16.668-.175.642-.271 1.305-.404 1.958l.408.244zm48.212-51.577.107.726c-1.135.253-2.274.739-3.403.715-3.001-.065-6.001-.317-8.996-.559-2.2-.177-4.392-.642-6.588-.649-4.288-.013-7.483 1.978-9.488 5.808-1.446 2.761-2.903 5.517-4.347 8.28-.871 1.666-1.727 3.34-2.78 5.38 1.161-.202 1.924-.306 2.673-.47 2.87-.626 5.833-1.266 8.656-.348 4.794 1.56 9.468 3.485 14.193 5.257-1.936.737-3.694.064-5.438-.486-2.586-.816-5.104-1.866-7.718-2.567-4.705-1.261-9.167-.322-13.365 1.99-1.6.881-2.597 2.217-2.668 4.567 3.279-2.336 6.558-3.368 10.225-3.157 3.471.199 6.739 1.097 9.865 2.556 2.004.935 3.921 2.076 5.971 2.889 3.451 1.369 7.002 1.998 10.486.079 3.322-1.829 3.892-5.607 1.295-8.387-1.402-1.501-3.044-2.59-5.187-2.805-1.398-.141-2.783-.431-4.165-.697-4.484-.863-8.756-2.272-12.521-4.956-1.443-1.029-2.578-2.252-2.642-4.159-.115-3.421 2.389-6.624 5.813-6.958 1.854-.18 3.855-.014 5.639.51 3.074.903 6.03 2.205 9.035 3.342 4.357 1.648 8.496 1.337 12.292-1.485 2.216-1.647 2.992-3.939 2.206-6.061-.654-1.765-2.528-2.693-5.312-2.515-2.106.135-4.202.45-6.308.557-2.405.122-4.83.273-7.223.094-2.233-.167-4.082-1.329-4.711-3.624-.614-2.239.607-3.972 2.299-5.185 1.276-.915 2.796-1.596 4.307-2.057 5.068-1.549 10.276-1.661 15.54-1.442 1.95.081 4.07-.205 5.865-.934 3.133-1.271 3.572-4.765 1.204-7.132-2.382-2.381-5.117-3.111-8.268-1.808-2.228.922-4.406 1.965-6.624 2.91-1.105.471-2.223.979-3.388 1.225-1.82.385-3.458-.367-4.189-1.687-.733-1.324-.464-2.997 1.214-4.25 1.995-1.489 4.216-2.698 6.417-3.883 3.007-1.619 6.145-2.998 9.121-4.667 3.485-1.955 5.154-6.756 3.964-10.803-1.024-3.481-4.52-5.834-8.577-5.701-1.404.046-2.818.16-4.201.399-6.943 1.198-12.563 7.592-12.318 13.998.077 2.007.043 4.034-.153 6.03-.145 1.479-.407 3.029-1.02 4.362-1.295 2.817-4.307 2.934-5.862.237-.627-1.087-.885-2.444-1.074-3.713-.266-1.786-.172-3.631-.494-5.402-.302-1.661-.73-3.37-1.488-4.862-1.256-2.473-3.25-2.734-5.47-1.021-1.96 1.513-2.553 3.714-2.375 5.925.24 2.979.806 5.962 1.549 8.862.595 2.323 1.63 4.537 2.528 6.777 1.472 3.67.794 7.114-1.084 10.405-1.096 1.92-2.319 2.264-4.298 1.361-2.336-1.066-3.884-2.851-4.531-5.332-.608-2.334-1.102-4.697-1.649-7.047-.488-2.098-1.335-4.013-2.954-5.495-1.615-1.478-3.592-2.006-5.605-1.308-2.127.738-3.462 2.407-3.643 4.747-.398 5.14.69 9.8 4.523 13.541 1.584 1.546 3.203 3.063 4.682 4.705 1.838 2.04 3.305 4.346 3.703 7.13.485 3.395-2.258 5.987-5.567 5.132-1.404-.363-2.799-1.161-3.936-2.084-3.142-2.55-5.892-5.462-7.624-9.221-1.195-2.595-3.232-4.057-6.177-4.034-2.406.019-3.314.842-3.41 3.216-.167 4.146 1.182 7.748 4.244 10.569 1.471 1.355 3.179 2.452 4.782 3.662 1.924 1.453 3.919 2.821 5.762 4.37 3.335 2.803 5.625 6.271 6.297 10.675.062.405.268.789.445 1.291 2.636-2.489 2.668-5.011 1.234-7.848-1.1-2.176-2.837-3.588-4.816-4.845-4.387-2.787-8.106-6.283-10.873-10.705-.617-.986-1.531-2.039-.82-3.816.546.776.939 1.216 1.2 1.723 2.221 4.314 5.613 7.576 9.433 10.425 1.608 1.199 3.515 2.036 4.99 3.366 1.429 1.289 2.478 3 3.855 4.727 1.492-2.781 2.699-5.568 4.377-8.034 2.478-3.641 2.178-7.189.271-10.796-.933-1.765-2.1-3.415-3.252-5.054-1.734-2.466-3.782-4.744-5.251-7.354-1.154-2.05-1.668-4.469-2.379-6.752-.128-.411.174-.955.278-1.437l.582-.073c.343 4.93 2.907 8.768 5.923 12.292 3.011 3.518 6.196 6.873 7.418 12.177.995-1.718 1.669-2.821 2.283-3.955 1.292-2.388 2.33-4.948 3.877-7.154 2.426-3.457 2.609-7.076 1.586-10.936-.386-1.456-.926-2.871-1.316-4.326-.883-3.296-1.755-6.597-2.539-9.917-.175-.742.029-1.574.081-2.979l6.608 20.591c1.802-2.855 3.413-5.379 4.996-7.921 4.326-6.947 9.404-13.299 15.149-19.118.768-.778 1.439-1.84 2.897-1.663-3.557 4.604-7.439 8.892-11.022 13.416-3.598 4.544-6.69 9.457-10.054 15.044 1.122-.423 1.541-.615 1.979-.74 3.176-.907 6.307-2.11 9.546-2.621 4.167-.657 8.378-.958 12.31-2.662.111-.048.329.152.496.237-1.702 1.792-3.351 2.578-6.601 3.06-2.386.354-4.792.587-7.17.987-9.475 1.593-15.405 7.068-17.858 16.674 4.174-1.394 8.197-.537 12.27.023 3.462.476 6.983.523 10.48.733.587.036 1.18-.061 1.769-.097zm-77.089 58.953-.459.537c.458.343.871.783 1.38 1.014 3.622 1.645 7.059 3.735 11.315 3.584 2.461-.087 4.942.413 7.38.645.135-3.625.54-6.925.306-10.18-.291-4.061.088-8.021.731-11.992.674-4.163 1.42-8.315 2.035-12.487.158-1.073.462-2.331-.928-3.469-.362 1.179-.718 2.097-.923 3.047-1.762 8.158-3.282 16.35-3.433 24.734-.014.804-.267 1.604-.427 2.502-1.804-.533-1.738-1.753-1.944-2.785-1.03-5.162-1.057-10.375-.858-15.61.114-3.006.081-6.02.035-9.029-.009-.597-.378-1.188-.581-1.782-.812 1.064-1.166 2.091-1.358 3.148-1.488 8.194-1.196 16.401-.12 24.609.078.596.28 1.188.272 1.781-.015 1.135-.928 1.66-1.837 1.006-.632-.455-1.241-1.083-1.585-1.772-1.029-2.058-1.914-4.188-2.873-6.281-1.293-2.824-2.569-5.656-3.935-8.444-.252-.514-.896-.836-1.572-1.436-.426 2.517.419 4.351 1.339 6.125 2.081 4.012 4.222 7.992 6.37 11.969.447.827 1.023 1.748.147 2.428-.626.486-1.65.715-2.459.642-.854-.076-1.665-.645-2.495-.999l-3.523-1.505zm43.972-17.626-.487-.519c-1.743.618-3.356 1.6-4.61 2.957-3.339 3.612-6.442 7.445-9.833 11.005-2.801 2.94-2.819 6.405-2.748 10.164 3.636.305 7.052 1.147 10.566.661-.317-.428-.654-.635-1.021-.754-1.045-.338-2.325-.495-2.492-1.832-.186-1.491 1.135-1.991 2.16-2.585 1.478-.857 3.048-1.565 4.475-2.496 1.591-1.039 3.286-2.062 4.056-4.358-2.722.289-4.664 1.558-6.736 2.51-2.112.97-3.832 2.853-6.26 3.061-1.024-1.645-.291-2.879.454-3.869a94.333 94.333 0 0 1 5.743-6.938c1.419-1.551 3.143-2.82 4.637-4.308.801-.799 1.404-1.793 2.096-2.699zm-20.94 24.802c.799-4.694 1.306-9.462 2.479-14.06 1.196-4.692 3.046-9.218 4.657-13.957-5.273 5.878-10.618 22.658-7.136 28.017z" data-color="1"/><path d="M147.803 74.181c-.589.036-1.182.133-1.767.097-3.497-.211-7.018-.257-10.48-.733-4.073-.56-8.096-1.417-12.27-.023 2.453-9.606 8.383-15.081 17.858-16.674 2.378-.4 4.784-.632 7.17-.987 3.25-.482 4.899-1.268 6.602-3.061-.168-.085-.386-.284-.496-.236-3.933 1.704-8.144 2.005-12.31 2.662-3.24.511-6.37 1.714-9.546 2.621-.438.125-.857.317-1.979.74 3.364-5.586 6.455-10.5 10.054-15.044 3.583-4.524 7.464-8.811 11.022-13.416-1.459-.177-2.129.885-2.897 1.663-5.744 5.819-10.823 12.171-15.149 19.118-1.583 2.542-3.194 5.066-4.996 7.921l-6.608-20.591c-.052 1.404-.256 2.236-.081 2.979.784 3.321 1.656 6.621 2.539 9.917.39 1.455.93 2.87 1.316 4.326 1.023 3.86.84 7.479-1.586 10.936-1.548 2.205-2.585 4.766-3.877 7.154-.614 1.135-1.288 2.237-2.283 3.955-1.222-5.304-4.407-8.659-7.418-12.177-3.016-3.524-5.58-7.362-5.923-12.292l-.582.073c-.103.482-.405 1.027-.278 1.437.71 2.283 1.225 4.702 2.379 6.752 1.468 2.609 3.517 4.887 5.251 7.354 1.152 1.639 2.318 3.289 3.252 5.054 1.907 3.607 2.207 7.155-.271 10.796-1.679 2.466-2.886 5.253-4.377 8.034-1.377-1.727-2.426-3.438-3.855-4.727-1.475-1.33-3.381-2.167-4.99-3.366-3.82-2.85-7.212-6.111-9.433-10.425-.261-.507-.653-.947-1.2-1.723-.711 1.776.203 2.83.82 3.816 2.768 4.422 6.486 7.918 10.873 10.705 1.979 1.257 3.716 2.669 4.816 4.845 1.433 2.837 1.401 5.359-1.234 7.848-.177-.502-.383-.886-.445-1.291-.671-4.404-2.962-7.871-6.297-10.675-1.843-1.549-3.838-2.917-5.762-4.37-1.603-1.21-3.311-2.307-4.782-3.662-3.062-2.82-4.411-6.423-4.244-10.569.096-2.374 1.004-3.197 3.41-3.216 2.945-.023 4.981 1.44 6.177 4.034 1.732 3.759 4.482 6.671 7.624 9.221 1.137.923 2.532 1.72 3.936 2.084 3.309.856 6.052-1.736 5.567-5.132-.398-2.784-1.865-5.09-3.703-7.13-1.479-1.642-3.099-3.159-4.682-4.705-3.833-3.742-4.921-8.402-4.523-13.541.181-2.34 1.515-4.009 3.643-4.747 2.013-.698 3.99-.17 5.605 1.308 1.619 1.482 2.465 3.397 2.954 5.495.547 2.35 1.041 4.713 1.649 7.047.646 2.481 2.195 4.266 4.531 5.332 1.979.903 3.202.559 4.298-1.361 1.878-3.291 2.556-6.735 1.084-10.405-.898-2.239-1.933-4.454-2.528-6.777-.743-2.9-1.309-5.883-1.549-8.862-.178-2.211.416-4.413 2.375-5.925 2.22-1.714 4.214-1.452 5.47 1.021.758 1.492 1.186 3.201 1.488 4.862.322 1.772.228 3.616.494 5.402.189 1.269.447 2.626 1.074 3.713 1.554 2.697 4.566 2.58 5.862-.237.613-1.333.874-2.883 1.02-4.362.196-1.997.23-4.023.153-6.03-.245-6.407 5.375-12.801 12.318-13.998 1.383-.239 2.797-.352 4.201-.399 4.058-.134 7.554 2.22 8.577 5.701 1.19 4.047-.479 8.849-3.964 10.803-2.976 1.67-6.114 3.049-9.121 4.667-2.201 1.185-4.422 2.394-6.417 3.883-1.678 1.252-1.947 2.925-1.214 4.25.731 1.32 2.369 2.072 4.189 1.687 1.164-.246 2.283-.755 3.388-1.225 2.219-.945 4.396-1.988 6.624-2.91 3.151-1.304 5.886-.573 8.268 1.808 2.368 2.366 1.929 5.861-1.204 7.132-1.795.728-3.915 1.015-5.865.934-5.264-.218-10.472-.107-15.54 1.442-1.51.462-3.031 1.142-4.307 2.057-1.691 1.213-2.912 2.945-2.299 5.185.629 2.294 2.479 3.457 4.711 3.624 2.393.179 4.818.028 7.223-.094 2.107-.107 4.202-.422 6.308-.557 2.783-.178 4.658.75 5.312 2.515.786 2.122.01 4.414-2.206 6.061-3.796 2.822-7.935 3.133-12.292 1.485-3.005-1.136-5.961-2.439-9.035-3.342-1.784-.524-3.785-.691-5.639-.51-3.424.333-5.928 3.536-5.813 6.958.064 1.907 1.199 3.13 2.642 4.159 3.765 2.684 8.036 4.094 12.521 4.956 1.382.266 2.767.556 4.165.697 2.143.215 3.784 1.304 5.187 2.805 2.597 2.78 2.026 6.557-1.295 8.387-3.484 1.919-7.035 1.29-10.486-.079-2.05-.813-3.967-1.954-5.971-2.889-3.126-1.459-6.394-2.356-9.865-2.556-3.667-.211-6.945.821-10.225 3.157.071-2.35 1.068-3.685 2.668-4.567 4.198-2.312 8.66-3.251 13.365-1.99 2.614.701 5.133 1.751 7.718 2.567 1.744.55 3.502 1.223 5.438.486-4.725-1.772-9.399-3.697-14.193-5.257-2.822-.918-5.786-.278-8.656.348-.75.163-1.512.268-2.673.47 1.053-2.04 1.909-3.714 2.78-5.38 1.444-2.763 2.901-5.519 4.347-8.28 2.006-3.829 5.2-5.821 9.488-5.808 2.197.007 4.388.471 6.588.649 2.995.241 5.994.494 8.996.559 1.129.025 2.268-.461 3.403-.715-.039-.242-.074-.484-.11-.726z" fill="#FFBF23" data-color="2"/><path d="m70.714 133.134 3.525 1.505c.83.354 1.64.923 2.495.999.809.072 1.832-.156 2.459-.642.876-.68.3-1.601-.147-2.428-2.147-3.977-4.289-7.957-6.37-11.969-.92-1.774-1.765-3.608-1.339-6.125.677.6 1.32.922 1.572 1.436 1.366 2.788 2.642 5.621 3.935 8.444.959 2.094 1.844 4.224 2.873 6.281.344.688.953 1.317 1.585 1.772.908.654 1.822.129 1.837-1.006.008-.592-.194-1.184-.272-1.781-1.077-8.208-1.368-16.416.12-24.609.192-1.057.545-2.084 1.358-3.148.203.594.572 1.185.581 1.782.046 3.009.079 6.023-.035 9.029-.199 5.235-.172 10.449.858 15.61.206 1.033.14 2.252 1.944 2.785.159-.897.412-1.697.427-2.502.15-8.384 1.671-16.576 3.433-24.734.205-.95.561-1.868.923-3.047 1.391 1.138 1.086 2.396.928 3.469-.615 4.172-1.36 8.324-2.035 12.487-.643 3.971-1.022 7.93-.731 11.992.233 3.255-.172 6.555-.306 10.18-2.437-.232-4.919-.732-7.38-.645-4.256.151-7.693-1.939-11.315-3.584-.509-.231-.922-.671-1.38-1.014l.457-.537zM114.686 115.508c-.692.905-1.296 1.9-2.096 2.696-1.495 1.488-3.218 2.757-4.637 4.308a94.543 94.543 0 0 0-5.743 6.938c-.745.989-1.478 2.224-.454 3.869 2.428-.207 4.148-2.091 6.26-3.061 2.072-.951 4.014-2.221 6.736-2.51-.769 2.297-2.465 3.319-4.056 4.358-1.426.931-2.997 1.64-4.475 2.496-1.025.594-2.346 1.094-2.16 2.585.167 1.337 1.447 1.495 2.492 1.832.366.118.704.326 1.021.754-3.514.487-6.93-.356-10.566-.661-.072-3.759-.053-7.224 2.748-10.164 3.391-3.56 6.495-7.392 9.833-11.005 1.254-1.357 2.867-2.339 4.61-2.957.162.176.325.349.487.522z" fill="#FE393C" data-color="3"/><path d="M93.746 140.31c-3.481-5.36 1.863-22.139 7.135-28.017-1.611 4.739-3.46 9.264-4.657 13.957-1.172 4.599-1.679 9.367-2.478 14.06z" fill="#FFAE23" data-color="4"/><path d="M47.458 123.066c-.578-1.43-1.291-2.912-1.784-4.464-2.104-6.624-.686-12.335 4.554-17.017 3.897-3.482 9.075-4.177 13.999-1.77 3.622 1.771 6.725 4.284 8.793 7.721 2.674 4.444 4.994 9.103 7.445 13.68.454.847.881 1.723 1.195 2.629 1.47 4.236 3.876 7.642 7.891 9.917 2.478 1.404 3.486 4.067 4.282 6.641.611 1.977-.199 3.321-2.111 3.703-3.907.779-6.576 3.268-8.478 6.444-2.935 4.903-5.005 10.171-5.37 16.002-.243 3.88-.95 7.582-3.92 10.564-4.578 4.597-10.731 4.867-15.882.913-6.921-5.312-7.303-18.531-2.701-23.35.325-.341.566-.763 1.131-1.539-1.128-.002-1.913-.02-2.698-.001-5.553.138-10.676-1.121-15.222-4.472-3.254-2.398-4.833-5.547-5.107-9.574-.42-6.165 1.592-11.041 7.197-13.932 1.995-1.026 4.345-1.365 6.786-2.095zm42.761 18.125c-.889-.901-1.858-1.33-3.254-.758-9.441 3.871-16.359 10.017-18.669 20.407-.189.849-.543 1.66-.821 2.489l-.581-.278c1.204-9.487 5.922-16.9 14.207-22.761-2.749.077-4.93.316-7.083.163-5.085-.361-10.156-.928-15.236-1.372-4.221-.369-8.445-.769-12.648.247-.446.108-.977-.137-1.469-.219l-.129-.579c.969-.502 1.889-1.208 2.919-1.456 1.481-.357 3.054-.591 4.568-.507 4.898.271 9.782.772 14.679 1.066 3.55.213 7.111.261 10.667.326.583.011 1.172-.268 1.759-.413-5.829-2.307-9.92-6.473-13.657-11.085-5.028-6.205-8.193-12.496-7.534-15.64.795 1.309 1.481 2.301 2.029 3.365 2.751 5.339 6.128 10.206 10.286 14.573 4.18 4.391 9.342 6.66 15.166 7.701.559.1 1.161-.042 2.039-.086-3.276-2.681-4.525-4.31-6.164-7.97-.669-1.494-1.216-3.047-1.948-4.507-2.543-5.071-4.999-10.193-7.773-15.137-1.816-3.237-4.649-5.639-7.985-7.332-3.319-1.684-6.765-1.894-9.909.205-4.046 2.703-6.591 6.423-6.445 11.555.12 4.217 1.872 7.811 4.242 11.172l1.381 1.963c-1.103.31-1.946.252-2.7-.038-5.801-2.232-11.916 1.913-13.656 6.616-2.217 5.993.152 11.992 5.749 15.027.758.411 1.565.744 2.374 1.045 5.465 2.033 10.955 1.756 16.451.131 1.073-.317 2.139-.892 3.145-.114.41 1.455-.531 2.037-1.395 2.298-2.717.819-4.081 3.027-5.735 5.037-3.692 4.487-2.821 15.348 2.566 19.53 3.771 2.927 8.217 2.918 11.799-.247 2.796-2.469 3.44-5.706 3.633-9.112.216-3.803 1.131-7.42 2.577-10.905 1.626-3.92 3.26-7.891 6.765-10.584 1.81-1.388 3.811-2.523 5.79-3.816z" data-color="1"/><path d="M90.219 141.191c-1.98 1.293-3.981 2.428-5.787 3.817-3.505 2.694-5.139 6.665-6.765 10.584-1.446 3.485-2.361 7.102-2.577 10.905-.193 3.406-.838 6.642-3.633 9.112-3.583 3.165-8.029 3.174-11.799.247-5.387-4.182-6.258-15.043-2.566-19.53 1.654-2.01 3.018-4.217 5.735-5.037.864-.261 1.805-.843 1.395-2.298-1.006-.779-2.072-.204-3.145.114-5.496 1.625-10.986 1.901-16.451-.131-.81-.301-1.616-.634-2.374-1.045-5.598-3.035-7.967-9.034-5.749-15.027 1.74-4.703 7.855-8.848 13.656-6.616.754.29 1.596.348 2.7.038l-1.381-1.963c-2.37-3.361-4.122-6.955-4.242-11.172-.146-5.132 2.399-8.852 6.445-11.555 3.143-2.1 6.589-1.889 9.909-.205 3.337 1.692 6.169 4.094 7.985 7.332 2.773 4.943 5.23 10.066 7.773 15.137.733 1.461 1.279 3.014 1.948 4.507 1.639 3.66 2.888 5.289 6.164 7.97-.878.045-1.48.186-2.039.086-5.824-1.042-10.986-3.31-15.166-7.701-4.157-4.368-7.534-9.235-10.286-14.573-.548-1.063-1.234-2.056-2.029-3.365-.659 3.144 2.507 9.435 7.534 15.64 3.737 4.612 7.829 8.778 13.657 11.085-.586.145-1.175.424-1.759.413-3.557-.065-7.118-.113-10.667-.326-4.897-.294-9.782-.795-14.679-1.066-1.514-.084-3.087.151-4.568.507-1.03.248-1.95.954-2.919 1.456l.129.579c.492.081 1.023.326 1.469.219 4.203-1.015 8.427-.616 12.648-.247 5.08.445 10.15 1.012 15.236 1.372 2.153.153 4.334-.086 7.083-.163-8.285 5.86-13.003 13.274-14.207 22.761l.581.278c.278-.829.632-1.641.821-2.489 2.31-10.39 9.228-16.536 18.669-20.407 1.394-.573 2.362-.144 3.251.757z" fill="#0E8F6B" data-color="5"/></svg>