<svg data-bbox="23.5 23.5 153 153" viewBox="23.5 23.5 153 153" height="200" width="200" xmlns="http://www.w3.org/2000/svg" data-type="color" aria-hidden="true" aria-labelledby="svgcid--cv1it7y89pa"><defs><style></style></defs><path d="M158.026 23.5H41.974C31.771 23.5 23.5 31.771 23.5 41.974v116.052c0 10.203 8.271 18.474 18.474 18.474h116.052c10.203 0 18.474-8.271 18.474-18.474V41.974c0-10.203-8.271-18.474-18.474-18.474z" fill="#111010" data-color="1"/><path d="M133.217 75.772h-6.588c0-14.683-11.945-26.629-26.629-26.629S73.37 61.089 73.37 75.772h-6.588c0-18.316 14.901-33.217 33.217-33.217 18.317 0 33.218 14.901 33.218 33.217zM130.662 82.431H69.338c-5.391 0-9.762 3.947-9.762 8.816v55.381c0 4.869 4.371 8.816 9.762 8.816h61.324c5.391 0 9.762-3.947 9.762-8.816V91.247c0-4.868-4.371-8.816-9.762-8.816zm-11.973 35.105-22.531 22.335a.907.907 0 0 1-.638.262h-7.143c-.806 0-1.21-.975-.64-1.545l14.823-14.824c.57-.57.167-1.545-.64-1.545H81.934c-.807 0-1.21-.975-.64-1.545l22.812-22.813c-.149-.149 4.855-.124 7.834-.095.802.008 1.196.978.629 1.545l-15.131 15.131c-.57.57-.167 1.545.64 1.545h19.973c.81 0 1.212.979.638 1.549z" fill="#FFF" data-color="2"/></svg>